<svg version="1.1" viewBox="0.0 0.0 1120.0 596.0" fill="none" stroke="none" stroke-linecap="square" stroke-miterlimit="10" width="1120" height="596" xmlns:xlink="http://www.w3.org/1999/xlink" xmlns="http://www.w3.org/2000/svg"><path fill="#ffffff" d="M0 0L1120.0 0L1120.0 596.0L0 596.0L0 0Z" fill-rule="nonzero"/><path stroke="#cccccc" stroke-width="1.0" stroke-linecap="butt" d="M102.5 80.5L102.5 514.5" fill-rule="nonzero"/><path stroke="#cccccc" stroke-width="1.0" stroke-linecap="butt" d="M332.5 80.5L332.5 514.5" fill-rule="nonzero"/><path stroke="#cccccc" stroke-width="1.0" stroke-linecap="butt" d="M562.5 80.5L562.5 514.5" fill-rule="nonzero"/><path stroke="#cccccc" stroke-width="1.0" stroke-linecap="butt" d="M792.5 80.5L792.5 514.5" fill-rule="nonzero"/><path stroke="#cccccc" stroke-width="1.0" stroke-linecap="butt" d="M95.5 514.5L984.5 514.5" fill-rule="nonzero"/><path stroke="#cccccc" stroke-width="1.0" stroke-linecap="butt" d="M95.5 427.5L984.5 427.5" fill-rule="nonzero"/><path stroke="#cccccc" stroke-width="1.0" stroke-linecap="butt" d="M95.5 339.5L984.5 339.5" fill-rule="nonzero"/><path stroke="#cccccc" stroke-width="1.0" stroke-linecap="butt" d="M95.5 252.5L984.5 252.5" fill-rule="nonzero"/><path stroke="#cccccc" stroke-width="1.0" stroke-linecap="butt" d="M95.5 165.5L984.5 165.5" fill-rule="nonzero"/><clipPath id="id_0"><path d="M95.8 80.666664L984.16 80.666664L984.16 514.2L95.8 514.2L95.8 80.666664Z" clip-rule="nonzero"/></clipPath><path fill="#34a853" clip-path="url(#id_0)" d="M532.0743 159.09709L538.43823 159.09709L538.43823 165.46106L532.0743 165.46106Z" fill-rule="nonzero"/><path fill="#34a853" clip-path="url(#id_0)" d="M523.8601 177.86003L530.22406 177.86003L530.22406 184.22398L523.8601 184.22398Z" fill-rule="nonzero"/><path fill="#34a853" clip-path="url(#id_0)" d="M329.4976 255.23344L335.86154 255.23344L335.86154 261.5974L329.4976 261.5974Z" fill-rule="nonzero"/><path fill="#34a853" clip-path="url(#id_0)" d="M819.7446 77.48469L826.1086 77.48469L826.1086 83.84865L819.7446 83.84865Z" fill-rule="nonzero"/><path fill="#34a853" clip-path="url(#id_0)" d="M470.4306 214.83772L476.7946 214.83772L476.7946 221.20168L470.4306 221.20168Z" fill-rule="nonzero"/><path fill="#34a853" clip-path="url(#id_0)" d="M355.7032 273.55743L362.06717 273.55743L362.06717 279.9214L355.7032 279.9214Z" fill-rule="nonzero"/><path fill="#34a853" clip-path="url(#id_0)" d="M503.33984 226.64757L509.7038 226.64757L509.7038 233.01154L503.33984 233.01154Z" fill-rule="nonzero"/><path fill="#34a853" clip-path="url(#id_0)" d="M278.475 285.16873L284.83896 285.16873L284.83896 291.5327L278.475 291.5327Z" fill-rule="nonzero"/><path fill="#34a853" clip-path="url(#id_0)" d="M547.84607 175.43117L554.21 175.43117L554.21 181.79512L547.84607 181.79512Z" fill-rule="nonzero"/><path fill="#34a853" clip-path="url(#id_0)" d="M575.16766 191.9199L581.5316 191.9199L581.5316 198.28387L575.16766 198.28387Z" fill-rule="nonzero"/><path fill="#34a853" clip-path="url(#id_0)" d="M481.92404 209.21927L488.288 209.21927L488.288 215.58322L481.92404 215.58322Z" fill-rule="nonzero"/><path fill="#34a853" clip-path="url(#id_0)" d="M472.83752 224.63351L479.2015 224.63351L479.2015 230.99748L472.83752 230.99748Z" fill-rule="nonzero"/><path fill="#34a853" clip-path="url(#id_0)" d="M667.87726 161.60974L674.2412 161.60974L674.2412 167.9737L667.87726 167.9737Z" fill-rule="nonzero"/><path fill="#34a853" clip-path="url(#id_0)" d="M599.3165 170.52364L605.6805 170.52364L605.6805 176.8876L599.3165 176.8876Z" fill-rule="nonzero"/><path fill="#34a853" clip-path="url(#id_0)" d="M492.23035 227.27328L498.5943 227.27328L498.5943 233.63725L492.23035 233.63725Z" fill-rule="nonzero"/><path fill="#34a853" clip-path="url(#id_0)" d="M428.70615 244.89746L435.0701 244.89746L435.0701 251.26143L428.70615 251.26143Z" fill-rule="nonzero"/><path fill="#34a853" clip-path="url(#id_0)" d="M445.6761 216.5411L452.04004 216.5411L452.04004 222.90506L445.6761 222.90506Z" fill-rule="nonzero"/><path fill="#34a853" clip-path="url(#id_0)" d="M535.94116 184.99057L542.3051 184.99057L542.3051 191.35452L535.94116 191.35452Z" fill-rule="nonzero"/><path fill="#34a853" clip-path="url(#id_0)" d="M555.4083 187.99765L561.7723 187.99765L561.7723 194.36162L555.4083 194.36162Z" fill-rule="nonzero"/><path fill="#34a853" clip-path="url(#id_0)" d="M519.485 211.64497L525.84894 211.64497L525.84894 218.00894L519.485 218.00894Z" fill-rule="nonzero"/><path fill="#34a853" clip-path="url(#id_0)" d="M645.6734 167.67468L652.03735 167.67468L652.03735 174.03865L645.6734 174.03865Z" fill-rule="nonzero"/><path fill="#34a853" clip-path="url(#id_0)" d="M581.77386 172.15517L588.1379 172.15517L588.1379 178.51912L581.77386 178.51912Z" fill-rule="nonzero"/><path fill="#34a853" clip-path="url(#id_0)" d="M673.7737 137.35135L680.13763 137.35135L680.13763 143.71532L673.7737 143.71532Z" fill-rule="nonzero"/><path fill="#34a853" clip-path="url(#id_0)" d="M209.24165 333.08072L215.60562 333.08072L215.60562 339.44467L209.24165 339.44467Z" fill-rule="nonzero"/><path fill="#34a853" clip-path="url(#id_0)" d="M307.2094 236.24986L313.5734 236.24986L313.5734 242.61383L307.2094 242.61383Z" fill-rule="nonzero"/><path fill="#34a853" clip-path="url(#id_0)" d="M318.9739 254.7958L325.33786 254.7958L325.33786 261.15976L318.9739 261.15976Z" fill-rule="nonzero"/><path fill="#34a853" clip-path="url(#id_0)" d="M260.26425 299.08902L266.6282 299.08902L266.6282 305.45297L260.26425 305.45297Z" fill-rule="nonzero"/><path fill="#34a853" clip-path="url(#id_0)" d="M864.8096 92.733215L871.1735 92.733215L871.1735 99.097176L864.8096 99.097176Z" fill-rule="nonzero"/><path fill="#34a853" clip-path="url(#id_0)" d="M543.2529 200.51196L549.6169 200.51196L549.6169 206.87592L543.2529 206.87592Z" fill-rule="nonzero"/><path fill="#34a853" clip-path="url(#id_0)" d="M741.40375 127.13183L747.7677 127.13183L747.7677 133.49579L741.40375 133.49579Z" fill-rule="nonzero"/><path fill="#34a853" clip-path="url(#id_0)" d="M439.22983 214.53609L445.59378 214.53609L445.59378 220.90004L439.22983 220.90004Z" fill-rule="nonzero"/><path fill="#34a853" clip-path="url(#id_0)" d="M355.7032 259.91287L362.06717 259.91287L362.06717 266.27682L355.7032 266.27682Z" fill-rule="nonzero"/><path fill="#34a853" clip-path="url(#id_0)" d="M640.9265 223.09604L647.29047 223.09604L647.29047 229.46L640.9265 229.46Z" fill-rule="nonzero"/><path fill="#34a853" clip-path="url(#id_0)" d="M673.13544 174.53296L679.4994 174.53296L679.4994 180.89691L673.13544 180.89691Z" fill-rule="nonzero"/><path fill="#34a853" clip-path="url(#id_0)" d="M503.33984 207.93591L509.7038 207.93591L509.7038 214.29988L503.33984 214.29988Z" fill-rule="nonzero"/><path fill="#34a853" clip-path="url(#id_0)" d="M484.0721 236.5174L490.4361 236.5174L490.4361 242.88136L484.0721 242.88136Z" fill-rule="nonzero"/><path fill="#34a853" clip-path="url(#id_0)" d="M782.8677 117.38186L789.2316 117.38186L789.2316 123.74582L782.8677 123.74582Z" fill-rule="nonzero"/><path fill="#34a853" clip-path="url(#id_0)" d="M540.87463 212.20581L547.23865 212.20581L547.23865 218.56976L540.87463 218.56976Z" fill-rule="nonzero"/><path fill="#34a853" clip-path="url(#id_0)" d="M398.73093 287.1616L405.09488 287.1616L405.09488 293.52554L398.73093 293.52554Z" fill-rule="nonzero"/><path fill="#34a853" clip-path="url(#id_0)" d="M454.6268 241.0769L460.99075 241.0769L460.99075 247.44086L454.6268 247.44086Z" fill-rule="nonzero"/><path fill="#34a853" clip-path="url(#id_0)" d="M651.8031 147.98178L658.16705 147.98178L658.16705 154.34575L651.8031 154.34575Z" fill-rule="nonzero"/><path fill="#34a853" clip-path="url(#id_0)" d="M728.6648 174.42867L735.02875 174.42867L735.02875 180.79263L728.6648 180.79263Z" fill-rule="nonzero"/><path fill="#34a853" clip-path="url(#id_0)" d="M748.1224 204.67365L754.4863 204.67365L754.4863 211.03761L748.1224 211.03761Z" fill-rule="nonzero"/><path fill="#34a853" clip-path="url(#id_0)" d="M587.2163 201.77744L593.58026 201.77744L593.58026 208.14139L587.2163 208.14139Z" fill-rule="nonzero"/><path fill="#34a853" clip-path="url(#id_0)" d="M566.24365 237.60683L572.6076 237.60683L572.6076 243.9708L566.24365 243.9708Z" fill-rule="nonzero"/><path fill="#34a853" clip-path="url(#id_0)" d="M630.697 191.34572L637.061 191.34572L637.061 197.70967L630.697 197.70967Z" fill-rule="nonzero"/><path fill="#34a853" clip-path="url(#id_0)" d="M644.401 158.13695L650.76495 158.13695L650.76495 164.50092L644.401 164.50092Z" fill-rule="nonzero"/><path fill="#34a853" clip-path="url(#id_0)" d="M627.2095 163.04697L633.5734 163.04697L633.5734 169.41092L627.2095 169.41092Z" fill-rule="nonzero"/><path fill="#34a853" clip-path="url(#id_0)" d="M637.3267 203.53334L643.6907 203.53334L643.6907 209.89731L637.3267 209.89731Z" fill-rule="nonzero"/><path fill="#34a853" clip-path="url(#id_0)" d="M602.6133 156.87167L608.97723 156.87167L608.97723 163.23563L602.6133 163.23563Z" fill-rule="nonzero"/><path fill="#34a853" clip-path="url(#id_0)" d="M363.1053 323.95148L369.46927 323.95148L369.46927 330.31546L363.1053 330.31546Z" fill-rule="nonzero"/><path fill="#34a853" clip-path="url(#id_0)" d="M594.51025 191.9199L600.8742 191.9199L600.8742 198.28387L594.51025 198.28387Z" fill-rule="nonzero"/><path fill="#34a853" clip-path="url(#id_0)" d="M168.74275 371.375L175.1067 371.375L175.1067 377.73895L168.74275 377.73895Z" fill-rule="nonzero"/><path fill="#34a853" clip-path="url(#id_0)" d="M599.3165 184.64798L605.6805 184.64798L605.6805 191.01195L599.3165 191.01195Z" fill-rule="nonzero"/><path fill="#34a853" clip-path="url(#id_0)" d="M614.8092 202.10052L621.17316 202.10052L621.17316 208.46448L614.8092 208.46448Z" fill-rule="nonzero"/><path fill="#34a853" clip-path="url(#id_0)" d="M610.108 211.92435L616.472 211.92435L616.472 218.28831L610.108 218.28831Z" fill-rule="nonzero"/><path fill="#34a853" clip-path="url(#id_0)" d="M454.6268 210.27821L460.99075 210.27821L460.99075 216.64218L454.6268 216.64218Z" fill-rule="nonzero"/><path fill="#34a853" clip-path="url(#id_0)" d="M517.983 244.56393L524.3469 244.56393L524.3469 250.9279L517.983 250.9279Z" fill-rule="nonzero"/><path fill="#34a853" clip-path="url(#id_0)" d="M561.4637 176.62611L567.82764 176.62611L567.82764 182.99008L561.4637 182.99008Z" fill-rule="nonzero"/><path fill="#34a853" clip-path="url(#id_0)" d="M428.70615 321.33975L435.0701 321.33975L435.0701 327.7037L428.70615 327.7037Z" fill-rule="nonzero"/><path fill="#34a853" clip-path="url(#id_0)" d="M408.25073 303.5477L414.61472 303.5477L414.61472 309.91168L408.25073 309.91168Z" fill-rule="nonzero"/><path fill="#34a853" clip-path="url(#id_0)" d="M523.8601 197.90714L530.22406 197.90714L530.22406 204.2711L523.8601 204.2711Z" fill-rule="nonzero"/><path fill="#34a853" clip-path="url(#id_0)" d="M558.4819 193.61015L564.8458 193.61015L564.8458 199.97412L558.4819 199.97412Z" fill-rule="nonzero"/><path fill="#34a853" clip-path="url(#id_0)" d="M428.70615 231.73198L435.0701 231.73198L435.0701 238.09595L428.70615 238.09595Z" fill-rule="nonzero"/><path fill="#34a853" clip-path="url(#id_0)" d="M561.4637 189.67361L567.82764 189.67361L567.82764 196.03757L561.4637 196.03757Z" fill-rule="nonzero"/><path fill="#34a853" clip-path="url(#id_0)" d="M347.7083 243.58063L354.0723 243.58063L354.0723 249.9446L347.7083 249.9446Z" fill-rule="nonzero"/><path fill="#34a853" clip-path="url(#id_0)" d="M724.7326 172.84796L731.09656 172.84796L731.09656 179.21191L724.7326 179.21191Z" fill-rule="nonzero"/><path fill="#34a853" clip-path="url(#id_0)" d="M307.2094 329.7869L313.5734 329.7869L313.5734 336.15085L307.2094 336.15085Z" fill-rule="nonzero"/><path fill="#34a853" clip-path="url(#id_0)" d="M376.44275 287.1616L382.80673 287.1616L382.80673 293.52554L376.44275 293.52554Z" fill-rule="nonzero"/><path fill="#34a853" clip-path="url(#id_0)" d="M520.9648 201.99252L527.32874 201.99252L527.32874 208.35648L520.9648 208.35648Z" fill-rule="nonzero"/><path fill="#34a853" clip-path="url(#id_0)" d="M388.20724 229.43703L394.5712 229.43703L394.5712 235.80098L388.20724 235.80098Z" fill-rule="nonzero"/><path fill="#34a853" clip-path="url(#id_0)" d="M470.4306 228.33969L476.7946 228.33969L476.7946 234.70366L470.4306 234.70366Z" fill-rule="nonzero"/><path fill="#34a853" clip-path="url(#id_0)" d="M545.57587 231.96931L551.9398 231.96931L551.9398 238.33328L545.57587 238.33328Z" fill-rule="nonzero"/><path fill="#34a853" clip-path="url(#id_0)" d="M545.57587 191.83734L551.9398 191.83734L551.9398 198.20131L545.57587 198.20131Z" fill-rule="nonzero"/><path fill="#34a853" clip-path="url(#id_0)" d="M168.74275 382.26523L175.1067 382.26523L175.1067 388.6292L168.74275 388.6292Z" fill-rule="nonzero"/><path fill="#34a853" clip-path="url(#id_0)" d="M647.34515 221.80014L653.7091 221.80014L653.7091 228.16411L647.34515 228.16411Z" fill-rule="nonzero"/><path fill="#34a853" clip-path="url(#id_0)" d="M503.33984 264.12332L509.7038 264.12332L509.7038 270.4873L503.33984 270.4873Z" fill-rule="nonzero"/><path fill="#34a853" clip-path="url(#id_0)" d="M209.24165 314.43796L215.60562 314.43796L215.60562 320.8019L209.24165 320.8019Z" fill-rule="nonzero"/><path fill="#34a853" clip-path="url(#id_0)" d="M457.44055 251.06935L463.80453 251.06935L463.80453 257.43332L457.44055 257.43332Z" fill-rule="nonzero"/><path fill="#34a853" clip-path="url(#id_0)" d="M514.9094 333.08072L521.2734 333.08072L521.2734 339.44467L514.9094 339.44467Z" fill-rule="nonzero"/><path fill="#34a853" clip-path="url(#id_0)" d="M470.4306 237.0582L476.7946 237.0582L476.7946 243.42215L470.4306 243.42215Z" fill-rule="nonzero"/><path fill="#34a853" clip-path="url(#id_0)" d="M339.0174 265.83136L345.38138 265.83136L345.38138 272.19534L339.0174 272.19534Z" fill-rule="nonzero"/><path fill="#34a853" clip-path="url(#id_0)" d="M445.6761 228.33969L452.04004 228.33969L452.04004 234.70366L445.6761 234.70366Z" fill-rule="nonzero"/><path fill="#34a853" clip-path="url(#id_0)" d="M369.9965 291.49258L376.36044 291.49258L376.36044 297.85657L369.9965 297.85657Z" fill-rule="nonzero"/><path fill="#34a853" clip-path="url(#id_0)" d="M622.0061 188.979L628.37006 188.979L628.37006 195.34296L622.0061 195.34296Z" fill-rule="nonzero"/><path fill="#34a853" clip-path="url(#id_0)" d="M539.66394 234.68323L546.0279 234.68323L546.0279 241.04718L539.66394 241.04718Z" fill-rule="nonzero"/><path fill="#34a853" clip-path="url(#id_0)" d="M618.1954 195.47008L624.5593 195.47008L624.5593 201.83405L618.1954 201.83405Z" fill-rule="nonzero"/><path fill="#34a853" clip-path="url(#id_0)" d="M421.01907 257.0364L427.38303 257.0364L427.38303 263.4004L421.01907 263.4004Z" fill-rule="nonzero"/><path fill="#34a853" clip-path="url(#id_0)" d="M479.72873 242.93901L486.09268 242.93901L486.09268 249.30296L479.72873 249.30296Z" fill-rule="nonzero"/><path fill="#34a853" clip-path="url(#id_0)" d="M537.1976 221.98257L543.5615 221.98257L543.5615 228.34654L537.1976 228.34654Z" fill-rule="nonzero"/><path fill="#34a853" clip-path="url(#id_0)" d="M630.2062 203.98535L636.5701 203.98535L636.5701 210.34932L630.2062 210.34932Z" fill-rule="nonzero"/><path fill="#34a853" clip-path="url(#id_0)" d="M369.9965 245.23396L376.36044 245.23396L376.36044 251.59792L369.9965 251.59792Z" fill-rule="nonzero"/><path fill="#34a853" clip-path="url(#id_0)" d="M408.25073 255.23344L414.61472 255.23344L414.61472 261.5974L408.25073 261.5974Z" fill-rule="nonzero"/><path fill="#34a853" clip-path="url(#id_0)" d="M751.39264 145.6716L757.7566 145.6716L757.7566 152.03557L751.39264 152.03557Z" fill-rule="nonzero"/><path fill="#34a853" clip-path="url(#id_0)" d="M318.9739 270.8031L325.33786 270.8031L325.33786 277.16708L318.9739 277.16708Z" fill-rule="nonzero"/><path fill="#34a853" clip-path="url(#id_0)" d="M237.97609 382.26523L244.34004 382.26523L244.34004 388.6292L237.97609 388.6292Z" fill-rule="nonzero"/><path fill="#34a853" clip-path="url(#id_0)" d="M369.9965 272.84982L376.36044 272.84982L376.36044 279.2138L369.9965 279.2138Z" fill-rule="nonzero"/><path fill="#34a853" clip-path="url(#id_0)" d="M475.18784 310.44952L481.5518 310.44952L481.5518 316.81348L475.18784 316.81348Z" fill-rule="nonzero"/><path fill="#34a853" clip-path="url(#id_0)" d="M339.0174 278.91962L345.38138 278.91962L345.38138 285.2836L339.0174 285.2836Z" fill-rule="nonzero"/><path fill="#34a853" clip-path="url(#id_0)" d="M293.87195 257.97116L300.23593 257.97116L300.23593 264.3351L293.87195 264.3351Z" fill-rule="nonzero"/><path fill="#34a853" clip-path="url(#id_0)" d="M537.1976 221.61859L543.5615 221.61859L543.5615 227.98254L537.1976 227.98254Z" fill-rule="nonzero"/><path fill="#34a853" clip-path="url(#id_0)" d="M600.6483 173.55367L607.01227 173.55367L607.01227 179.91763L600.6483 179.91763Z" fill-rule="nonzero"/><path fill="#34a853" clip-path="url(#id_0)" d="M355.7032 356.02606L362.06717 356.02606L362.06717 362.39L355.7032 362.39Z" fill-rule="nonzero"/><path fill="#34a853" clip-path="url(#id_0)" d="M393.6076 382.26523L399.97156 382.26523L399.97156 388.6292L393.6076 388.6292Z" fill-rule="nonzero"/><path fill="#34a853" clip-path="url(#id_0)" d="M278.475 305.1588L284.83896 305.1588L284.83896 311.52277L278.475 311.52277Z" fill-rule="nonzero"/><path fill="#34a853" clip-path="url(#id_0)" d="M572.5732 211.50606L578.93713 211.50606L578.93713 217.87003L572.5732 217.87003Z" fill-rule="nonzero"/><path fill="#34a853" clip-path="url(#id_0)" d="M608.8973 212.77507L615.2612 212.77507L615.2612 219.13902L608.8973 219.13902Z" fill-rule="nonzero"/><path fill="#34a853" clip-path="url(#id_0)" d="M580.16284 210.81902L586.5268 210.81902L586.5268 217.18297L580.16284 217.18297Z" fill-rule="nonzero"/><path fill="#34a853" clip-path="url(#id_0)" d="M506.78442 336.6887L513.1484 336.6887L513.1484 343.05264L506.78442 343.05264Z" fill-rule="nonzero"/><path fill="#34a853" clip-path="url(#id_0)" d="M582.56976 229.88503L588.9337 229.88503L588.9337 236.24898L582.56976 236.24898Z" fill-rule="nonzero"/><path fill="#34a853" clip-path="url(#id_0)" d="M318.9739 303.5477L325.33786 303.5477L325.33786 309.91168L318.9739 309.91168Z" fill-rule="nonzero"/><path fill="#34a853" clip-path="url(#id_0)" d="M448.74963 231.96931L455.11362 231.96931L455.11362 238.33328L448.74963 238.33328Z" fill-rule="nonzero"/><path fill="#34a853" clip-path="url(#id_0)" d="M439.22983 310.44952L445.59378 310.44952L445.59378 316.81348L439.22983 316.81348Z" fill-rule="nonzero"/><path fill="#34a853" clip-path="url(#id_0)" d="M369.9965 284.21033L376.36044 284.21033L376.36044 290.5743L369.9965 290.5743Z" fill-rule="nonzero"/><path fill="#34a853" clip-path="url(#id_0)" d="M421.01907 293.8593L427.38303 293.8593L427.38303 300.22327L421.01907 300.22327Z" fill-rule="nonzero"/><path fill="#34a853" clip-path="url(#id_0)" d="M562.4382 242.30807L568.8021 242.30807L568.8021 248.67203L562.4382 248.67203Z" fill-rule="nonzero"/><path fill="#34a853" clip-path="url(#id_0)" d="M99.509415 350.19067L105.873375 350.19067L105.873375 356.55463L99.509415 356.55463Z" fill-rule="nonzero"/><path fill="#34a853" clip-path="url(#id_0)" d="M168.74275 371.375L175.1067 371.375L175.1067 377.73895L168.74275 377.73895Z" fill-rule="nonzero"/><path fill="#34a853" clip-path="url(#id_0)" d="M260.26425 356.02606L266.6282 356.02606L266.6282 362.39L260.26425 362.39Z" fill-rule="nonzero"/><path fill="#34a853" clip-path="url(#id_0)" d="M293.87195 290.36252L300.23593 290.36252L300.23593 296.72647L293.87195 296.72647Z" fill-rule="nonzero"/><path fill="#34a853" clip-path="url(#id_0)" d="M307.2094 345.13583L313.5734 345.13583L313.5734 351.4998L307.2094 351.4998Z" fill-rule="nonzero"/><path fill="#34a853" clip-path="url(#id_0)" d="M421.01907 239.5922L427.38303 239.5922L427.38303 245.95616L421.01907 245.95616Z" fill-rule="nonzero"/><path fill="#34a853" clip-path="url(#id_0)" d="M570.8053 239.30211L577.16925 239.30211L577.16925 245.66608L570.8053 245.66608Z" fill-rule="nonzero"/><path fill="#34a853" clip-path="url(#id_0)" d="M547.84607 287.1616L554.21 287.1616L554.21 293.52554L547.84607 293.52554Z" fill-rule="nonzero"/><path fill="#34a853" clip-path="url(#id_0)" d="M503.33984 279.75165L509.7038 279.75165L509.7038 286.1156L503.33984 286.1156Z" fill-rule="nonzero"/><path fill="#34a853" clip-path="url(#id_0)" d="M602.6133 250.67706L608.97723 250.67706L608.97723 257.04102L602.6133 257.04102Z" fill-rule="nonzero"/><path fill="#34a853" clip-path="url(#id_0)" d="M470.4306 277.30853L476.7946 277.30853L476.7946 283.6725L470.4306 283.6725Z" fill-rule="nonzero"/><path fill="#34a853" clip-path="url(#id_0)" d="M663.0377 179.3721L669.4017 179.3721L669.4017 185.73607L663.0377 185.73607Z" fill-rule="nonzero"/><path fill="#34a853" clip-path="url(#id_0)" d="M451.73145 243.25845L458.0954 243.25845L458.0954 249.62242L451.73145 249.62242Z" fill-rule="nonzero"/><path fill="#34a853" clip-path="url(#id_0)" d="M580.16284 228.77483L586.5268 228.77483L586.5268 235.13878L580.16284 235.13878Z" fill-rule="nonzero"/><path fill="#34a853" clip-path="url(#id_0)" d="M595.2112 267.62015L601.57513 267.62015L601.57513 273.9841L595.2112 273.9841Z" fill-rule="nonzero"/><path fill="#34a853" clip-path="url(#id_0)" d="M640.9265 220.90092L647.29047 220.90092L647.29047 227.2649L640.9265 227.2649Z" fill-rule="nonzero"/><path fill="#34a853" clip-path="url(#id_0)" d="M669.88165 174.95299L676.2456 174.95299L676.2456 181.31696L669.88165 181.31696Z" fill-rule="nonzero"/><path fill="#34a853" clip-path="url(#id_0)" d="M747.21155 166.77077L753.57556 166.77077L753.57556 173.13474L747.21155 173.13474Z" fill-rule="nonzero"/><path fill="#34a853" clip-path="url(#id_0)" d="M607.6717 289.2652L614.03564 289.2652L614.03564 295.62915L607.6717 295.62915Z" fill-rule="nonzero"/><path fill="#34a853" clip-path="url(#id_0)" d="M363.1053 316.60168L369.46927 316.60168L369.46927 322.96564L363.1053 322.96564Z" fill-rule="nonzero"/><path fill="#34a853" clip-path="url(#id_0)" d="M547.84607 217.18002L554.21 217.18002L554.21 223.54399L547.84607 223.54399Z" fill-rule="nonzero"/><path fill="#34a853" clip-path="url(#id_0)" d="M307.2094 295.1006L313.5734 295.1006L313.5734 301.46454L307.2094 301.46454Z" fill-rule="nonzero"/><path fill="#34a853" clip-path="url(#id_0)" d="M555.4083 310.44952L561.7723 310.44952L561.7723 316.81348L555.4083 316.81348Z" fill-rule="nonzero"/><path fill="#ea4335" clip-path="url(#id_0)" d="M363.1053 313.98996L369.46927 313.98996L369.46927 320.3539L363.1053 320.3539Z" fill-rule="nonzero"/><path fill="#ea4335" clip-path="url(#id_0)" d="M412.6907 368.98337L419.05466 368.98337L419.05466 375.34732L412.6907 375.34732Z" fill-rule="nonzero"/><path fill="#ea4335" clip-path="url(#id_0)" d="M209.24165 334.24557L215.60562 334.24557L215.60562 340.60953L209.24165 340.60953Z" fill-rule="nonzero"/><path fill="#ea4335" clip-path="url(#id_0)" d="M237.97609 300.15543L244.34004 300.15543L244.34004 306.51938L237.97609 306.51938Z" fill-rule="nonzero"/><path fill="#ea4335" clip-path="url(#id_0)" d="M237.97609 359.3199L244.34004 359.3199L244.34004 365.68384L237.97609 365.68384Z" fill-rule="nonzero"/><path fill="#ea4335" clip-path="url(#id_0)" d="M99.509415 318.89664L105.873375 318.89664L105.873375 325.2606L99.509415 325.2606Z" fill-rule="nonzero"/><path fill="#ea4335" clip-path="url(#id_0)" d="M329.4976 368.6373L335.86154 368.6373L335.86154 375.00125L329.4976 375.00125Z" fill-rule="nonzero"/><path fill="#ea4335" clip-path="url(#id_0)" d="M416.94165 358.75064L423.30563 358.75064L423.30563 365.1146L416.94165 365.1146Z" fill-rule="nonzero"/><path fill="#ea4335" clip-path="url(#id_0)" d="M339.0174 313.86868L345.38138 313.86868L345.38138 320.23264L339.0174 320.23264Z" fill-rule="nonzero"/><path fill="#ea4335" clip-path="url(#id_0)" d="M398.73093 366.91632L405.09488 366.91632L405.09488 373.28027L398.73093 373.28027Z" fill-rule="nonzero"/><path fill="#ea4335" clip-path="url(#id_0)" d="M451.73145 343.50153L458.0954 343.50153L458.0954 349.86548L451.73145 349.86548Z" fill-rule="nonzero"/><path fill="#ea4335" clip-path="url(#id_0)" d="M293.87195 337.786L300.23593 337.786L300.23593 344.15L293.87195 344.15Z" fill-rule="nonzero"/><path fill="#ea4335" clip-path="url(#id_0)" d="M454.6268 375.36343L460.99075 375.36343L460.99075 381.7274L454.6268 381.7274Z" fill-rule="nonzero"/><path fill="#ea4335" clip-path="url(#id_0)" d="M516.458 402.5859L522.82196 402.5859L522.82196 408.9499L516.458 408.9499Z" fill-rule="nonzero"/><path fill="#ea4335" clip-path="url(#id_0)" d="M688.2576 403.0433L694.6216 403.0433L694.6216 409.4073L688.2576 409.4073Z" fill-rule="nonzero"/><path fill="#ea4335" clip-path="url(#id_0)" d="M569.00555 406.71213L575.3695 406.71213L575.3695 413.07608L569.00555 413.07608Z" fill-rule="nonzero"/><path fill="#ea4335" clip-path="url(#id_0)" d="M209.24165 308.60257L215.60562 308.60257L215.60562 314.96652L209.24165 314.96652Z" fill-rule="nonzero"/><path fill="#ea4335" clip-path="url(#id_0)" d="M611.897 400.16196L618.2609 400.16196L618.2609 406.52594L611.897 406.52594Z" fill-rule="nonzero"/><path fill="#ea4335" clip-path="url(#id_0)" d="M168.74275 309.51477L175.1067 309.51477L175.1067 315.87872L168.74275 315.87872Z" fill-rule="nonzero"/><path fill="#ea4335" clip-path="url(#id_0)" d="M442.50494 348.15314L448.8689 348.15314L448.8689 354.5171L442.50494 354.5171Z" fill-rule="nonzero"/><path fill="#ea4335" clip-path="url(#id_0)" d="M278.475 308.60257L284.83896 308.60257L284.83896 314.96652L278.475 314.96652Z" fill-rule="nonzero"/><path fill="#ea4335" clip-path="url(#id_0)" d="M492.23035 346.74692L498.5943 346.74692L498.5943 353.11087L492.23035 353.11087Z" fill-rule="nonzero"/><path fill="#ea4335" clip-path="url(#id_0)" d="M168.74275 340.67712L175.1067 340.67712L175.1067 347.04108L168.74275 347.04108Z" fill-rule="nonzero"/><path fill="#ea4335" clip-path="url(#id_0)" d="M393.6076 324.38086L399.97156 324.38086L399.97156 330.7448L393.6076 330.7448Z" fill-rule="nonzero"/><path fill="#ea4335" clip-path="url(#id_0)" d="M408.25073 357.48782L414.61472 357.48782L414.61472 363.8518L408.25073 363.8518Z" fill-rule="nonzero"/><path fill="#ea4335" clip-path="url(#id_0)" d="M477.48407 382.26523L483.84802 382.26523L483.84802 388.6292L477.48407 388.6292Z" fill-rule="nonzero"/><path fill="#ea4335" clip-path="url(#id_0)" d="M424.93652 399.09888L431.3005 399.09888L431.3005 405.46283L424.93652 405.46283Z" fill-rule="nonzero"/><path fill="#ea4335" clip-path="url(#id_0)" d="M539.66394 346.66672L546.0279 346.66672L546.0279 353.03067L539.66394 353.03067Z" fill-rule="nonzero"/><path fill="#ea4335" clip-path="url(#id_0)" d="M416.94165 444.25714L423.30563 444.25714L423.30563 450.6211L416.94165 450.6211Z" fill-rule="nonzero"/><path fill="#ea4335" clip-path="url(#id_0)" d="M477.48407 347.4644L483.84802 347.4644L483.84802 353.82837L477.48407 353.82837Z" fill-rule="nonzero"/><path fill="#ea4335" clip-path="url(#id_0)" d="M603.25977 370.11404L609.6237 370.11404L609.6237 376.478L603.25977 376.478Z" fill-rule="nonzero"/><path fill="#ea4335" clip-path="url(#id_0)" d="M168.74275 347.57895L175.1067 347.57895L175.1067 353.9429L168.74275 353.9429Z" fill-rule="nonzero"/><path fill="#ea4335" clip-path="url(#id_0)" d="M278.475 378.2768L284.83896 378.2768L284.83896 384.64078L278.475 384.64078Z" fill-rule="nonzero"/><path fill="#ea4335" clip-path="url(#id_0)" d="M318.9739 353.97934L325.33786 353.97934L325.33786 360.3433L318.9739 360.3433Z" fill-rule="nonzero"/><path fill="#ea4335" clip-path="url(#id_0)" d="M318.9739 344.61368L325.33786 344.61368L325.33786 350.97763L318.9739 350.97763Z" fill-rule="nonzero"/><path fill="#ea4335" clip-path="url(#id_0)" d="M318.9739 404.516L325.33786 404.516L325.33786 410.87994L318.9739 410.87994Z" fill-rule="nonzero"/><path fill="#ea4335" clip-path="url(#id_0)" d="M481.92404 351.50647L488.288 351.50647L488.288 357.87042L481.92404 357.87042Z" fill-rule="nonzero"/><path fill="#ea4335" clip-path="url(#id_0)" d="M168.74275 408.50443L175.1067 408.50443L175.1067 414.86838L168.74275 414.86838Z" fill-rule="nonzero"/><path fill="#ea4335" clip-path="url(#id_0)" d="M376.44275 360.19016L382.80673 360.19016L382.80673 366.55414L376.44275 366.55414Z" fill-rule="nonzero"/><path fill="#ea4335" clip-path="url(#id_0)" d="M339.0174 368.87814L345.38138 368.87814L345.38138 375.24213L339.0174 375.24213Z" fill-rule="nonzero"/><path fill="#ea4335" clip-path="url(#id_0)" d="M209.24165 324.8637L215.60562 324.8637L215.60562 331.22766L209.24165 331.22766Z" fill-rule="nonzero"/><path fill="#ea4335" clip-path="url(#id_0)" d="M388.20724 386.72394L394.5712 386.72394L394.5712 393.0879L388.20724 393.0879Z" fill-rule="nonzero"/><path fill="#ea4335" clip-path="url(#id_0)" d="M604.54034 384.32983L610.9043 384.32983L610.9043 390.6938L604.54034 390.6938Z" fill-rule="nonzero"/><path fill="#ea4335" clip-path="url(#id_0)" d="M260.26425 406.0613L266.6282 406.0613L266.6282 412.42526L260.26425 412.42526Z" fill-rule="nonzero"/><path fill="#ea4335" clip-path="url(#id_0)" d="M432.33862 416.50354L438.7026 416.50354L438.7026 422.86752L432.33862 422.86752Z" fill-rule="nonzero"/><path fill="#ea4335" clip-path="url(#id_0)" d="M460.17725 414.0003L466.5412 414.0003L466.5412 420.36426L460.17725 420.36426Z" fill-rule="nonzero"/><path fill="#ea4335" clip-path="url(#id_0)" d="M260.26425 327.34378L266.6282 327.34378L266.6282 333.70773L260.26425 333.70773Z" fill-rule="nonzero"/><path fill="#ea4335" clip-path="url(#id_0)" d="M393.6076 467.4882L399.97156 467.4882L399.97156 473.85214L393.6076 473.85214Z" fill-rule="nonzero"/><path fill="#ea4335" clip-path="url(#id_0)" d="M318.9739 352.03763L325.33786 352.03763L325.33786 358.40158L318.9739 358.40158Z" fill-rule="nonzero"/><path fill="#ea4335" clip-path="url(#id_0)" d="M388.20724 358.93942L394.5712 358.93942L394.5712 365.3034L388.20724 365.3034Z" fill-rule="nonzero"/><path fill="#ea4335" clip-path="url(#id_0)" d="M597.96674 366.60287L604.3307 366.60287L604.3307 372.96683L597.96674 372.96683Z" fill-rule="nonzero"/><path fill="#ea4335" clip-path="url(#id_0)" d="M168.74275 334.84174L175.1067 334.84174L175.1067 341.2057L168.74275 341.2057Z" fill-rule="nonzero"/><path fill="#ea4335" clip-path="url(#id_0)" d="M260.26425 423.85336L266.6282 423.85336L266.6282 430.21732L260.26425 430.21732Z" fill-rule="nonzero"/><path fill="#ea4335" clip-path="url(#id_0)" d="M237.97609 382.26523L244.34004 382.26523L244.34004 388.6292L237.97609 388.6292Z" fill-rule="nonzero"/><path fill="#ea4335" clip-path="url(#id_0)" d="M318.9739 363.7786L325.33786 363.7786L325.33786 370.14255L318.9739 370.14255Z" fill-rule="nonzero"/><path fill="#ea4335" clip-path="url(#id_0)" d="M168.74275 356.02606L175.1067 356.02606L175.1067 362.39L168.74275 362.39Z" fill-rule="nonzero"/><path fill="#ea4335" clip-path="url(#id_0)" d="M260.26425 377.52716L266.6282 377.52716L266.6282 383.89114L260.26425 383.89114Z" fill-rule="nonzero"/><path fill="#ea4335" clip-path="url(#id_0)" d="M293.87195 351.7682L300.23593 351.7682L300.23593 358.13214L293.87195 358.13214Z" fill-rule="nonzero"/><path fill="#ea4335" clip-path="url(#id_0)" d="M684.6149 433.25888L690.9789 433.25888L690.9789 439.62286L684.6149 439.62286Z" fill-rule="nonzero"/><path fill="#ea4335" clip-path="url(#id_0)" d="M168.74275 359.3199L175.1067 359.3199L175.1067 365.68384L168.74275 365.68384Z" fill-rule="nonzero"/><path fill="#ea4335" clip-path="url(#id_0)" d="M307.2094 343.97095L313.5734 343.97095L313.5734 350.33493L307.2094 350.33493Z" fill-rule="nonzero"/><path fill="#ea4335" clip-path="url(#id_0)" d="M237.97609 356.02606L244.34004 356.02606L244.34004 362.39L237.97609 362.39Z" fill-rule="nonzero"/><path fill="#ea4335" clip-path="url(#id_0)" d="M168.74275 340.67712L175.1067 340.67712L175.1067 347.04108L168.74275 347.04108Z" fill-rule="nonzero"/><path fill="#ea4335" clip-path="url(#id_0)" d="M278.475 430.75516L284.83896 430.75516L284.83896 437.1191L278.475 437.1191Z" fill-rule="nonzero"/><path fill="#ea4335" clip-path="url(#id_0)" d="M566.24365 352.69785L572.6076 352.69785L572.6076 359.06183L566.24365 359.06183Z" fill-rule="nonzero"/><path fill="#ea4335" clip-path="url(#id_0)" d="M307.2094 337.16486L313.5734 337.16486L313.5734 343.52884L307.2094 343.52884Z" fill-rule="nonzero"/><path fill="#ea4335" clip-path="url(#id_0)" d="M329.4976 349.12427L335.86154 349.12427L335.86154 355.48822L329.4976 355.48822Z" fill-rule="nonzero"/><path fill="#ea4335" clip-path="url(#id_0)" d="M442.50494 360.10507L448.8689 360.10507L448.8689 366.46902L442.50494 366.46902Z" fill-rule="nonzero"/><path fill="#ea4335" clip-path="url(#id_0)" d="M307.2094 332.23L313.5734 332.23L313.5734 338.59396L307.2094 338.59396Z" fill-rule="nonzero"/><path fill="#ea4335" clip-path="url(#id_0)" d="M571.6932 443.07922L578.0571 443.07922L578.0571 449.44318L571.6932 449.44318Z" fill-rule="nonzero"/><path fill="#ea4335" clip-path="url(#id_0)" d="M448.74963 402.5055L455.11362 402.5055L455.11362 408.86948L448.74963 408.86948Z" fill-rule="nonzero"/><path fill="#ea4335" clip-path="url(#id_0)" d="M492.23035 400.3055L498.5943 400.3055L498.5943 406.6695L492.23035 406.6695Z" fill-rule="nonzero"/><path fill="#ea4335" clip-path="url(#id_0)" d="M168.74275 450.09253L175.1067 450.09253L175.1067 456.45648L168.74275 456.45648Z" fill-rule="nonzero"/><path fill="#ea4335" clip-path="url(#id_0)" d="M237.97609 450.09253L244.34004 450.09253L244.34004 456.45648L237.97609 456.45648Z" fill-rule="nonzero"/><path fill="#ea4335" clip-path="url(#id_0)" d="M307.2094 441.64542L313.5734 441.64542L313.5734 448.00937L307.2094 448.00937Z" fill-rule="nonzero"/><path fill="#ea4335" clip-path="url(#id_0)" d="M355.7032 385.29526L362.06717 385.29526L362.06717 391.65924L355.7032 391.65924Z" fill-rule="nonzero"/><path fill="#ea4335" clip-path="url(#id_0)" d="M508.46317 378.088L514.8271 378.088L514.8271 384.45197L508.46317 384.45197Z" fill-rule="nonzero"/><path fill="#ea4335" clip-path="url(#id_0)" d="M209.24165 315.8666L215.60562 315.8666L215.60562 322.2306L209.24165 322.2306Z" fill-rule="nonzero"/><path fill="#ea4335" clip-path="url(#id_0)" d="M318.9739 409.93307L325.33786 409.93307L325.33786 416.29706L318.9739 416.29706Z" fill-rule="nonzero"/><path fill="#ea4335" clip-path="url(#id_0)" d="M318.9739 353.97934L325.33786 353.97934L325.33786 360.3433L318.9739 360.3433Z" fill-rule="nonzero"/><path fill="#ea4335" clip-path="url(#id_0)" d="M439.22983 435.5943L445.59378 435.5943L445.59378 441.95828L439.22983 441.95828Z" fill-rule="nonzero"/><path fill="#ea4335" clip-path="url(#id_0)" d="M237.97609 359.3199L244.34004 359.3199L244.34004 365.68384L237.97609 365.68384Z" fill-rule="nonzero"/><path fill="#ea4335" clip-path="url(#id_0)" d="M537.1976 336.45282L543.5615 336.45282L543.5615 342.8168L537.1976 342.8168Z" fill-rule="nonzero"/><path fill="#ea4335" clip-path="url(#id_0)" d="M293.87195 349.4259L300.23593 349.4259L300.23593 355.78986L293.87195 355.78986Z" fill-rule="nonzero"/><path fill="#ea4335" clip-path="url(#id_0)" d="M467.96423 403.2137L474.32822 403.2137L474.32822 409.57767L467.96423 409.57767Z" fill-rule="nonzero"/><path fill="#ea4335" clip-path="url(#id_0)" d="M168.74275 371.375L175.1067 371.375L175.1067 377.73895L168.74275 377.73895Z" fill-rule="nonzero"/><path fill="#ea4335" clip-path="url(#id_0)" d="M293.87195 308.86096L300.23593 308.86096L300.23593 315.2249L293.87195 315.2249Z" fill-rule="nonzero"/><path fill="#ea4335" clip-path="url(#id_0)" d="M237.97609 423.85336L244.34004 423.85336L244.34004 430.21732L237.97609 430.21732Z" fill-rule="nonzero"/><path fill="#ea4335" clip-path="url(#id_0)" d="M237.97609 450.09253L244.34004 450.09253L244.34004 456.45648L237.97609 456.45648Z" fill-rule="nonzero"/><path fill="#ea4335" clip-path="url(#id_0)" d="M451.73145 380.80908L458.0954 380.80908L458.0954 387.17307L451.73145 387.17307Z" fill-rule="nonzero"/><path fill="#ea4335" clip-path="url(#id_0)" d="M393.6076 372.89957L399.97156 372.89957L399.97156 379.26352L393.6076 379.26352Z" fill-rule="nonzero"/><path fill="#ea4335" clip-path="url(#id_0)" d="M260.26425 334.4829L266.6282 334.4829L266.6282 340.84686L260.26425 340.84686Z" fill-rule="nonzero"/><path fill="#ea4335" clip-path="url(#id_0)" d="M168.74275 397.61417L175.1067 397.61417L175.1067 403.97815L168.74275 403.97815Z" fill-rule="nonzero"/><path fill="#ea4335" clip-path="url(#id_0)" d="M99.509415 323.95148L105.873375 323.95148L105.873375 330.31546L99.509415 330.31546Z" fill-rule="nonzero"/><path fill="#ea4335" clip-path="url(#id_0)" d="M318.9739 366.4518L325.33786 366.4518L325.33786 372.8158L318.9739 372.8158Z" fill-rule="nonzero"/><path fill="#ea4335" clip-path="url(#id_0)" d="M168.74275 356.02606L175.1067 356.02606L175.1067 362.39L168.74275 362.39Z" fill-rule="nonzero"/><path fill="#ea4335" clip-path="url(#id_0)" d="M421.01907 358.6378L427.38303 358.6378L427.38303 365.00177L421.01907 365.00177Z" fill-rule="nonzero"/><path fill="#ea4335" clip-path="url(#id_0)" d="M99.509415 356.02606L105.873375 356.02606L105.873375 362.39L99.509415 362.39Z" fill-rule="nonzero"/><path fill="#ea4335" clip-path="url(#id_0)" d="M209.24165 439.2023L215.60562 439.2023L215.60562 445.56625L209.24165 445.56625Z" fill-rule="nonzero"/><path fill="#ea4335" clip-path="url(#id_0)" d="M318.9739 337.11166L325.33786 337.11166L325.33786 343.47562L318.9739 343.47562Z" fill-rule="nonzero"/><path fill="#ea4335" clip-path="url(#id_0)" d="M260.26425 366.0843L266.6282 366.0843L266.6282 372.44824L260.26425 372.44824Z" fill-rule="nonzero"/><path fill="#ea4335" clip-path="url(#id_0)" d="M237.97609 340.67712L244.34004 340.67712L244.34004 347.04108L237.97609 347.04108Z" fill-rule="nonzero"/><path fill="#ea4335" clip-path="url(#id_0)" d="M168.74275 340.67712L175.1067 340.67712L175.1067 347.04108L168.74275 347.04108Z" fill-rule="nonzero"/><path fill="#ea4335" clip-path="url(#id_0)" d="M237.97609 371.375L244.34004 371.375L244.34004 377.73895L237.97609 377.73895Z" fill-rule="nonzero"/><path fill="#ea4335" clip-path="url(#id_0)" d="M603.25977 469.83914L609.6237 469.83914L609.6237 476.20312L603.25977 476.20312Z" fill-rule="nonzero"/><path fill="#ea4335" clip-path="url(#id_0)" d="M544.42114 375.80618L550.7851 375.80618L550.7851 382.17017L544.42114 382.17017Z" fill-rule="nonzero"/><path fill="#ea4335" clip-path="url(#id_0)" d="M363.1053 436.59055L369.46927 436.59055L369.46927 442.95453L363.1053 442.95453Z" fill-rule="nonzero"/><path fill="#ea4335" clip-path="url(#id_0)" d="M237.97609 434.7436L244.34004 434.7436L244.34004 441.10757L237.97609 441.10757Z" fill-rule="nonzero"/><path fill="#ea4335" clip-path="url(#id_0)" d="M168.74275 423.85336L175.1067 423.85336L175.1067 430.21732L168.74275 430.21732Z" fill-rule="nonzero"/><path fill="#ea4335" clip-path="url(#id_0)" d="M445.6761 397.02725L452.04004 397.02725L452.04004 403.39124L445.6761 403.39124Z" fill-rule="nonzero"/><path fill="#ea4335" clip-path="url(#id_0)" d="M538.43835 396.01282L544.80237 396.01282L544.80237 402.37677L538.43835 402.37677Z" fill-rule="nonzero"/><path fill="#ea4335" clip-path="url(#id_0)" d="M398.73093 343.97095L405.09488 343.97095L405.09488 350.33493L398.73093 350.33493Z" fill-rule="nonzero"/><path fill="#ea4335" clip-path="url(#id_0)" d="M347.7083 423.85336L354.0723 423.85336L354.0723 430.21732L347.7083 430.21732Z" fill-rule="nonzero"/><path fill="#ea4335" clip-path="url(#id_0)" d="M403.6042 362.92786L409.96817 362.92786L409.96817 369.29184L403.6042 369.29184Z" fill-rule="nonzero"/><path fill="#ea4335" clip-path="url(#id_0)" d="M465.43542 343.12744L471.7994 343.12744L471.7994 349.4914L465.43542 349.4914Z" fill-rule="nonzero"/><path fill="#ea4335" clip-path="url(#id_0)" d="M416.94165 423.85336L423.30563 423.85336L423.30563 430.21732L416.94165 430.21732Z" fill-rule="nonzero"/><path fill="#ea4335" clip-path="url(#id_0)" d="M439.22983 405.28076L445.59378 405.28076L445.59378 411.6447L439.22983 411.6447Z" fill-rule="nonzero"/><path fill="#ea4335" clip-path="url(#id_0)" d="M168.74275 423.85336L175.1067 423.85336L175.1067 430.21732L168.74275 430.21732Z" fill-rule="nonzero"/><path fill="#ea4335" clip-path="url(#id_0)" d="M168.74275 371.375L175.1067 371.375L175.1067 377.73895L168.74275 377.73895Z" fill-rule="nonzero"/><path fill="#ea4335" clip-path="url(#id_0)" d="M467.96423 383.22366L474.32822 383.22366L474.32822 389.58762L467.96423 389.58762Z" fill-rule="nonzero"/><path fill="#ea4335" clip-path="url(#id_0)" d="M278.475 418.01797L284.83896 418.01797L284.83896 424.38193L278.475 424.38193Z" fill-rule="nonzero"/><path fill="#ea4335" clip-path="url(#id_0)" d="M499.77222 362.38123L506.1362 362.38123L506.1362 368.74518L499.77222 368.74518Z" fill-rule="nonzero"/><path fill="#ea4335" clip-path="url(#id_0)" d="M347.7083 345.53223L354.0723 345.53223L354.0723 351.89618L347.7083 351.89618Z" fill-rule="nonzero"/><path fill="#ea4335" clip-path="url(#id_0)" d="M237.97609 354.48074L244.34004 354.48074L244.34004 360.8447L237.97609 360.8447Z" fill-rule="nonzero"/><path fill="#ea4335" clip-path="url(#id_0)" d="M168.74275 298.3944L175.1067 298.3944L175.1067 304.75836L168.74275 304.75836Z" fill-rule="nonzero"/><path fill="#ea4335" clip-path="url(#id_0)" d="M278.475 303.02557L284.83896 303.02557L284.83896 309.38953L278.475 309.38953Z" fill-rule="nonzero"/><path fill="#ea4335" clip-path="url(#id_0)" d="M237.97609 402.66904L244.34004 402.66904L244.34004 409.033L237.97609 409.033Z" fill-rule="nonzero"/><path fill="#ea4335" clip-path="url(#id_0)" d="M99.509415 277.30853L105.873375 277.30853L105.873375 283.6725L99.509415 283.6725Z" fill-rule="nonzero"/><path fill="#ea4335" clip-path="url(#id_0)" d="M99.509415 371.375L105.873375 371.375L105.873375 377.73895L99.509415 377.73895Z" fill-rule="nonzero"/><path fill="#ea4335" clip-path="url(#id_0)" d="M445.6761 471.87302L452.04004 471.87302L452.04004 478.23697L445.6761 478.23697Z" fill-rule="nonzero"/><path fill="#ea4335" clip-path="url(#id_0)" d="M293.87195 344.4658L300.23593 344.4658L300.23593 350.82977L293.87195 350.82977Z" fill-rule="nonzero"/><path fill="#ea4335" clip-path="url(#id_0)" d="M523.8601 434.38477L530.22406 434.38477L530.22406 440.74875L523.8601 440.74875Z" fill-rule="nonzero"/><path fill="#ea4335" clip-path="url(#id_0)" d="M540.87463 422.50925L547.23865 422.50925L547.23865 428.8732L540.87463 428.8732Z" fill-rule="nonzero"/><path fill="#ea4335" clip-path="url(#id_0)" d="M376.44275 445.63385L382.80673 445.63385L382.80673 451.9978L376.44275 451.9978Z" fill-rule="nonzero"/><path fill="#ea4335" clip-path="url(#id_0)" d="M439.22983 426.4651L445.59378 426.4651L445.59378 432.82904L439.22983 432.82904Z" fill-rule="nonzero"/><path fill="#ea4335" clip-path="url(#id_0)" d="M278.475 306.27228L284.83896 306.27228L284.83896 312.63623L278.475 312.63623Z" fill-rule="nonzero"/><path fill="#ea4335" clip-path="url(#id_0)" d="M460.17725 401.37595L466.5412 401.37595L466.5412 407.7399L460.17725 407.7399Z" fill-rule="nonzero"/><path fill="#ea4335" clip-path="url(#id_0)" d="M369.9965 378.2768L376.36044 378.2768L376.36044 384.64078L369.9965 384.64078Z" fill-rule="nonzero"/><path fill="#ea4335" clip-path="url(#id_0)" d="M260.26425 484.77884L266.6282 484.77884L266.6282 491.1428L260.26425 491.1428Z" fill-rule="nonzero"/><path fill="#ea4335" clip-path="url(#id_0)" d="M329.4976 511.018L335.86154 511.018L335.86154 517.38196L329.4976 517.38196Z" fill-rule="nonzero"/><path fill="#ea4335" clip-path="url(#id_0)" d="M432.33862 422.52496L438.7026 422.52496L438.7026 428.88892L432.33862 428.88892Z" fill-rule="nonzero"/><path fill="#ea4335" clip-path="url(#id_0)" d="M339.0174 427.46133L345.38138 427.46133L345.38138 433.8253L339.0174 433.8253Z" fill-rule="nonzero"/><path fill="#ea4335" clip-path="url(#id_0)" d="M293.87195 388.10065L300.23593 388.10065L300.23593 394.4646L293.87195 394.4646Z" fill-rule="nonzero"/><path fill="#ea4335" clip-path="url(#id_0)" d="M428.70615 393.00003L435.0701 393.00003L435.0701 399.36398L428.70615 399.36398Z" fill-rule="nonzero"/><path fill="#ea4335" clip-path="url(#id_0)" d="M168.74275 389.16705L175.1067 389.16705L175.1067 395.531L168.74275 395.531Z" fill-rule="nonzero"/><path fill="#ea4335" clip-path="url(#id_0)" d="M99.509415 356.02606L105.873375 356.02606L105.873375 362.39L99.509415 362.39Z" fill-rule="nonzero"/><path fill="#ea4335" clip-path="url(#id_0)" d="M260.26425 344.20108L266.6282 344.20108L266.6282 350.56503L260.26425 350.56503Z" fill-rule="nonzero"/><path fill="#ea4335" clip-path="url(#id_0)" d="M168.74275 352.99603L175.1067 352.99603L175.1067 359.36L168.74275 359.36Z" fill-rule="nonzero"/><path fill="#ea4335" clip-path="url(#id_0)" d="M168.74275 423.85336L175.1067 423.85336L175.1067 430.21732L168.74275 430.21732Z" fill-rule="nonzero"/><path fill="#ea4335" clip-path="url(#id_0)" d="M376.44275 428.9082L382.80673 428.9082L382.80673 435.27216L376.44275 435.27216Z" fill-rule="nonzero"/><path fill="#ea4335" clip-path="url(#id_0)" d="M168.74275 389.16705L175.1067 389.16705L175.1067 395.531L168.74275 395.531Z" fill-rule="nonzero"/><path fill="#ea4335" clip-path="url(#id_0)" d="M168.74275 359.3199L175.1067 359.3199L175.1067 365.68384L168.74275 365.68384Z" fill-rule="nonzero"/><path fill="#ea4335" clip-path="url(#id_0)" d="M168.74275 397.61417L175.1067 397.61417L175.1067 403.97815L168.74275 403.97815Z" fill-rule="nonzero"/><path fill="#ea4335" clip-path="url(#id_0)" d="M460.17725 458.03152L466.5412 458.03152L466.5412 464.3955L460.17725 464.3955Z" fill-rule="nonzero"/><path fill="#ea4335" clip-path="url(#id_0)" d="M318.9739 399.77792L325.33786 399.77792L325.33786 406.14188L318.9739 406.14188Z" fill-rule="nonzero"/><path fill="#ea4335" clip-path="url(#id_0)" d="M398.73093 392.32346L405.09488 392.32346L405.09488 398.68744L398.73093 398.68744Z" fill-rule="nonzero"/><path fill="#ea4335" clip-path="url(#id_0)" d="M363.1053 471.27686L369.46927 471.27686L369.46927 477.64084L363.1053 477.64084Z" fill-rule="nonzero"/><path fill="#ea4335" clip-path="url(#id_0)" d="M347.7083 389.16705L354.0723 389.16705L354.0723 395.531L347.7083 395.531Z" fill-rule="nonzero"/><path fill="#ea4335" clip-path="url(#id_0)" d="M99.509415 362.92786L105.873375 362.92786L105.873375 369.29184L99.509415 369.29184Z" fill-rule="nonzero"/><path fill="#ea4335" clip-path="url(#id_0)" d="M168.74275 389.16705L175.1067 389.16705L175.1067 395.531L168.74275 395.531Z" fill-rule="nonzero"/><path fill="#ea4335" clip-path="url(#id_0)" d="M237.97609 415.40622L244.34004 415.40622L244.34004 421.7702L237.97609 421.7702Z" fill-rule="nonzero"/><path fill="#ea4335" clip-path="url(#id_0)" d="M99.509415 423.85336L105.873375 423.85336L105.873375 430.21732L99.509415 430.21732Z" fill-rule="nonzero"/><path fill="#ea4335" clip-path="url(#id_0)" d="M347.7083 430.75516L354.0723 430.75516L354.0723 437.1191L347.7083 437.1191Z" fill-rule="nonzero"/><path fill="#ea4335" clip-path="url(#id_0)" d="M465.43542 431.34207L471.7994 431.34207L471.7994 437.70602L465.43542 437.70602Z" fill-rule="nonzero"/><path fill="#ea4335" clip-path="url(#id_0)" d="M278.475 491.68063L284.83896 491.68063L284.83896 498.04462L278.475 498.04462Z" fill-rule="nonzero"/><path fill="#ea4335" clip-path="url(#id_0)" d="M654.5398 337.44153L660.90375 337.44153L660.90375 343.8055L654.5398 343.8055Z" fill-rule="nonzero"/><path fill="#ea4335" clip-path="url(#id_0)" d="M168.74275 371.375L175.1067 371.375L175.1067 377.73895L168.74275 377.73895Z" fill-rule="nonzero"/><path fill="#ea4335" clip-path="url(#id_0)" d="M260.26425 484.77884L266.6282 484.77884L266.6282 491.1428L260.26425 491.1428Z" fill-rule="nonzero"/><path fill="#ea4335" clip-path="url(#id_0)" d="M363.1053 369.3995L369.46927 369.3995L369.46927 375.76346L363.1053 375.76346Z" fill-rule="nonzero"/><path fill="#000000" d="M524.855 563.2L524.855 554.60626L525.9956 554.60626L525.9956 562.1844L530.23 562.1844L530.23 563.2L524.855 563.2ZM531.3862 560.09064Q531.3862 558.35626 532.33936 557.52814Q533.1362 556.84064 534.2925 556.84064Q535.5737 556.84064 536.3862 557.6844Q537.21436 558.5125 537.21436 559.9969Q537.21436 561.2 536.855 561.8875Q536.4956 562.575 535.7925 562.96564Q535.105 563.34064 534.2925 563.34064Q532.9956 563.34064 532.1831 562.5125Q531.3862 561.66876 531.3862 560.09064ZM532.46436 560.09064Q532.46436 561.27814 532.98 561.8719Q533.5112 562.46564 534.2925 562.46564Q535.08936 562.46564 535.605 561.8719Q536.1206 561.27814 536.1206 560.0594Q536.1206 558.90314 535.58936 558.3094Q535.0737 557.71564 534.2925 557.71564Q533.5112 557.71564 532.98 558.3094Q532.46436 558.8875 532.46436 560.09064ZM545.0425 560.1844L546.1675 560.48126Q545.8081 561.8719 544.8862 562.60626Q543.96436 563.34064 542.6206 563.34064Q541.23 563.34064 540.355 562.77814Q539.48 562.21564 539.02686 561.15314Q538.5737 560.075 538.5737 558.84064Q538.5737 557.4969 539.08936 556.4969Q539.605 555.4969 540.5425 554.98126Q541.4956 554.46564 542.6362 554.46564Q543.9175 554.46564 544.7925 555.1219Q545.6831 555.77814 546.02686 556.96564L544.90186 557.23126Q544.605 556.29376 544.02686 555.8719Q543.46436 555.4344 542.605 555.4344Q541.6206 555.4344 540.9487 555.91876Q540.2925 556.3875 540.0112 557.1844Q539.7456 557.98126 539.7456 558.84064Q539.7456 559.9344 540.0581 560.7469Q540.3862 561.5594 541.0581 561.96564Q541.73 562.3719 542.52686 562.3719Q543.48 562.3719 544.1362 561.825Q544.8081 561.27814 545.0425 560.1844ZM554.0425 560.1844L555.1675 560.48126Q554.8081 561.8719 553.8862 562.60626Q552.96436 563.34064 551.6206 563.34064Q550.23 563.34064 549.355 562.77814Q548.48 562.21564 548.02686 561.15314Q547.5737 560.075 547.5737 558.84064Q547.5737 557.4969 548.08936 556.4969Q548.605 555.4969 549.5425 554.98126Q550.4956 554.46564 551.6362 554.46564Q552.9175 554.46564 553.7925 555.1219Q554.6831 555.77814 555.02686 556.96564L553.90186 557.23126Q553.605 556.29376 553.02686 555.8719Q552.46436 555.4344 551.605 555.4344Q550.6206 555.4344 549.9487 555.91876Q549.2925 556.3875 549.0112 557.1844Q548.7456 557.98126 548.7456 558.84064Q548.7456 559.9344 549.0581 560.7469Q549.3862 561.5594 550.0581 561.96564Q550.73 562.3719 551.52686 562.3719Q552.48 562.3719 553.1362 561.825Q553.8081 561.27814 554.0425 560.1844Z" fill-rule="nonzero"/><path fill="#000000" d="M40.80001 309.24585L40.80001 316.2771L32.67501 312.60522L40.80001 309.24585ZM40.315636 310.63647L34.659386 312.9646L40.315636 315.54272L40.315636 310.63647ZM37.784386 302.37085L38.08126 301.24585Q39.471886 301.60522 40.20626 302.5271Q40.940636 303.44897 40.940636 304.79272Q40.940636 306.18335 40.378136 307.05835Q39.815636 307.93335 38.753136 308.38647Q37.67501 308.8396 36.440636 308.8396Q35.096886 308.8396 34.096886 308.32397Q33.096886 307.80835 32.58126 306.87085Q32.065636 305.91772 32.065636 304.7771Q32.065636 303.49585 32.721886 302.62085Q33.378136 301.73022 34.565636 301.38647L34.83126 302.51147Q33.89376 302.80835 33.471886 303.38647Q33.034386 303.94897 33.034386 304.80835Q33.034386 305.79272 33.51876 306.4646Q33.98751 307.12085 34.784386 307.4021Q35.58126 307.66772 36.440636 307.66772Q37.534386 307.66772 38.346886 307.35522Q39.159386 307.0271 39.565636 306.35522Q39.971886 305.68335 39.971886 304.88647Q39.971886 303.93335 39.42501 303.2771Q38.878136 302.60522 37.784386 302.37085ZM40.80001 299.51147L32.20626 299.51147L32.20626 296.54272Q32.20626 295.54272 32.33126 295.01147Q32.503136 294.2771 32.940636 293.76147Q33.51876 293.07397 34.42501 292.74585Q35.315636 292.4021 36.45626 292.4021Q37.440636 292.4021 38.190636 292.63647Q38.940636 292.85522 39.440636 293.2146Q39.940636 293.57397 40.221886 294.01147Q40.503136 294.43335 40.659386 295.0271Q40.80001 295.62085 40.80001 296.4021L40.80001 299.51147ZM39.784386 298.37085L39.784386 296.54272Q39.784386 295.68335 39.628136 295.19897Q39.471886 294.7146 39.17501 294.43335Q38.784386 294.0271 38.096886 293.80835Q37.409386 293.57397 36.440636 293.57397Q35.096886 293.57397 34.378136 294.0271Q33.64376 294.4646 33.39376 295.0896Q33.221886 295.55835 33.221886 296.55835L33.221886 298.37085L39.784386 298.37085Z" fill-rule="nonzero"/><path fill="#000000" d="M73.3 513.96564Q73.3 512.4344 73.6125 511.5125Q73.925 510.575 74.53438 510.075Q75.15938 509.575 76.09688 509.575Q76.78438 509.575 77.3 509.85626Q77.83125 510.1375 78.175 510.66876Q78.51875 511.1844 78.70625 511.9344Q78.89375 512.6844 78.89375 513.96564Q78.89375 515.48126 78.58125 516.40314Q78.28438 517.325 77.65938 517.84064Q77.05 518.34064 76.09688 518.34064Q74.8625 518.34064 74.14375 517.45Q73.3 516.3875 73.3 513.96564ZM74.37813 513.96564Q74.37813 516.075 74.87813 516.77814Q75.37813 517.48126 76.09688 517.48126Q76.83125 517.48126 77.31563 516.77814Q77.81563 516.075 77.81563 513.96564Q77.81563 511.84064 77.31563 511.15314Q76.83125 510.45 76.08125 510.45Q75.3625 510.45 74.925 511.0594Q74.37813 511.84064 74.37813 513.96564ZM80.8625 518.2L80.8625 516.9969L82.06563 516.9969L82.06563 518.2Q82.06563 518.85626 81.83125 519.2625Q81.59688 519.6844 81.09688 519.90314L80.8 519.45Q81.12813 519.3094 81.28438 519.0125Q81.44063 518.73126 81.47188 518.2L80.8625 518.2ZM87.26875 518.2L86.22188 518.2L86.22188 511.48126Q85.83125 511.84064 85.20625 512.21564Q84.59688 512.575 84.1125 512.7469L84.1125 511.73126Q84.9875 511.3094 85.64375 510.73126Q86.31563 510.1375 86.59688 509.575L87.26875 509.575L87.26875 518.2Z" fill-rule="nonzero"/><path fill="#000000" d="M87.26875 431.03534L86.22188 431.03534L86.22188 424.3166Q85.83125 424.67596 85.20625 425.05096Q84.59688 425.41034 84.1125 425.5822L84.1125 424.5666Q84.9875 424.1447 85.64375 423.5666Q86.31563 422.97284 86.59688 422.41034L87.26875 422.41034L87.26875 431.03534Z" fill-rule="nonzero"/><path fill="#000000" d="M80.26875 343.87067L79.22188 343.87067L79.22188 337.15192Q78.83125 337.5113 78.20625 337.8863Q77.59688 338.24567 77.1125 338.41754L77.1125 337.40192Q77.9875 336.98004 78.64375 336.40192Q79.31563 335.80817 79.59688 335.24567L80.26875 335.24567L80.26875 343.87067ZM83.3 339.6363Q83.3 338.10504 83.6125 337.18317Q83.925 336.24567 84.53438 335.74567Q85.15938 335.24567 86.09688 335.24567Q86.78438 335.24567 87.3 335.52692Q87.83125 335.80817 88.175 336.33942Q88.51875 336.85504 88.70625 337.60504Q88.89375 338.35504 88.89375 339.6363Q88.89375 341.15192 88.58125 342.0738Q88.28438 342.99567 87.65938 343.5113Q87.05 344.0113 86.09688 344.0113Q84.8625 344.0113 84.14375 343.12067Q83.3 342.05817 83.3 339.6363ZM84.37813 339.6363Q84.37813 341.74567 84.87813 342.4488Q85.37813 343.15192 86.09688 343.15192Q86.83125 343.15192 87.31563 342.4488Q87.81563 341.74567 87.81563 339.6363Q87.81563 337.5113 87.31563 336.8238Q86.83125 336.12067 86.08125 336.12067Q85.3625 336.12067 84.925 336.73004Q84.37813 337.5113 84.37813 339.6363Z" fill-rule="nonzero"/><path fill="#000000" d="M73.26875 256.70602L72.22188 256.70602L72.22188 249.98727Q71.83125 250.34665 71.20625 250.72165Q70.59688 251.08102 70.1125 251.2529L70.1125 250.23727Q70.9875 249.8154 71.64375 249.23727Q72.31563 248.64352 72.59688 248.08102L73.26875 248.08102L73.26875 256.70602ZM76.3 252.47165Q76.3 250.9404 76.6125 250.01852Q76.925 249.08102 77.53438 248.58102Q78.15938 248.08102 79.09688 248.08102Q79.78438 248.08102 80.3 248.36227Q80.83125 248.64352 81.175 249.17477Q81.51875 249.6904 81.70625 250.4404Q81.89375 251.1904 81.89375 252.47165Q81.89375 253.98727 81.58125 254.90915Q81.28438 255.83102 80.65938 256.34665Q80.05 256.84665 79.09688 256.84665Q77.8625 256.84665 77.14375 255.95602Q76.3 254.89352 76.3 252.47165ZM77.37813 252.47165Q77.37813 254.58102 77.87813 255.28415Q78.37813 255.98727 79.09688 255.98727Q79.83125 255.98727 80.31563 255.28415Q80.81563 254.58102 80.81563 252.47165Q80.81563 250.34665 80.31563 249.65915Q79.83125 248.95602 79.08125 248.95602Q78.3625 248.95602 77.925 249.5654Q77.37813 250.34665 77.37813 252.47165ZM83.3 252.47165Q83.3 250.9404 83.6125 250.01852Q83.925 249.08102 84.53438 248.58102Q85.15938 248.08102 86.09688 248.08102Q86.78438 248.08102 87.3 248.36227Q87.83125 248.64352 88.175 249.17477Q88.51875 249.6904 88.70625 250.4404Q88.89375 251.1904 88.89375 252.47165Q88.89375 253.98727 88.58125 254.90915Q88.28438 255.83102 87.65938 256.34665Q87.05 256.84665 86.09688 256.84665Q84.8625 256.84665 84.14375 255.95602Q83.3 254.89352 83.3 252.47165ZM84.37813 252.47165Q84.37813 254.58102 84.87813 255.28415Q85.37813 255.98727 86.09688 255.98727Q86.83125 255.98727 87.31563 255.28415Q87.81563 254.58102 87.81563 252.47165Q87.81563 250.34665 87.31563 249.65915Q86.83125 248.95602 86.08125 248.95602Q85.3625 248.95602 84.925 249.5654Q84.37813 250.34665 84.37813 252.47165Z" fill-rule="nonzero"/><path fill="#000000" d="M66.26875 169.54135L65.22188 169.54135L65.22188 162.8226Q64.83125 163.18198 64.20625 163.55698Q63.596874 163.91635 63.1125 164.08823L63.1125 163.0726Q63.9875 162.65073 64.64375 162.0726Q65.31563 161.47885 65.59688 160.91635L66.26875 160.91635L66.26875 169.54135ZM69.3 165.30698Q69.3 163.77573 69.6125 162.85385Q69.925 161.91635 70.53438 161.41635Q71.15938 160.91635 72.09688 160.91635Q72.78438 160.91635 73.3 161.1976Q73.83125 161.47885 74.175 162.0101Q74.51875 162.52573 74.70625 163.27573Q74.89375 164.02573 74.89375 165.30698Q74.89375 166.8226 74.58125 167.74448Q74.28438 168.66635 73.65938 169.18198Q73.05 169.68198 72.09688 169.68198Q70.8625 169.68198 70.14375 168.79135Q69.3 167.72885 69.3 165.30698ZM70.37813 165.30698Q70.37813 167.41635 70.87813 168.11948Q71.37813 168.8226 72.09688 168.8226Q72.83125 168.8226 73.31563 168.11948Q73.81563 167.41635 73.81563 165.30698Q73.81563 163.18198 73.31563 162.49448Q72.83125 161.79135 72.08125 161.79135Q71.3625 161.79135 70.925 162.40073Q70.37813 163.18198 70.37813 165.30698ZM76.3 165.30698Q76.3 163.77573 76.6125 162.85385Q76.925 161.91635 77.53438 161.41635Q78.15938 160.91635 79.09688 160.91635Q79.78438 160.91635 80.3 161.1976Q80.83125 161.47885 81.175 162.0101Q81.51875 162.52573 81.70625 163.27573Q81.89375 164.02573 81.89375 165.30698Q81.89375 166.8226 81.58125 167.74448Q81.28438 168.66635 80.65938 169.18198Q80.05 169.68198 79.09688 169.68198Q77.8625 169.68198 77.14375 168.79135Q76.3 167.72885 76.3 165.30698ZM77.37813 165.30698Q77.37813 167.41635 77.87813 168.11948Q78.37813 168.8226 79.09688 168.8226Q79.83125 168.8226 80.31563 168.11948Q80.81563 167.41635 80.81563 165.30698Q80.81563 163.18198 80.31563 162.49448Q79.83125 161.79135 79.08125 161.79135Q78.3625 161.79135 77.925 162.40073Q77.37813 163.18198 77.37813 165.30698ZM83.3 165.30698Q83.3 163.77573 83.6125 162.85385Q83.925 161.91635 84.53438 161.41635Q85.15938 160.91635 86.09688 160.91635Q86.78438 160.91635 87.3 161.1976Q87.83125 161.47885 88.175 162.0101Q88.51875 162.52573 88.70625 163.27573Q88.89375 164.02573 88.89375 165.30698Q88.89375 166.8226 88.58125 167.74448Q88.28438 168.66635 87.65938 169.18198Q87.05 169.68198 86.09688 169.68198Q84.8625 169.68198 84.14375 168.79135Q83.3 167.72885 83.3 165.30698ZM84.37813 165.30698Q84.37813 167.41635 84.87813 168.11948Q85.37813 168.8226 86.09688 168.8226Q86.83125 168.8226 87.31563 168.11948Q87.81563 167.41635 87.81563 165.30698Q87.81563 163.18198 87.31563 162.49448Q86.83125 161.79135 86.08125 161.79135Q85.3625 161.79135 84.925 162.40073Q84.37813 163.18198 84.37813 165.30698Z" fill-rule="nonzero"/><path fill="#000000" d="M103.66015 531.2L102.61327 531.2L102.61327 524.48126Q102.22265 524.84064 101.59765 525.21564Q100.98827 525.575 100.5039 525.7469L100.5039 524.73126Q101.3789 524.3094 102.03515 523.73126Q102.70702 523.1375 102.98827 522.575L103.66015 522.575L103.66015 531.2Z" fill-rule="nonzero"/><path fill="#000000" d="M330.14832 531.2L329.10144 531.2L329.10144 524.48126Q328.71082 524.84064 328.08582 525.21564Q327.47644 525.575 326.99207 525.7469L326.99207 524.73126Q327.86707 524.3094 328.52332 523.73126Q329.1952 523.1375 329.47644 522.575L330.14832 522.575L330.14832 531.2ZM333.17957 526.96564Q333.17957 525.4344 333.49207 524.5125Q333.80457 523.575 334.41394 523.075Q335.03894 522.575 335.97644 522.575Q336.66394 522.575 337.17957 522.85626Q337.71082 523.1375 338.05457 523.66876Q338.39832 524.1844 338.58582 524.9344Q338.77332 525.6844 338.77332 526.96564Q338.77332 528.48126 338.46082 529.40314Q338.16394 530.325 337.53894 530.84064Q336.92957 531.34064 335.97644 531.34064Q334.74207 531.34064 334.02332 530.45Q333.17957 529.3875 333.17957 526.96564ZM334.2577 526.96564Q334.2577 529.075 334.7577 529.77814Q335.2577 530.48126 335.97644 530.48126Q336.71082 530.48126 337.1952 529.77814Q337.6952 529.075 337.6952 526.96564Q337.6952 524.84064 337.1952 524.15314Q336.71082 523.45 335.96082 523.45Q335.24207 523.45 334.80457 524.0594Q334.2577 524.84064 334.2577 526.96564Z" fill-rule="nonzero"/><path fill="#000000" d="M556.6365 531.2L555.5896 531.2L555.5896 524.48126Q555.199 524.84064 554.574 525.21564Q553.9646 525.575 553.4802 525.7469L553.4802 524.73126Q554.3552 524.3094 555.0115 523.73126Q555.68335 523.1375 555.9646 522.575L556.6365 522.575L556.6365 531.2ZM559.6677 526.96564Q559.6677 525.4344 559.9802 524.5125Q560.2927 523.575 560.9021 523.075Q561.5271 522.575 562.4646 522.575Q563.1521 522.575 563.6677 522.85626Q564.199 523.1375 564.5427 523.66876Q564.8865 524.1844 565.074 524.9344Q565.2615 525.6844 565.2615 526.96564Q565.2615 528.48126 564.949 529.40314Q564.6521 530.325 564.0271 530.84064Q563.4177 531.34064 562.4646 531.34064Q561.2302 531.34064 560.5115 530.45Q559.6677 529.3875 559.6677 526.96564ZM560.74585 526.96564Q560.74585 529.075 561.24585 529.77814Q561.74585 530.48126 562.4646 530.48126Q563.199 530.48126 563.68335 529.77814Q564.18335 529.075 564.18335 526.96564Q564.18335 524.84064 563.68335 524.15314Q563.199 523.45 562.449 523.45Q561.7302 523.45 561.2927 524.0594Q560.74585 524.84064 560.74585 526.96564ZM566.6677 526.96564Q566.6677 525.4344 566.9802 524.5125Q567.2927 523.575 567.9021 523.075Q568.5271 522.575 569.4646 522.575Q570.1521 522.575 570.6677 522.85626Q571.199 523.1375 571.5427 523.66876Q571.8865 524.1844 572.074 524.9344Q572.2615 525.6844 572.2615 526.96564Q572.2615 528.48126 571.949 529.40314Q571.6521 530.325 571.0271 530.84064Q570.4177 531.34064 569.4646 531.34064Q568.2302 531.34064 567.5115 530.45Q566.6677 529.3875 566.6677 526.96564ZM567.74585 526.96564Q567.74585 529.075 568.24585 529.77814Q568.74585 530.48126 569.4646 530.48126Q570.199 530.48126 570.68335 529.77814Q571.18335 529.075 571.18335 526.96564Q571.18335 524.84064 570.68335 524.15314Q570.199 523.45 569.449 523.45Q568.7302 523.45 568.2927 524.0594Q567.74585 524.84064 567.74585 526.96564Z" fill-rule="nonzero"/><path fill="#000000" d="M783.12463 531.2L782.07776 531.2L782.07776 524.48126Q781.68713 524.84064 781.06213 525.21564Q780.45276 525.575 779.9684 525.7469L779.9684 524.73126Q780.8434 524.3094 781.49963 523.73126Q782.1715 523.1375 782.45276 522.575L783.12463 522.575L783.12463 531.2ZM786.1559 526.96564Q786.1559 525.4344 786.4684 524.5125Q786.7809 523.575 787.39026 523.075Q788.01526 522.575 788.95276 522.575Q789.64026 522.575 790.1559 522.85626Q790.68713 523.1375 791.0309 523.66876Q791.37463 524.1844 791.56213 524.9344Q791.74963 525.6844 791.74963 526.96564Q791.74963 528.48126 791.43713 529.40314Q791.14026 530.325 790.51526 530.84064Q789.9059 531.34064 788.95276 531.34064Q787.7184 531.34064 786.99963 530.45Q786.1559 529.3875 786.1559 526.96564ZM787.234 526.96564Q787.234 529.075 787.734 529.77814Q788.234 530.48126 788.95276 530.48126Q789.68713 530.48126 790.1715 529.77814Q790.6715 529.075 790.6715 526.96564Q790.6715 524.84064 790.1715 524.15314Q789.68713 523.45 788.93713 523.45Q788.2184 523.45 787.7809 524.0594Q787.234 524.84064 787.234 526.96564ZM793.1559 526.96564Q793.1559 525.4344 793.4684 524.5125Q793.7809 523.575 794.39026 523.075Q795.01526 522.575 795.95276 522.575Q796.64026 522.575 797.1559 522.85626Q797.68713 523.1375 798.0309 523.66876Q798.37463 524.1844 798.56213 524.9344Q798.74963 525.6844 798.74963 526.96564Q798.74963 528.48126 798.43713 529.40314Q798.14026 530.325 797.51526 530.84064Q796.9059 531.34064 795.95276 531.34064Q794.7184 531.34064 793.99963 530.45Q793.1559 529.3875 793.1559 526.96564ZM794.234 526.96564Q794.234 529.075 794.734 529.77814Q795.234 530.48126 795.95276 530.48126Q796.68713 530.48126 797.1715 529.77814Q797.6715 529.075 797.6715 526.96564Q797.6715 524.84064 797.1715 524.15314Q796.68713 523.45 795.93713 523.45Q795.2184 523.45 794.7809 524.0594Q794.234 524.84064 794.234 526.96564ZM800.1559 526.96564Q800.1559 525.4344 800.4684 524.5125Q800.7809 523.575 801.39026 523.075Q802.01526 522.575 802.95276 522.575Q803.64026 522.575 804.1559 522.85626Q804.68713 523.1375 805.0309 523.66876Q805.37463 524.1844 805.56213 524.9344Q805.74963 525.6844 805.74963 526.96564Q805.74963 528.48126 805.43713 529.40314Q805.14026 530.325 804.51526 530.84064Q803.9059 531.34064 802.95276 531.34064Q801.7184 531.34064 800.99963 530.45Q800.1559 529.3875 800.1559 526.96564ZM801.234 526.96564Q801.234 529.075 801.734 529.77814Q802.234 530.48126 802.95276 530.48126Q803.68713 530.48126 804.1715 529.77814Q804.6715 529.075 804.6715 526.96564Q804.6715 524.84064 804.1715 524.15314Q803.68713 523.45 802.93713 523.45Q802.2184 523.45 801.7809 524.0594Q801.234 524.84064 801.234 526.96564Z" fill-rule="nonzero"/><path fill="#34a853" d="M1018.7529 76.42403L1027.2382 76.42403L1027.2382 84.90931L1018.7529 84.90931Z" fill-rule="nonzero"/><path fill="#1a1a1a" d="M1037.98 84.666664L1037.98 76.072914L1043.7769 76.072914L1043.7769 77.08854L1039.1206 77.08854L1039.1206 79.74479L1043.1519 79.74479L1043.1519 80.760414L1039.1206 80.760414L1039.1206 84.666664L1037.98 84.666664ZM1049.0425 82.666664L1050.1362 82.791664Q1049.8862 83.74479 1049.1831 84.27604Q1048.48 84.80729 1047.4019 84.80729Q1046.0425 84.80729 1045.23 83.96354Q1044.4331 83.11979 1044.4331 81.604164Q1044.4331 80.041664 1045.2456 79.18229Q1046.0581 78.30729 1047.3394 78.30729Q1048.5894 78.30729 1049.3706 79.15104Q1050.1675 79.99479 1050.1675 81.541664Q1050.1675 81.635414 1050.1675 81.822914L1045.5269 81.822914Q1045.5894 82.854164 1046.105 83.40104Q1046.6206 83.93229 1047.4019 83.93229Q1047.98 83.93229 1048.3862 83.635414Q1048.8081 83.322914 1049.0425 82.666664ZM1045.5894 80.96354L1049.0581 80.96354Q1048.9956 80.166664 1048.6675 79.77604Q1048.1519 79.166664 1047.355 79.166664Q1046.6206 79.166664 1046.1206 79.65104Q1045.6362 80.135414 1045.5894 80.96354ZM1055.855 83.90104Q1055.2612 84.40104 1054.7144 84.604164Q1054.1831 84.80729 1053.5581 84.80729Q1052.5269 84.80729 1051.98 84.30729Q1051.4331 83.80729 1051.4331 83.02604Q1051.4331 82.572914 1051.6362 82.197914Q1051.8394 81.80729 1052.1831 81.58854Q1052.5269 81.354164 1052.9487 81.24479Q1053.2456 81.15104 1053.8862 81.072914Q1055.1519 80.93229 1055.7612 80.71354Q1055.7612 80.49479 1055.7612 80.447914Q1055.7612 79.791664 1055.4644 79.52604Q1055.0581 79.18229 1054.2612 79.18229Q1053.5269 79.18229 1053.1675 79.447914Q1052.8081 79.697914 1052.6362 80.354164L1051.605 80.21354Q1051.7456 79.55729 1052.0737 79.15104Q1052.4019 78.74479 1053.0112 78.52604Q1053.6206 78.30729 1054.4175 78.30729Q1055.2144 78.30729 1055.7144 78.49479Q1056.2144 78.68229 1056.4487 78.96354Q1056.6831 79.24479 1056.7769 79.68229Q1056.8237 79.947914 1056.8237 80.65104L1056.8237 82.05729Q1056.8237 83.52604 1056.8862 83.916664Q1056.9644 84.30729 1057.1675 84.666664L1056.0581 84.666664Q1055.9019 84.33854 1055.855 83.90104ZM1055.7612 81.541664Q1055.1831 81.77604 1054.0425 81.947914Q1053.3862 82.041664 1053.1206 82.166664Q1052.855 82.27604 1052.6987 82.49479Q1052.5581 82.71354 1052.5581 82.99479Q1052.5581 83.416664 1052.8706 83.697914Q1053.1987 83.979164 1053.8081 83.979164Q1054.4175 83.979164 1054.8862 83.71354Q1055.3706 83.447914 1055.5894 82.979164Q1055.7612 82.61979 1055.7612 81.93229L1055.7612 81.541664ZM1061.0894 83.729164L1061.2456 84.65104Q1060.7925 84.74479 1060.4487 84.74479Q1059.8706 84.74479 1059.5581 84.572914Q1059.2456 84.385414 1059.105 84.08854Q1058.98 83.791664 1058.98 82.83854L1058.98 79.260414L1058.2144 79.260414L1058.2144 78.447914L1058.98 78.447914L1058.98 76.90104L1060.0269 76.27604L1060.0269 78.447914L1061.0894 78.447914L1061.0894 79.260414L1060.0269 79.260414L1060.0269 82.90104Q1060.0269 83.354164 1060.0737 83.479164Q1060.1362 83.604164 1060.2612 83.68229Q1060.3862 83.760414 1060.6206 83.760414Q1060.8081 83.760414 1061.0894 83.729164Z" fill-rule="nonzero"/><path fill="#ea4335" d="M1018.7529 100.42403L1027.2382 100.42403L1027.2382 108.90931L1018.7529 108.90931Z" fill-rule="nonzero"/><path fill="#1a1a1a" d="M1037.98 108.666664L1037.98 100.072914L1043.7769 100.072914L1043.7769 101.08854L1039.1206 101.08854L1039.1206 103.74479L1043.1519 103.74479L1043.1519 104.760414L1039.1206 104.760414L1039.1206 108.666664L1037.98 108.666664ZM1044.7925 101.291664L1044.7925 100.072914L1045.855 100.072914L1045.855 101.291664L1044.7925 101.291664ZM1044.7925 108.666664L1044.7925 102.447914L1045.855 102.447914L1045.855 108.666664L1044.7925 108.666664ZM1047.0894 108.666664L1049.355 105.43229L1047.2612 102.447914L1048.5737 102.447914L1049.5269 103.90104Q1049.7925 104.322914 1049.9644 104.604164Q1050.2144 104.21354 1050.4331 103.916664L1051.48 102.447914L1052.7456 102.447914L1050.5894 105.36979L1052.9019 108.666664L1051.6206 108.666664L1050.3394 106.729164L1049.9956 106.21354L1048.355 108.666664L1047.0894 108.666664Z" fill-rule="nonzero"/><path fill="#757575" d="M41.76875 48.8L30.05 48.8L36.190624 35.253124L41.76875 48.8ZM39.471874 48.003124L35.565624 38.55L31.26875 48.003124L39.471874 48.003124ZM54.565624 43.784374L56.45625 44.253124Q55.8625 46.596874 54.315624 47.83125Q52.76875 49.05 50.51875 49.05Q48.20625 49.05 46.753124 48.1125Q45.315624 47.159374 44.55 45.378124Q43.8 43.58125 43.8 41.534374Q43.8 39.3 44.64375 37.64375Q45.503124 35.971874 47.08125 35.1125Q48.659374 34.2375 50.55 34.2375Q52.70625 34.2375 54.159374 35.33125Q55.628124 36.425 56.20625 38.409374L54.346874 38.846874Q53.846874 37.284374 52.89375 36.58125Q51.95625 35.8625 50.51875 35.8625Q48.8625 35.8625 47.753124 36.659374Q46.64375 37.440624 46.190624 38.784374Q45.753124 40.1125 45.753124 41.51875Q45.753124 43.346874 46.284374 44.721874Q46.815624 46.08125 47.940624 46.753124Q49.065624 47.425 50.3625 47.425Q51.95625 47.425 53.065624 46.503124Q54.175 45.58125 54.565624 43.784374ZM58.346874 48.8L58.346874 34.4875L63.26875 34.4875Q64.94063 34.4875 65.83125 34.690624Q67.05 34.971874 67.925 35.70625Q69.05 36.675 69.6125 38.159374Q70.175 39.64375 70.175 41.565624Q70.175 43.190624 69.8 44.45625Q69.425 45.70625 68.81563 46.534374Q68.22188 47.3625 67.51875 47.846874Q66.81563 48.315624 65.81563 48.565624Q64.81563 48.8 63.503124 48.8L58.346874 48.8ZM60.2375 47.1125L63.3 47.1125Q64.70625 47.1125 65.50313 46.846874Q66.31563 46.58125 66.8 46.096874Q67.47188 45.425 67.84688 44.3Q68.22188 43.159374 68.22188 41.534374Q68.22188 39.284374 67.4875 38.08125Q66.75313 36.878124 65.69063 36.471874Q64.94063 36.175 63.253124 36.175L60.2375 36.175L60.2375 47.1125ZM81.00313 48.8L77.05 38.425L78.90938 38.425L81.14375 44.64375Q81.50313 45.64375 81.8 46.721874Q82.03438 45.909374 82.45625 44.753124L84.75313 38.425L86.56563 38.425L82.64375 48.8L81.00313 48.8ZM86.40938 45.70625L88.15938 45.425Q88.3 46.471874 88.97188 47.034374Q89.64375 47.58125 90.84688 47.58125Q92.05 47.58125 92.62813 47.096874Q93.22188 46.596874 93.22188 45.940624Q93.22188 45.346874 92.70625 45.003124Q92.34688 44.76875 90.90938 44.409374Q88.97188 43.909374 88.22188 43.565624Q87.4875 43.20625 87.09688 42.58125Q86.70625 41.940624 86.70625 41.175Q86.70625 40.4875 87.01875 39.89375Q87.34688 39.3 87.89375 38.909374Q88.3 38.6125 89.00313 38.409374Q89.72188 38.190624 90.53438 38.190624Q91.75313 38.190624 92.675 38.55Q93.59688 38.89375 94.03438 39.503124Q94.47188 40.096874 94.64375 41.096874L92.925 41.33125Q92.8 40.534374 92.2375 40.096874Q91.675 39.64375 90.65938 39.64375Q89.44063 39.64375 88.925 40.05Q88.40938 40.440624 88.40938 40.971874Q88.40938 41.315624 88.62813 41.596874Q88.83125 41.878124 89.3 42.065624Q89.56563 42.159374 90.84688 42.503124Q92.72188 43.003124 93.45625 43.33125Q94.19063 43.64375 94.6125 44.253124Q95.03438 44.846874 95.03438 45.753124Q95.03438 46.628124 94.51875 47.409374Q94.00313 48.190624 93.03438 48.6125Q92.06563 49.034374 90.84688 49.034374Q88.83125 49.034374 87.76875 48.190624Q86.70625 47.346874 86.40938 45.70625ZM103.26875 48.8L103.26875 34.4875L105.15938 34.4875L105.15938 47.1125L112.20625 47.1125L112.20625 48.8L103.26875 48.8ZM113.47188 43.6125Q113.47188 40.7375 115.06563 39.346874Q116.40938 38.190624 118.33125 38.190624Q120.47188 38.190624 121.81563 39.596874Q123.175 41.003124 123.175 43.471874Q123.175 45.471874 122.58125 46.628124Q121.9875 47.76875 120.83125 48.409374Q119.69063 49.034374 118.33125 49.034374Q116.14375 49.034374 114.8 47.64375Q113.47188 46.2375 113.47188 43.6125ZM115.26875 43.6125Q115.26875 45.6125 116.12813 46.596874Q117.00313 47.58125 118.33125 47.58125Q119.64375 47.58125 120.50313 46.596874Q121.37813 45.596874 121.37813 43.55Q121.37813 41.628124 120.50313 40.64375Q119.62813 39.64375 118.33125 39.64375Q117.00313 39.64375 116.12813 40.64375Q115.26875 41.628124 115.26875 43.6125ZM135.56563 43.784374L137.45625 44.253124Q136.8625 46.596874 135.31563 47.83125Q133.76875 49.05 131.51875 49.05Q129.20625 49.05 127.75313 48.1125Q126.31563 47.159374 125.55 45.378124Q124.8 43.58125 124.8 41.534374Q124.8 39.3 125.64375 37.64375Q126.50313 35.971874 128.08125 35.1125Q129.65938 34.2375 131.55 34.2375Q133.70625 34.2375 135.15938 35.33125Q136.62813 36.425 137.20625 38.409374L135.34688 38.846874Q134.84688 37.284374 133.89375 36.58125Q132.95625 35.8625 131.51875 35.8625Q129.8625 35.8625 128.75313 36.659374Q127.64375 37.440624 127.19063 38.784374Q126.75313 40.1125 126.75313 41.51875Q126.75313 43.346874 127.28438 44.721874Q127.81563 46.08125 128.94063 46.753124Q130.06563 47.425 131.3625 47.425Q132.95625 47.425 134.06563 46.503124Q135.175 45.58125 135.56563 43.784374ZM149.56563 43.784374L151.45625 44.253124Q150.8625 46.596874 149.31563 47.83125Q147.76875 49.05 145.51875 49.05Q143.20625 49.05 141.75313 48.1125Q140.31563 47.159374 139.55 45.378124Q138.8 43.58125 138.8 41.534374Q138.8 39.3 139.64375 37.64375Q140.50313 35.971874 142.08125 35.1125Q143.65938 34.2375 145.55 34.2375Q147.70625 34.2375 149.15938 35.33125Q150.62813 36.425 151.20625 38.409374L149.34688 38.846874Q148.84688 37.284374 147.89375 36.58125Q146.95625 35.8625 145.51875 35.8625Q143.8625 35.8625 142.75313 36.659374Q141.64375 37.440624 141.19063 38.784374Q140.75313 40.1125 140.75313 41.51875Q140.75313 43.346874 141.28438 44.721874Q141.81563 46.08125 142.94063 46.753124Q144.06563 47.425 145.3625 47.425Q146.95625 47.425 148.06563 46.503124Q149.175 45.58125 149.56563 43.784374ZM159.53438 48.8L159.53438 39.8L157.9875 39.8L157.9875 38.425L159.53438 38.425L159.53438 37.33125Q159.53438 36.284374 159.72188 35.76875Q159.97188 35.08125 160.6125 34.659374Q161.25313 34.2375 162.40938 34.2375Q163.15938 34.2375 164.05 34.409374L163.78438 35.940624Q163.2375 35.846874 162.75313 35.846874Q161.95625 35.846874 161.6125 36.190624Q161.28438 36.534374 161.28438 37.471874L161.28438 38.425L163.31563 38.425L163.31563 39.8L161.28438 39.8L161.28438 48.8L159.53438 48.8ZM164.47188 43.6125Q164.47188 40.7375 166.06563 39.346874Q167.40938 38.190624 169.33125 38.190624Q171.47188 38.190624 172.81563 39.596874Q174.175 41.003124 174.175 43.471874Q174.175 45.471874 173.58125 46.628124Q172.9875 47.76875 171.83125 48.409374Q170.69063 49.034374 169.33125 49.034374Q167.14375 49.034374 165.8 47.64375Q164.47188 46.2375 164.47188 43.6125ZM166.26875 43.6125Q166.26875 45.6125 167.12813 46.596874Q168.00313 47.58125 169.33125 47.58125Q170.64375 47.58125 171.50313 46.596874Q172.37813 45.596874 172.37813 43.55Q172.37813 41.628124 171.50313 40.64375Q170.62813 39.64375 169.33125 39.64375Q168.00313 39.64375 167.12813 40.64375Q166.26875 41.628124 166.26875 43.6125ZM176.09688 48.8L176.09688 38.425L177.675 38.425L177.675 40.003124Q178.28438 38.89375 178.8 38.55Q179.31563 38.190624 179.925 38.190624Q180.81563 38.190624 181.7375 38.753124L181.12813 40.39375Q180.4875 40.003124 179.84688 40.003124Q179.26875 40.003124 178.8 40.3625Q178.34688 40.70625 178.14375 41.315624Q177.8625 42.253124 177.8625 43.3625L177.8625 48.8L176.09688 48.8ZM195.89375 45.003124L197.6125 45.221874Q197.33125 47.01875 196.15938 48.034374Q195.00313 49.034374 193.3 49.034374Q191.175 49.034374 189.87813 47.64375Q188.58125 46.253124 188.58125 43.659374Q188.58125 41.971874 189.12813 40.721874Q189.69063 39.45625 190.83125 38.83125Q191.97188 38.190624 193.31563 38.190624Q195.00313 38.190624 196.06563 39.05Q197.14375 39.909374 197.45625 41.471874L195.7375 41.7375Q195.50313 40.690624 194.87813 40.175Q194.25313 39.64375 193.37813 39.64375Q192.05 39.64375 191.22188 40.596874Q190.39375 41.55 190.39375 43.596874Q190.39375 45.690624 191.19063 46.64375Q191.9875 47.58125 193.28438 47.58125Q194.31563 47.58125 195.00313 46.95625Q195.70625 46.315624 195.89375 45.003124ZM198.47188 43.6125Q198.47188 40.7375 200.06563 39.346874Q201.40938 38.190624 203.33125 38.190624Q205.47188 38.190624 206.81563 39.596874Q208.175 41.003124 208.175 43.471874Q208.175 45.471874 207.58125 46.628124Q206.9875 47.76875 205.83125 48.409374Q204.69063 49.034374 203.33125 49.034374Q201.14375 49.034374 199.8 47.64375Q198.47188 46.2375 198.47188 43.6125ZM200.26875 43.6125Q200.26875 45.6125 201.12813 46.596874Q202.00313 47.58125 203.33125 47.58125Q204.64375 47.58125 205.50313 46.596874Q206.37813 45.596874 206.37813 43.55Q206.37813 41.628124 205.50313 40.64375Q204.62813 39.64375 203.33125 39.64375Q202.00313 39.64375 201.12813 40.64375Q200.26875 41.628124 200.26875 43.6125ZM210.1125 48.8L210.1125 38.425L211.69063 38.425L211.69063 39.878124Q212.175 39.128124 212.9875 38.659374Q213.8 38.190624 214.83125 38.190624Q215.9875 38.190624 216.72188 38.675Q217.45625 39.14375 217.76875 40.003124Q219.00313 38.190624 220.97188 38.190624Q222.51875 38.190624 223.34688 39.05Q224.175 39.909374 224.175 41.675L224.175 48.8L222.425 48.8L222.425 42.26875Q222.425 41.20625 222.25313 40.753124Q222.08125 40.284374 221.62813 40.003124Q221.19063 39.721874 220.58125 39.721874Q219.4875 39.721874 218.75313 40.45625Q218.03438 41.175 218.03438 42.76875L218.03438 48.8L216.28438 48.8L216.28438 42.065624Q216.28438 40.89375 215.84688 40.315624Q215.425 39.721874 214.44063 39.721874Q213.70625 39.721874 213.06563 40.1125Q212.44063 40.503124 212.15938 41.253124Q211.87813 42.003124 211.87813 43.425L211.87813 48.8L210.1125 48.8ZM226.1125 48.8L226.1125 38.425L227.69063 38.425L227.69063 39.878124Q228.175 39.128124 228.9875 38.659374Q229.8 38.190624 230.83125 38.190624Q231.9875 38.190624 232.72188 38.675Q233.45625 39.14375 233.76875 40.003124Q235.00313 38.190624 236.97188 38.190624Q238.51875 38.190624 239.34688 39.05Q240.175 39.909374 240.175 41.675L240.175 48.8L238.425 48.8L238.425 42.26875Q238.425 41.20625 238.25313 40.753124Q238.08125 40.284374 237.62813 40.003124Q237.19063 39.721874 236.58125 39.721874Q235.4875 39.721874 234.75313 40.45625Q234.03438 41.175 234.03438 42.76875L234.03438 48.8L232.28438 48.8L232.28438 42.065624Q232.28438 40.89375 231.84688 40.315624Q231.425 39.721874 230.44063 39.721874Q229.70625 39.721874 229.06563 40.1125Q228.44063 40.503124 228.15938 41.253124Q227.87813 42.003124 227.87813 43.425L227.87813 48.8L226.1125 48.8ZM242.12813 36.503124L242.12813 34.4875L243.89375 34.4875L243.89375 36.503124L242.12813 36.503124ZM242.12813 48.8L242.12813 38.425L243.89375 38.425L243.89375 48.8L242.12813 48.8ZM249.95625 47.221874L250.20625 48.784374Q249.47188 48.940624 248.87813 48.940624Q247.925 48.940624 247.39375 48.64375Q246.87813 48.33125 246.65938 47.846874Q246.44063 47.346874 246.44063 45.76875L246.44063 39.8L245.15938 39.8L245.15938 38.425L246.44063 38.425L246.44063 35.8625L248.19063 34.8L248.19063 38.425L249.95625 38.425L249.95625 39.8L248.19063 39.8L248.19063 45.8625Q248.19063 46.6125 248.28438 46.83125Q248.37813 47.034374 248.58125 47.175Q248.8 47.3 249.19063 47.3Q249.47188 47.3 249.95625 47.221874ZM252.12813 36.503124L252.12813 34.4875L253.89375 34.4875L253.89375 36.503124L252.12813 36.503124ZM252.12813 48.8L252.12813 38.425L253.89375 38.425L253.89375 48.8L252.12813 48.8ZM255.19063 48.8L255.19063 47.378124L261.8 39.8Q260.675 39.846874 259.8156 39.846874L255.58125 39.846874L255.58125 38.425L264.0656 38.425L264.0656 39.596874L258.4406 46.175L257.3625 47.378124Q258.53436 47.284374 259.58124 47.284374L264.3781 47.284374L264.3781 48.8L255.19063 48.8ZM272.22186 45.45625L274.03436 45.690624Q273.6125 47.26875 272.4406 48.159374Q271.28436 49.034374 269.47186 49.034374Q267.20624 49.034374 265.8625 47.64375Q264.53436 46.2375 264.53436 43.70625Q264.53436 41.08125 265.8781 39.64375Q267.22186 38.190624 269.3781 38.190624Q271.45624 38.190624 272.76874 39.6125Q274.09686 41.01875 274.09686 43.596874Q274.09686 43.753124 274.08124 44.065624L266.34686 44.065624Q266.4406 45.76875 267.3156 46.675Q268.1906 47.58125 269.4875 47.58125Q270.45624 47.58125 271.1281 47.08125Q271.8156 46.565624 272.22186 45.45625ZM266.4406 42.6125L272.2375 42.6125Q272.1281 41.315624 271.58124 40.659374Q270.7375 39.64375 269.39374 39.64375Q268.1906 39.64375 267.3625 40.45625Q266.53436 41.253124 266.4406 42.6125ZM276.1125 48.8L276.1125 38.425L277.70624 38.425L277.70624 39.909374Q278.84686 38.190624 281.0031 38.190624Q281.9406 38.190624 282.72186 38.534374Q283.51874 38.8625 283.90936 39.409374Q284.3 39.95625 284.45624 40.70625Q284.55 41.20625 284.55 42.425L284.55 48.8L282.78436 48.8L282.78436 42.4875Q282.78436 41.409374 282.58124 40.878124Q282.3781 40.346874 281.84686 40.034374Q281.33124 39.721874 280.6281 39.721874Q279.5031 39.721874 278.6906 40.440624Q277.8781 41.14375 277.8781 43.128124L277.8781 48.8L276.1125 48.8ZM285.4406 44.503124L285.4406 42.7375L290.83124 42.7375L290.83124 44.503124L285.4406 44.503124ZM296.95624 47.221874L297.20624 48.784374Q296.47186 48.940624 295.8781 48.940624Q294.925 48.940624 294.39374 48.64375Q293.8781 48.33125 293.65936 47.846874Q293.4406 47.346874 293.4406 45.76875L293.4406 39.8L292.15936 39.8L292.15936 38.425L293.4406 38.425L293.4406 35.8625L295.1906 34.8L295.1906 38.425L296.95624 38.425L296.95624 39.8L295.1906 39.8L295.1906 45.8625Q295.1906 46.6125 295.28436 46.83125Q295.3781 47.034374 295.58124 47.175Q295.8 47.3 296.1906 47.3Q296.47186 47.3 296.95624 47.221874ZM298.47186 43.6125Q298.47186 40.7375 300.0656 39.346874Q301.40936 38.190624 303.33124 38.190624Q305.47186 38.190624 306.8156 39.596874Q308.175 41.003124 308.175 43.471874Q308.175 45.471874 307.58124 46.628124Q306.9875 47.76875 305.83124 48.409374Q304.6906 49.034374 303.33124 49.034374Q301.14374 49.034374 299.8 47.64375Q298.47186 46.2375 298.47186 43.6125ZM300.26874 43.6125Q300.26874 45.6125 301.1281 46.596874Q302.0031 47.58125 303.33124 47.58125Q304.64374 47.58125 305.5031 46.596874Q306.3781 45.596874 306.3781 43.55Q306.3781 41.628124 305.5031 40.64375Q304.6281 39.64375 303.33124 39.64375Q302.0031 39.64375 301.1281 40.64375Q300.26874 41.628124 300.26874 43.6125ZM309.47186 43.6125Q309.47186 40.7375 311.0656 39.346874Q312.40936 38.190624 314.33124 38.190624Q316.47186 38.190624 317.8156 39.596874Q319.175 41.003124 319.175 43.471874Q319.175 45.471874 318.58124 46.628124Q317.9875 47.76875 316.83124 48.409374Q315.6906 49.034374 314.33124 49.034374Q312.14374 49.034374 310.8 47.64375Q309.47186 46.2375 309.47186 43.6125ZM311.26874 43.6125Q311.26874 45.6125 312.1281 46.596874Q313.0031 47.58125 314.33124 47.58125Q315.64374 47.58125 316.5031 46.596874Q317.3781 45.596874 317.3781 43.55Q317.3781 41.628124 316.5031 40.64375Q315.6281 39.64375 314.33124 39.64375Q313.0031 39.64375 312.1281 40.64375Q311.26874 41.628124 311.26874 43.6125ZM321.08124 48.8L321.08124 34.4875L322.83124 34.4875L322.83124 48.8L321.08124 48.8ZM324.40936 45.70625L326.15936 45.425Q326.3 46.471874 326.97186 47.034374Q327.64374 47.58125 328.84686 47.58125Q330.05 47.58125 330.6281 47.096874Q331.22186 46.596874 331.22186 45.940624Q331.22186 45.346874 330.70624 45.003124Q330.34686 44.76875 328.90936 44.409374Q326.97186 43.909374 326.22186 43.565624Q325.4875 43.20625 325.09686 42.58125Q324.70624 41.940624 324.70624 41.175Q324.70624 40.4875 325.01874 39.89375Q325.34686 39.3 325.89374 38.909374Q326.3 38.6125 327.0031 38.409374Q327.72186 38.190624 328.53436 38.190624Q329.7531 38.190624 330.675 38.55Q331.59686 38.89375 332.03436 39.503124Q332.47186 40.096874 332.64374 41.096874L330.925 41.33125Q330.8 40.534374 330.2375 40.096874Q329.675 39.64375 328.65936 39.64375Q327.4406 39.64375 326.925 40.05Q326.40936 40.440624 326.40936 40.971874Q326.40936 41.315624 326.6281 41.596874Q326.83124 41.878124 327.3 42.065624Q327.5656 42.159374 328.84686 42.503124Q330.72186 43.003124 331.45624 43.33125Q332.1906 43.64375 332.6125 44.253124Q333.03436 44.846874 333.03436 45.753124Q333.03436 46.628124 332.51874 47.409374Q332.0031 48.190624 331.03436 48.6125Q330.0656 49.034374 328.84686 49.034374Q326.83124 49.034374 325.76874 48.190624Q324.70624 47.346874 324.40936 45.70625ZM333.8 49.05L337.95624 34.2375L339.3625 34.2375L335.22186 49.05L333.8 49.05ZM347.89374 45.003124L349.6125 45.221874Q349.33124 47.01875 348.15936 48.034374Q347.0031 49.034374 345.3 49.034374Q343.175 49.034374 341.8781 47.64375Q340.58124 46.253124 340.58124 43.659374Q340.58124 41.971874 341.1281 40.721874Q341.6906 39.45625 342.83124 38.83125Q343.97186 38.190624 345.3156 38.190624Q347.0031 38.190624 348.0656 39.05Q349.14374 39.909374 349.45624 41.471874L347.7375 41.7375Q347.5031 40.690624 346.8781 40.175Q346.2531 39.64375 345.3781 39.64375Q344.05 39.64375 343.22186 40.596874Q342.39374 41.55 342.39374 43.596874Q342.39374 45.690624 343.1906 46.64375Q343.9875 47.58125 345.28436 47.58125Q346.3156 47.58125 347.0031 46.95625Q347.70624 46.315624 347.89374 45.003124ZM350.47186 43.6125Q350.47186 40.7375 352.0656 39.346874Q353.40936 38.190624 355.33124 38.190624Q357.47186 38.190624 358.8156 39.596874Q360.175 41.003124 360.175 43.471874Q360.175 45.471874 359.58124 46.628124Q358.9875 47.76875 357.83124 48.409374Q356.6906 49.034374 355.33124 49.034374Q353.14374 49.034374 351.8 47.64375Q350.47186 46.2375 350.47186 43.6125ZM352.26874 43.6125Q352.26874 45.6125 353.1281 46.596874Q354.0031 47.58125 355.33124 47.58125Q356.64374 47.58125 357.5031 46.596874Q358.3781 45.596874 358.3781 43.55Q358.3781 41.628124 357.5031 40.64375Q356.6281 39.64375 355.33124 39.64375Q354.0031 39.64375 353.1281 40.64375Q352.26874 41.628124 352.26874 43.6125ZM362.1125 48.8L362.1125 38.425L363.6906 38.425L363.6906 39.878124Q364.175 39.128124 364.9875 38.659374Q365.8 38.190624 366.83124 38.190624Q367.9875 38.190624 368.72186 38.675Q369.45624 39.14375 369.76874 40.003124Q371.0031 38.190624 372.97186 38.190624Q374.51874 38.190624 375.34686 39.05Q376.175 39.909374 376.175 41.675L376.175 48.8L374.425 48.8L374.425 42.26875Q374.425 41.20625 374.2531 40.753124Q374.08124 40.284374 373.6281 40.003124Q373.1906 39.721874 372.58124 39.721874Q371.4875 39.721874 370.7531 40.45625Q370.03436 41.175 370.03436 42.76875L370.03436 48.8L368.28436 48.8L368.28436 42.065624Q368.28436 40.89375 367.84686 40.315624Q367.425 39.721874 366.4406 39.721874Q365.70624 39.721874 365.0656 40.1125Q364.4406 40.503124 364.15936 41.253124Q363.8781 42.003124 363.8781 43.425L363.8781 48.8L362.1125 48.8ZM378.1125 48.8L378.1125 38.425L379.6906 38.425L379.6906 39.878124Q380.175 39.128124 380.9875 38.659374Q381.8 38.190624 382.83124 38.190624Q383.9875 38.190624 384.72186 38.675Q385.45624 39.14375 385.76874 40.003124Q387.0031 38.190624 388.97186 38.190624Q390.51874 38.190624 391.34686 39.05Q392.175 39.909374 392.175 41.675L392.175 48.8L390.425 48.8L390.425 42.26875Q390.425 41.20625 390.2531 40.753124Q390.08124 40.284374 389.6281 40.003124Q389.1906 39.721874 388.58124 39.721874Q387.4875 39.721874 386.7531 40.45625Q386.03436 41.175 386.03436 42.76875L386.03436 48.8L384.28436 48.8L384.28436 42.065624Q384.28436 40.89375 383.84686 40.315624Q383.425 39.721874 382.4406 39.721874Q381.70624 39.721874 381.0656 40.1125Q380.4406 40.503124 380.15936 41.253124Q379.8781 42.003124 379.8781 43.425L379.8781 48.8L378.1125 48.8ZM394.1281 36.503124L394.1281 34.4875L395.89374 34.4875L395.89374 36.503124L394.1281 36.503124ZM394.1281 48.8L394.1281 38.425L395.89374 38.425L395.89374 48.8L394.1281 48.8ZM401.95624 47.221874L402.20624 48.784374Q401.47186 48.940624 400.8781 48.940624Q399.925 48.940624 399.39374 48.64375Q398.8781 48.33125 398.65936 47.846874Q398.4406 47.346874 398.4406 45.76875L398.4406 39.8L397.15936 39.8L397.15936 38.425L398.4406 38.425L398.4406 35.8625L400.1906 34.8L400.1906 38.425L401.95624 38.425L401.95624 39.8L400.1906 39.8L400.1906 45.8625Q400.1906 46.6125 400.28436 46.83125Q400.3781 47.034374 400.58124 47.175Q400.8 47.3 401.1906 47.3Q401.47186 47.3 401.95624 47.221874ZM404.1281 36.503124L404.1281 34.4875L405.89374 34.4875L405.89374 36.503124L404.1281 36.503124ZM404.1281 48.8L404.1281 38.425L405.89374 38.425L405.89374 48.8L404.1281 48.8ZM407.1906 48.8L407.1906 47.378124L413.8 39.8Q412.675 39.846874 411.8156 39.846874L407.58124 39.846874L407.58124 38.425L416.0656 38.425L416.0656 39.596874L410.4406 46.175L409.3625 47.378124Q410.53436 47.284374 411.58124 47.284374L416.3781 47.284374L416.3781 48.8L407.1906 48.8ZM424.22186 45.45625L426.03436 45.690624Q425.6125 47.26875 424.4406 48.159374Q423.28436 49.034374 421.47186 49.034374Q419.20624 49.034374 417.8625 47.64375Q416.53436 46.2375 416.53436 43.70625Q416.53436 41.08125 417.8781 39.64375Q419.22186 38.190624 421.3781 38.190624Q423.45624 38.190624 424.76874 39.6125Q426.09686 41.01875 426.09686 43.596874Q426.09686 43.753124 426.08124 44.065624L418.34686 44.065624Q418.4406 45.76875 419.3156 46.675Q420.1906 47.58125 421.4875 47.58125Q422.45624 47.58125 423.1281 47.08125Q423.8156 46.565624 424.22186 45.45625ZM418.4406 42.6125L424.2375 42.6125Q424.1281 41.315624 423.58124 40.659374Q422.7375 39.64375 421.39374 39.64375Q420.1906 39.64375 419.3625 40.45625Q418.53436 41.253124 418.4406 42.6125ZM428.1125 48.8L428.1125 38.425L429.70624 38.425L429.70624 39.909374Q430.84686 38.190624 433.0031 38.190624Q433.9406 38.190624 434.72186 38.534374Q435.51874 38.8625 435.90936 39.409374Q436.3 39.95625 436.45624 40.70625Q436.55 41.20625 436.55 42.425L436.55 48.8L434.78436 48.8L434.78436 42.4875Q434.78436 41.409374 434.58124 40.878124Q434.3781 40.346874 433.84686 40.034374Q433.33124 39.721874 432.6281 39.721874Q431.5031 39.721874 430.6906 40.440624Q429.8781 41.14375 429.8781 43.128124L429.8781 48.8L428.1125 48.8ZM447.47186 53.003124Q446.01874 51.175 445.01874 48.721874Q444.01874 46.253124 444.01874 43.6125Q444.01874 41.284374 444.76874 39.159374Q445.64374 36.690624 447.47186 34.2375L448.7375 34.2375Q447.55 36.26875 447.175 37.14375Q446.58124 38.4875 446.2375 39.95625Q445.8156 41.784374 445.8156 43.628124Q445.8156 48.315624 448.7375 53.003124L447.47186 53.003124ZM450.8 49.659374L452.5031 49.909374Q452.6125 50.70625 453.09686 51.065624Q453.7531 51.55 454.89374 51.55Q456.1125 51.55 456.76874 51.065624Q457.4406 50.58125 457.675 49.70625Q457.8156 49.159374 457.8 47.440624Q456.64374 48.8 454.925 48.8Q452.78436 48.8 451.6125 47.253124Q450.4406 45.70625 450.4406 43.55Q450.4406 42.065624 450.97186 40.815624Q451.51874 39.565624 452.53436 38.878124Q453.5656 38.190624 454.9406 38.190624Q456.76874 38.190624 457.97186 39.675L457.97186 38.425L459.58124 38.425L459.58124 47.39375Q459.58124 49.815624 459.08124 50.815624Q458.59686 51.83125 457.51874 52.409374Q456.45624 53.003124 454.89374 53.003124Q453.05 53.003124 451.89374 52.175Q450.7531 51.346874 450.8 49.659374ZM452.2531 43.425Q452.2531 45.471874 453.0656 46.409374Q453.8781 47.346874 455.09686 47.346874Q456.3 47.346874 457.1125 46.409374Q457.9406 45.471874 457.9406 43.4875Q457.9406 41.58125 457.09686 40.6125Q456.2531 39.64375 455.0656 39.64375Q453.89374 39.64375 453.0656 40.596874Q452.2531 41.55 452.2531 43.425ZM462.1281 36.503124L462.1281 34.4875L463.89374 34.4875L463.89374 36.503124L462.1281 36.503124ZM462.1281 48.8L462.1281 38.425L463.89374 38.425L463.89374 48.8L462.1281 48.8ZM469.95624 47.221874L470.20624 48.784374Q469.47186 48.940624 468.8781 48.940624Q467.925 48.940624 467.39374 48.64375Q466.8781 48.33125 466.65936 47.846874Q466.4406 47.346874 466.4406 45.76875L466.4406 39.8L465.15936 39.8L465.15936 38.425L466.4406 38.425L466.4406 35.8625L468.1906 34.8L468.1906 38.425L469.95624 38.425L469.95624 39.8L468.1906 39.8L468.1906 45.8625Q468.1906 46.6125 468.28436 46.83125Q468.3781 47.034374 468.58124 47.175Q468.8 47.3 469.1906 47.3Q469.47186 47.3 469.95624 47.221874ZM472.1125 48.8L472.1125 34.4875L473.8781 34.4875L473.8781 39.6125Q475.1125 38.190624 476.9875 38.190624Q478.1281 38.190624 478.97186 38.64375Q479.83124 39.096874 480.1906 39.909374Q480.5656 40.70625 480.5656 42.221874L480.5656 48.8L478.8156 48.8L478.8156 42.221874Q478.8156 40.909374 478.2375 40.315624Q477.65936 39.70625 476.6281 39.70625Q475.84686 39.70625 475.14374 40.1125Q474.45624 40.51875 474.15936 41.221874Q473.8781 41.909374 473.8781 43.128124L473.8781 48.8L472.1125 48.8ZM488.90936 48.8L488.90936 47.26875Q487.70624 49.034374 485.6281 49.034374Q484.70624 49.034374 483.90936 48.690624Q483.1125 48.33125 482.72186 47.8Q482.34686 47.26875 482.1906 46.4875Q482.08124 45.971874 482.08124 44.846874L482.08124 38.425L483.83124 38.425L483.83124 44.175Q483.83124 45.55 483.9406 46.034374Q484.1125 46.721874 484.64374 47.128124Q485.1906 47.51875 485.97186 47.51875Q486.76874 47.51875 487.45624 47.1125Q488.15936 46.70625 488.4406 46.01875Q488.7375 45.315624 488.7375 43.9875L488.7375 38.425L490.4875 38.425L490.4875 48.8L488.90936 48.8ZM493.7375 48.8L492.1125 48.8L492.1125 34.4875L493.8625 34.4875L493.8625 39.596874Q494.9875 38.190624 496.70624 38.190624Q497.65936 38.190624 498.51874 38.58125Q499.3781 38.971874 499.925 39.675Q500.47186 40.3625 500.78436 41.346874Q501.09686 42.33125 501.09686 43.45625Q501.09686 46.128124 499.78436 47.58125Q498.47186 49.034374 496.6281 49.034374Q494.78436 49.034374 493.7375 47.503124L493.7375 48.8ZM493.72186 43.534374Q493.72186 45.39375 494.22186 46.2375Q495.0656 47.58125 496.47186 47.58125Q497.6281 47.58125 498.45624 46.58125Q499.3 45.58125 499.3 43.596874Q499.3 41.565624 498.4875 40.6125Q497.6906 39.64375 496.55 39.64375Q495.39374 39.64375 494.55 40.64375Q493.72186 41.64375 493.72186 43.534374ZM504.26874 53.003124L503.01874 53.003124Q505.925 48.315624 505.925 43.628124Q505.925 41.784374 505.51874 39.9875Q505.175 38.51875 504.58124 37.175Q504.20624 36.284374 503.01874 34.2375L504.26874 34.2375Q506.1125 36.690624 506.9875 39.159374Q507.7375 41.284374 507.7375 43.6125Q507.7375 46.253124 506.72186 48.721874Q505.72186 51.175 504.26874 53.003124Z" fill-rule="nonzero"/></svg>