<svg version="1.1" viewBox="0.0 0.0 615.0 425.0" fill="none" stroke="none" stroke-linecap="square" stroke-miterlimit="10" width="615" height="425" xmlns:xlink="http://www.w3.org/1999/xlink" xmlns="http://www.w3.org/2000/svg"><path fill="#ffffff" d="M0 0L615.0 0L615.0 425.0L0 425.0L0 0Z" fill-rule="nonzero"/><path stroke="#333333" stroke-width="1.0" stroke-linecap="butt" d="M48.5 383.5L501.5 383.5" fill-rule="nonzero"/><path stroke="#cccccc" stroke-width="1.0" stroke-linecap="butt" d="M48.5 304.5L501.5 304.5" fill-rule="nonzero"/><path stroke="#cccccc" stroke-width="1.0" stroke-linecap="butt" d="M48.5 225.5L501.5 225.5" fill-rule="nonzero"/><path stroke="#cccccc" stroke-width="1.0" stroke-linecap="butt" d="M48.5 145.5L501.5 145.5" fill-rule="nonzero"/><path stroke="#cccccc" stroke-width="1.0" stroke-linecap="butt" d="M48.5 66.5L501.5 66.5" fill-rule="nonzero"/><clipPath id="id_0"><path d="M48.25 66.416664L501.79443 66.416664L501.79443 383.75L48.25 383.75L48.25 66.416664Z" clip-rule="nonzero"/></clipPath><path stroke="#000000" stroke-width="2.0" stroke-linecap="butt" stroke-opacity="0.0" clip-path="url(#id_0)" d="M136.0 384.0L117.0 384.0L117.0 168.0C117.0 166.89543 117.89543 166.0 119.0 166.0L134.0 166.0C135.10457 166.0 136.0 166.89543 136.0 168.0Z" fill-rule="nonzero"/><path fill="#4285f4" clip-path="url(#id_0)" d="M136.0 384.0L117.0 384.0L117.0 168.0C117.0 166.89543 117.89543 166.0 119.0 166.0L134.0 166.0C135.10457 166.0 136.0 166.89543 136.0 168.0Z" fill-rule="nonzero"/><path stroke="#000000" stroke-width="2.0" stroke-linecap="butt" stroke-opacity="0.0" clip-path="url(#id_0)" d="M329.0 384.0L310.0 384.0L310.0 138.0C310.0 136.89543 310.89542 136.0 312.0 136.0L327.0 136.0C328.10458 136.0 329.0 136.89543 329.0 138.0Z" fill-rule="nonzero"/><path fill="#4285f4" clip-path="url(#id_0)" d="M329.0 384.0L310.0 384.0L310.0 138.0C310.0 136.89543 310.89542 136.0 312.0 136.0L327.0 136.0C328.10458 136.0 329.0 136.89543 329.0 138.0Z" fill-rule="nonzero"/><path stroke="#000000" stroke-width="2.0" stroke-linecap="butt" stroke-opacity="0.0" clip-path="url(#id_0)" d="M157.0 384.0L138.0 384.0L138.0 301.0C138.0 299.89542 138.89543 299.0 140.0 299.0L155.0 299.0C156.10457 299.0 157.0 299.89542 157.0 301.0Z" fill-rule="nonzero"/><path fill="#ea4335" clip-path="url(#id_0)" d="M157.0 384.0L138.0 384.0L138.0 301.0C138.0 299.89542 138.89543 299.0 140.0 299.0L155.0 299.0C156.10457 299.0 157.0 299.89542 157.0 301.0Z" fill-rule="nonzero"/><path stroke="#000000" stroke-width="2.0" stroke-linecap="butt" stroke-opacity="0.0" clip-path="url(#id_0)" d="M350.0 384.0L331.0 384.0L331.0 323.0C331.0 321.89542 331.89542 321.0 333.0 321.0L348.0 321.0C349.10458 321.0 350.0 321.89542 350.0 323.0Z" fill-rule="nonzero"/><path fill="#ea4335" clip-path="url(#id_0)" d="M350.0 384.0L331.0 384.0L331.0 323.0C331.0 321.89542 331.89542 321.0 333.0 321.0L348.0 321.0C349.10458 321.0 350.0 321.89542 350.0 323.0Z" fill-rule="nonzero"/><path stroke="#000000" stroke-width="2.0" stroke-linecap="butt" stroke-opacity="0.0" clip-path="url(#id_0)" d="M178.0 384.0L159.0 384.0L159.0 323.0C159.0 321.89542 159.89543 321.0 161.0 321.0L176.0 321.0C177.10457 321.0 178.0 321.89542 178.0 323.0Z" fill-rule="nonzero"/><path fill="#fbbc04" clip-path="url(#id_0)" d="M178.0 384.0L159.0 384.0L159.0 323.0C159.0 321.89542 159.89543 321.0 161.0 321.0L176.0 321.0C177.10457 321.0 178.0 321.89542 178.0 323.0Z" fill-rule="nonzero"/><path stroke="#000000" stroke-width="2.0" stroke-linecap="butt" stroke-opacity="0.0" clip-path="url(#id_0)" d="M371.0 384.0L352.0 384.0L352.0 332.0C352.0 330.89542 352.89542 330.0 354.0 330.0L369.0 330.0C370.10458 330.0 371.0 330.89542 371.0 332.0Z" fill-rule="nonzero"/><path fill="#fbbc04" clip-path="url(#id_0)" d="M371.0 384.0L352.0 384.0L352.0 332.0C352.0 330.89542 352.89542 330.0 354.0 330.0L369.0 330.0C370.10458 330.0 371.0 330.89542 371.0 332.0Z" fill-rule="nonzero"/><path stroke="#000000" stroke-width="2.0" stroke-linecap="butt" stroke-opacity="0.0" clip-path="url(#id_0)" d="M199.0 384.0L180.0 384.0L180.0 357.0C180.0 355.89542 180.89543 355.0 182.0 355.0L197.0 355.0C198.10457 355.0 199.0 355.89542 199.0 357.0Z" fill-rule="nonzero"/><path fill="#34a853" clip-path="url(#id_0)" d="M199.0 384.0L180.0 384.0L180.0 357.0C180.0 355.89542 180.89543 355.0 182.0 355.0L197.0 355.0C198.10457 355.0 199.0 355.89542 199.0 357.0Z" fill-rule="nonzero"/><path stroke="#000000" stroke-width="2.0" stroke-linecap="butt" stroke-opacity="0.0" clip-path="url(#id_0)" d="M392.0 384.0L373.0 384.0L373.0 356.0C373.0 354.89542 373.89542 354.0 375.0 354.0L390.0 354.0C391.10458 354.0 392.0 354.89542 392.0 356.0Z" fill-rule="nonzero"/><path fill="#34a853" clip-path="url(#id_0)" d="M392.0 384.0L373.0 384.0L373.0 356.0C373.0 354.89542 373.89542 354.0 375.0 354.0L390.0 354.0C391.10458 354.0 392.0 354.89542 392.0 356.0Z" fill-rule="nonzero"/><path stroke="#000000" stroke-width="2.0" stroke-linecap="butt" stroke-opacity="0.0" clip-path="url(#id_0)" d="M220.0 384.0L201.0 384.0L201.0 382.5C201.0 381.67157 201.67157 381.0 202.5 381.0L218.5 381.0C219.32843 381.0 220.0 381.67157 220.0 382.5Z" fill-rule="nonzero"/><path fill="#ff6d01" clip-path="url(#id_0)" d="M220.0 384.0L201.0 384.0L201.0 382.5C201.0 381.67157 201.67157 381.0 202.5 381.0L218.5 381.0C219.32843 381.0 220.0 381.67157 220.0 382.5Z" fill-rule="nonzero"/><path stroke="#000000" stroke-width="2.0" stroke-linecap="butt" stroke-opacity="0.0" clip-path="url(#id_0)" d="M413.0 384.0L394.0 384.0L394.0 383.5C394.0 383.22385 394.22385 383.0 394.5 383.0L412.5 383.0C412.77615 383.0 413.0 383.22385 413.0 383.5Z" fill-rule="nonzero"/><path fill="#ff6d01" clip-path="url(#id_0)" d="M413.0 384.0L394.0 384.0L394.0 383.5C394.0 383.22385 394.22385 383.0 394.5 383.0L412.5 383.0C412.77615 383.0 413.0 383.22385 413.0 383.5Z" fill-rule="nonzero"/><path stroke="#000000" stroke-width="2.0" stroke-linecap="butt" stroke-opacity="0.0" clip-path="url(#id_0)" d="M241.0 384.0L222.0 384.0L222.0 384.0L241.0 384.0Z" fill-rule="nonzero"/><path fill="#46bdc6" clip-path="url(#id_0)" d="M241.0 384.0L222.0 384.0L222.0 384.0L241.0 384.0Z" fill-rule="nonzero"/><path stroke="#000000" stroke-width="2.0" stroke-linecap="butt" stroke-opacity="0.0" clip-path="url(#id_0)" d="M434.0 384.0L415.0 384.0L415.0 382.5C415.0 381.67157 415.67157 381.0 416.5 381.0L432.5 381.0C433.32843 381.0 434.0 381.67157 434.0 382.5Z" fill-rule="nonzero"/><path fill="#46bdc6" clip-path="url(#id_0)" d="M434.0 384.0L415.0 384.0L415.0 382.5C415.0 381.67157 415.67157 381.0 416.5 381.0L432.5 381.0C433.32843 381.0 434.0 381.67157 434.0 382.5Z" fill-rule="nonzero"/><path fill="#000000" d="M25.75 383.51562Q25.75 381.98438 26.0625 381.0625Q26.375 380.125 26.984375 379.625Q27.609375 379.125 28.546875 379.125Q29.234375 379.125 29.75 379.40625Q30.28125 379.6875 30.625 380.21875Q30.96875 380.73438 31.15625 381.48438Q31.34375 382.23438 31.34375 383.51562Q31.34375 385.03125 31.03125 385.95312Q30.734375 386.875 30.109375 387.39062Q29.5 387.89062 28.546875 387.89062Q27.3125 387.89062 26.59375 387.0Q25.75 385.9375 25.75 383.51562ZM26.828125 383.51562Q26.828125 385.625 27.328125 386.32812Q27.828125 387.03125 28.546875 387.03125Q29.28125 387.03125 29.765625 386.32812Q30.265625 385.625 30.265625 383.51562Q30.265625 381.39062 29.765625 380.70312Q29.28125 380.0 28.53125 380.0Q27.8125 380.0 27.375 380.60938Q26.828125 381.39062 26.828125 383.51562ZM33.3125 387.75L33.3125 386.54688L34.515625 386.54688L34.515625 387.75Q34.515625 388.40625 34.28125 388.8125Q34.046875 389.23438 33.546875 389.45312L33.25 389.0Q33.578125 388.85938 33.734375 388.5625Q33.890625 388.28125 33.921875 387.75L33.3125 387.75ZM35.75 383.51562Q35.75 381.98438 36.0625 381.0625Q36.375 380.125 36.984375 379.625Q37.609375 379.125 38.546875 379.125Q39.234375 379.125 39.75 379.40625Q40.28125 379.6875 40.625 380.21875Q40.96875 380.73438 41.15625 381.48438Q41.34375 382.23438 41.34375 383.51562Q41.34375 385.03125 41.03125 385.95312Q40.734375 386.875 40.109375 387.39062Q39.5 387.89062 38.546875 387.89062Q37.3125 387.89062 36.59375 387.0Q35.75 385.9375 35.75 383.51562ZM36.828125 383.51562Q36.828125 385.625 37.328125 386.32812Q37.828125 387.03125 38.546875 387.03125Q39.28125 387.03125 39.765625 386.32812Q40.265625 385.625 40.265625 383.51562Q40.265625 381.39062 39.765625 380.70312Q39.28125 380.0 38.53125 380.0Q37.8125 380.0 37.375 380.60938Q36.828125 381.39062 36.828125 383.51562Z" fill-rule="nonzero"/><path fill="#000000" d="M25.75 304.18228Q25.75 302.65103 26.0625 301.72916Q26.375 300.79166 26.984375 300.29166Q27.609375 299.79166 28.546875 299.79166Q29.234375 299.79166 29.75 300.0729Q30.28125 300.35416 30.625 300.8854Q30.96875 301.40103 31.15625 302.15103Q31.34375 302.90103 31.34375 304.18228Q31.34375 305.6979 31.03125 306.61978Q30.734375 307.54166 30.109375 308.05728Q29.5 308.55728 28.546875 308.55728Q27.3125 308.55728 26.59375 307.66666Q25.75 306.60416 25.75 304.18228ZM26.828125 304.18228Q26.828125 306.29166 27.328125 306.99478Q27.828125 307.6979 28.546875 307.6979Q29.28125 307.6979 29.765625 306.99478Q30.265625 306.29166 30.265625 304.18228Q30.265625 302.05728 29.765625 301.36978Q29.28125 300.66666 28.53125 300.66666Q27.8125 300.66666 27.375 301.27603Q26.828125 302.05728 26.828125 304.18228ZM33.3125 308.41666L33.3125 307.21353L34.515625 307.21353L34.515625 308.41666Q34.515625 309.0729 34.28125 309.47916Q34.046875 309.90103 33.546875 310.11978L33.25 309.66666Q33.578125 309.52603 33.734375 309.22916Q33.890625 308.9479 33.921875 308.41666L33.3125 308.41666ZM41.296875 307.40103L41.296875 308.41666L35.609375 308.41666Q35.609375 308.04166 35.734375 307.68228Q35.953125 307.10416 36.421875 306.54166Q36.90625 305.97916 37.8125 305.24478Q39.21875 304.08853 39.703125 303.41666Q40.203125 302.74478 40.203125 302.15103Q40.203125 301.52603 39.75 301.10416Q39.296875 300.66666 38.578125 300.66666Q37.8125 300.66666 37.359375 301.11978Q36.90625 301.5729 36.890625 302.3854L35.8125 302.27603Q35.921875 301.05728 36.640625 300.43228Q37.375 299.79166 38.609375 299.79166Q39.84375 299.79166 40.5625 300.47916Q41.28125 301.16666 41.28125 302.18228Q41.28125 302.6979 41.0625 303.1979Q40.859375 303.68228 40.359375 304.24478Q39.875 304.79166 38.75 305.74478Q37.796875 306.54166 37.515625 306.83853Q37.25 307.11978 37.078125 307.40103L41.296875 307.40103Z" fill-rule="nonzero"/><path fill="#000000" d="M25.75 224.84895Q25.75 223.3177 26.0625 222.39583Q26.375 221.45833 26.984375 220.95833Q27.609375 220.45833 28.546875 220.45833Q29.234375 220.45833 29.75 220.73958Q30.28125 221.02083 30.625 221.55208Q30.96875 222.0677 31.15625 222.8177Q31.34375 223.5677 31.34375 224.84895Q31.34375 226.36458 31.03125 227.28645Q30.734375 228.20833 30.109375 228.72395Q29.5 229.22395 28.546875 229.22395Q27.3125 229.22395 26.59375 228.33333Q25.75 227.27083 25.75 224.84895ZM26.828125 224.84895Q26.828125 226.95833 27.328125 227.66145Q27.828125 228.36458 28.546875 228.36458Q29.28125 228.36458 29.765625 227.66145Q30.265625 226.95833 30.265625 224.84895Q30.265625 222.72395 29.765625 222.03645Q29.28125 221.33333 28.53125 221.33333Q27.8125 221.33333 27.375 221.9427Q26.828125 222.72395 26.828125 224.84895ZM33.3125 229.08333L33.3125 227.8802L34.515625 227.8802L34.515625 229.08333Q34.515625 229.73958 34.28125 230.14583Q34.046875 230.5677 33.546875 230.78645L33.25 230.33333Q33.578125 230.1927 33.734375 229.89583Q33.890625 229.61458 33.921875 229.08333L33.3125 229.08333ZM39.125 229.08333L39.125 227.02083L35.40625 227.02083L35.40625 226.05208L39.328125 220.48958L40.1875 220.48958L40.1875 226.05208L41.34375 226.05208L41.34375 227.02083L40.1875 227.02083L40.1875 229.08333L39.125 229.08333ZM39.125 226.05208L39.125 222.1927L36.4375 226.05208L39.125 226.05208Z" fill-rule="nonzero"/><path fill="#000000" d="M25.75 145.51562Q25.75 143.98438 26.0625 143.0625Q26.375 142.125 26.984375 141.625Q27.609375 141.125 28.546875 141.125Q29.234375 141.125 29.75 141.40625Q30.28125 141.6875 30.625 142.21875Q30.96875 142.73438 31.15625 143.48438Q31.34375 144.23438 31.34375 145.51562Q31.34375 147.03125 31.03125 147.95312Q30.734375 148.875 30.109375 149.39062Q29.5 149.89062 28.546875 149.89062Q27.3125 149.89062 26.59375 149.0Q25.75 147.9375 25.75 145.51562ZM26.828125 145.51562Q26.828125 147.625 27.328125 148.32812Q27.828125 149.03125 28.546875 149.03125Q29.28125 149.03125 29.765625 148.32812Q30.265625 147.625 30.265625 145.51562Q30.265625 143.39062 29.765625 142.70312Q29.28125 142.0 28.53125 142.0Q27.8125 142.0 27.375 142.60938Q26.828125 143.39062 26.828125 145.51562ZM33.3125 149.75L33.3125 148.54688L34.515625 148.54688L34.515625 149.75Q34.515625 150.40625 34.28125 150.8125Q34.046875 151.23438 33.546875 151.45312L33.25 151.0Q33.578125 150.85938 33.734375 150.5625Q33.890625 150.28125 33.921875 149.75L33.3125 149.75ZM41.21875 143.26562L40.171875 143.34375Q40.03125 142.71875 39.78125 142.4375Q39.34375 141.98438 38.71875 141.98438Q38.21875 141.98438 37.828125 142.26562Q37.34375 142.64062 37.046875 143.34375Q36.765625 144.03125 36.75 145.3125Q37.125 144.73438 37.671875 144.45312Q38.234375 144.17188 38.84375 144.17188Q39.890625 144.17188 40.625 144.95312Q41.375 145.73438 41.375 146.95312Q41.375 147.76562 41.015625 148.46875Q40.671875 149.15625 40.0625 149.53125Q39.453125 149.89062 38.6875 149.89062Q37.359375 149.89062 36.53125 148.92188Q35.703125 147.95312 35.703125 145.73438Q35.703125 143.23438 36.625 142.10938Q37.421875 141.125 38.78125 141.125Q39.796875 141.125 40.4375 141.70312Q41.09375 142.26562 41.21875 143.26562ZM36.921875 146.96875Q36.921875 147.51562 37.140625 148.01562Q37.375 148.5 37.78125 148.76562Q38.203125 149.03125 38.671875 149.03125Q39.328125 149.03125 39.8125 148.5Q40.296875 147.95312 40.296875 147.03125Q40.296875 146.14062 39.8125 145.625Q39.34375 145.10938 38.625 145.10938Q37.90625 145.10938 37.40625 145.625Q36.921875 146.14062 36.921875 146.96875Z" fill-rule="nonzero"/><path fill="#000000" d="M25.75 66.18229Q25.75 64.65104 26.0625 63.729164Q26.375 62.791664 26.984375 62.291664Q27.609375 61.791664 28.546875 61.791664Q29.234375 61.791664 29.75 62.072914Q30.28125 62.354164 30.625 62.885414Q30.96875 63.40104 31.15625 64.15104Q31.34375 64.90104 31.34375 66.18229Q31.34375 67.697914 31.03125 68.61979Q30.734375 69.541664 30.109375 70.05729Q29.5 70.55729 28.546875 70.55729Q27.3125 70.55729 26.59375 69.666664Q25.75 68.604164 25.75 66.18229ZM26.828125 66.18229Q26.828125 68.291664 27.328125 68.99479Q27.828125 69.697914 28.546875 69.697914Q29.28125 69.697914 29.765625 68.99479Q30.265625 68.291664 30.265625 66.18229Q30.265625 64.05729 29.765625 63.36979Q29.28125 62.666664 28.53125 62.666664Q27.8125 62.666664 27.375 63.27604Q26.828125 64.05729 26.828125 66.18229ZM33.3125 70.416664L33.3125 69.21354L34.515625 69.21354L34.515625 70.416664Q34.515625 71.072914 34.28125 71.479164Q34.046875 71.90104 33.546875 72.11979L33.25 71.666664Q33.578125 71.52604 33.734375 71.229164Q33.890625 70.947914 33.921875 70.416664L33.3125 70.416664ZM37.375 65.760414Q36.71875 65.510414 36.390625 65.072914Q36.078125 64.61979 36.078125 64.010414Q36.078125 63.072914 36.75 62.43229Q37.4375 61.791664 38.546875 61.791664Q39.671875 61.791664 40.359375 62.447914Q41.046875 63.104164 41.046875 64.041664Q41.046875 64.635414 40.734375 65.072914Q40.421875 65.510414 39.78125 65.760414Q40.578125 66.010414 40.984375 66.58854Q41.390625 67.166664 41.390625 67.96354Q41.390625 69.05729 40.609375 69.80729Q39.84375 70.55729 38.5625 70.55729Q37.296875 70.55729 36.515625 69.80729Q35.734375 69.05729 35.734375 67.93229Q35.734375 67.08854 36.15625 66.52604Q36.59375 65.96354 37.375 65.760414ZM37.15625 63.96354Q37.15625 64.572914 37.546875 64.96354Q37.953125 65.354164 38.578125 65.354164Q39.1875 65.354164 39.578125 64.979164Q39.96875 64.58854 39.96875 64.02604Q39.96875 63.447914 39.5625 63.05729Q39.15625 62.65104 38.5625 62.65104Q37.953125 62.65104 37.546875 63.041664Q37.15625 63.43229 37.15625 63.96354ZM36.828125 67.93229Q36.828125 68.385414 37.03125 68.80729Q37.25 69.229164 37.671875 69.46354Q38.09375 69.697914 38.578125 69.697914Q39.328125 69.697914 39.8125 69.21354Q40.3125 68.729164 40.3125 67.979164Q40.3125 67.21354 39.8125 66.71354Q39.3125 66.21354 38.546875 66.21354Q37.796875 66.21354 37.3125 66.71354Q36.828125 67.197914 36.828125 67.93229Z" fill-rule="nonzero"/><path fill="#000000" d="M132.50778 400.75L135.80466 392.15625L137.03903 392.15625L140.55466 400.75L132.50778 400.75ZM134.0859 399.73438L138.86716 399.73438L137.00778 394.84375Q136.5859 393.73438 136.3984 393.0625Q136.24216 393.85938 135.92966 394.70312L134.0859 399.73438ZM146.5859 397.73438L147.7109 398.03125Q147.35153 399.42188 146.42966 400.15625Q145.50778 400.89062 144.16403 400.89062Q142.7734 400.89062 141.8984 400.32812Q141.0234 399.76562 140.57028 398.70312Q140.11716 397.625 140.11716 396.39062Q140.11716 395.04688 140.63278 394.04688Q141.1484 393.04688 142.0859 392.53125Q143.03903 392.01562 144.17966 392.01562Q145.4609 392.01562 146.3359 392.67188Q147.22653 393.32812 147.57028 394.51562L146.44528 394.78125Q146.1484 393.84375 145.57028 393.42188Q145.00778 392.98438 144.1484 392.98438Q143.16403 392.98438 142.49216 393.46875Q141.8359 393.9375 141.55466 394.73438Q141.28903 395.53125 141.28903 396.39062Q141.28903 397.48438 141.60153 398.29688Q141.92966 399.10938 142.60153 399.51562Q143.2734 399.92188 144.07028 399.92188Q145.0234 399.92188 145.67966 399.375Q146.35153 398.82812 146.5859 397.73438ZM149.44528 400.75L149.44528 392.15625L152.41403 392.15625Q153.41403 392.15625 153.94528 392.28125Q154.67966 392.45312 155.19528 392.89062Q155.88278 393.46875 156.2109 394.375Q156.55466 395.26562 156.55466 396.40625Q156.55466 397.39062 156.32028 398.14062Q156.10153 398.89062 155.74216 399.39062Q155.38278 399.89062 154.94528 400.17188Q154.5234 400.45312 153.92966 400.60938Q153.3359 400.75 152.55466 400.75L149.44528 400.75ZM150.5859 399.73438L152.41403 399.73438Q153.2734 399.73438 153.75778 399.57812Q154.24216 399.42188 154.5234 399.125Q154.92966 398.73438 155.1484 398.04688Q155.38278 397.35938 155.38278 396.39062Q155.38278 395.04688 154.92966 394.32812Q154.49216 393.59375 153.86716 393.34375Q153.3984 393.17188 152.3984 393.17188L150.5859 393.17188L150.5859 399.73438ZM163.3359 403.28125Q162.4609 402.17188 161.85153 400.70312Q161.25778 399.21875 161.25778 397.64062Q161.25778 396.25 161.69528 394.96875Q162.22653 393.48438 163.3359 392.01562L164.0859 392.01562Q163.38278 393.23438 163.1484 393.75Q162.78903 394.5625 162.5859 395.4375Q162.3359 396.53125 162.3359 397.64062Q162.3359 400.46875 164.0859 403.28125L163.3359 403.28125ZM165.22653 394.21875Q165.22653 393.29688 165.67966 392.65625Q166.1484 392.01562 167.0234 392.01562Q167.8359 392.01562 168.36716 392.59375Q168.8984 393.17188 168.8984 394.28125Q168.8984 395.375 168.35153 395.96875Q167.82028 396.54688 167.03903 396.54688Q166.25778 396.54688 165.74216 395.96875Q165.22653 395.39062 165.22653 394.21875ZM167.05466 392.73438Q166.66403 392.73438 166.3984 393.07812Q166.1484 393.42188 166.1484 394.32812Q166.1484 395.15625 166.3984 395.5Q166.66403 395.82812 167.05466 395.82812Q167.4609 395.82812 167.7109 395.48438Q167.97653 395.14062 167.97653 394.25Q167.97653 393.40625 167.7109 393.07812Q167.44528 392.73438 167.05466 392.73438ZM167.05466 401.0625L171.75778 392.01562L172.61716 392.01562L167.92966 401.0625L167.05466 401.0625ZM170.7734 398.73438Q170.7734 397.8125 171.22653 397.17188Q171.69528 396.53125 172.5859 396.53125Q173.3984 396.53125 173.92966 397.10938Q174.4609 397.67188 174.4609 398.79688Q174.4609 399.89062 173.91403 400.48438Q173.38278 401.0625 172.5859 401.0625Q171.82028 401.0625 171.28903 400.48438Q170.7734 399.90625 170.7734 398.73438ZM172.61716 397.25Q172.2109 397.25 171.94528 397.59375Q171.69528 397.9375 171.69528 398.84375Q171.69528 399.65625 171.9609 400.0Q172.22653 400.34375 172.61716 400.34375Q173.00778 400.34375 173.2734 400.0Q173.53903 399.65625 173.53903 398.75Q173.53903 397.92188 173.2734 397.59375Q173.00778 397.25 172.61716 397.25ZM178.92966 397.64062Q178.92966 395.90625 179.88278 395.07812Q180.67966 394.39062 181.8359 394.39062Q183.11716 394.39062 183.92966 395.23438Q184.75778 396.0625 184.75778 397.54688Q184.75778 398.75 184.3984 399.4375Q184.03903 400.125 183.3359 400.51562Q182.6484 400.89062 181.8359 400.89062Q180.53903 400.89062 179.72653 400.0625Q178.92966 399.21875 178.92966 397.64062ZM180.00778 397.64062Q180.00778 398.82812 180.5234 399.42188Q181.05466 400.01562 181.8359 400.01562Q182.63278 400.01562 183.1484 399.42188Q183.66403 398.82812 183.66403 397.60938Q183.66403 396.45312 183.13278 395.85938Q182.61716 395.26562 181.8359 395.26562Q181.05466 395.26562 180.5234 395.85938Q180.00778 396.4375 180.00778 397.64062ZM186.57028 400.75L186.57028 395.34375L185.63278 395.34375L185.63278 394.53125L186.57028 394.53125L186.57028 393.85938Q186.57028 393.23438 186.67966 392.9375Q186.8359 392.51562 187.2109 392.26562Q187.60153 392.01562 188.28903 392.01562Q188.74216 392.01562 189.2734 392.125L189.11716 393.03125Q188.78903 392.98438 188.49216 392.98438Q188.00778 392.98438 187.80466 393.1875Q187.61716 393.39062 187.61716 393.95312L187.61716 394.53125L188.8359 394.53125L188.8359 395.34375L187.61716 395.34375L187.61716 400.75L186.57028 400.75ZM193.28903 400.75L192.30466 400.75L192.30466 392.15625L193.36716 392.15625L193.36716 395.21875Q194.03903 394.39062 195.07028 394.39062Q195.6484 394.39062 196.1484 394.625Q196.66403 394.84375 196.99216 395.26562Q197.3359 395.6875 197.5234 396.28125Q197.7109 396.875 197.7109 397.54688Q197.7109 399.14062 196.91403 400.01562Q196.11716 400.89062 195.0234 400.89062Q193.91403 400.89062 193.28903 399.96875L193.28903 400.75ZM193.2734 397.59375Q193.2734 398.70312 193.5859 399.20312Q194.0859 400.01562 194.92966 400.01562Q195.61716 400.01562 196.11716 399.42188Q196.63278 398.82812 196.63278 397.625Q196.63278 396.40625 196.1484 395.82812Q195.66403 395.25 194.97653 395.25Q194.28903 395.25 193.7734 395.85938Q193.2734 396.45312 193.2734 397.59375ZM199.2734 403.14062L199.1484 402.15625Q199.49216 402.25 199.75778 402.25Q200.10153 402.25 200.30466 402.125Q200.5234 402.01562 200.66403 401.8125Q200.75778 401.64062 200.99216 401.01562Q201.00778 400.9375 201.0859 400.76562L198.7109 394.53125L199.85153 394.53125L201.1484 398.125Q201.3984 398.8125 201.60153 399.57812Q201.78903 398.84375 202.03903 398.15625L203.36716 394.53125L204.41403 394.53125L202.05466 400.85938Q201.66403 401.875 201.4609 402.26562Q201.17966 402.79688 200.80466 403.03125Q200.44528 403.28125 199.94528 403.28125Q199.6484 403.28125 199.2734 403.14062ZM206.61716 399.8125L206.7734 400.73438Q206.32028 400.82812 205.97653 400.82812Q205.3984 400.82812 205.0859 400.65625Q204.7734 400.46875 204.63278 400.17188Q204.50778 399.875 204.50778 398.92188L204.50778 395.34375L203.74216 395.34375L203.74216 394.53125L204.50778 394.53125L204.50778 392.98438L205.55466 392.35938L205.55466 394.53125L206.61716 394.53125L206.61716 395.34375L205.55466 395.34375L205.55466 398.98438Q205.55466 399.4375 205.60153 399.5625Q205.66403 399.6875 205.78903 399.76562Q205.91403 399.84375 206.1484 399.84375Q206.3359 399.84375 206.61716 399.8125ZM211.57028 398.75L212.66403 398.875Q212.41403 399.82812 211.7109 400.35938Q211.00778 400.89062 209.92966 400.89062Q208.57028 400.89062 207.75778 400.04688Q206.9609 399.20312 206.9609 397.6875Q206.9609 396.125 207.7734 395.26562Q208.5859 394.39062 209.86716 394.39062Q211.11716 394.39062 211.8984 395.23438Q212.69528 396.07812 212.69528 397.625Q212.69528 397.71875 212.69528 397.90625L208.05466 397.90625Q208.11716 398.9375 208.63278 399.48438Q209.1484 400.01562 209.92966 400.01562Q210.50778 400.01562 210.91403 399.71875Q211.3359 399.40625 211.57028 398.75ZM208.11716 397.04688L211.5859 397.04688Q211.5234 396.25 211.19528 395.85938Q210.67966 395.25 209.88278 395.25Q209.1484 395.25 208.6484 395.73438Q208.16403 396.21875 208.11716 397.04688ZM213.8984 398.89062L214.92966 398.73438Q215.0234 399.35938 215.41403 399.6875Q215.82028 400.01562 216.55466 400.01562Q217.2734 400.01562 217.61716 399.73438Q217.97653 399.4375 217.97653 399.03125Q217.97653 398.67188 217.66403 398.46875Q217.44528 398.32812 216.5859 398.10938Q215.42966 397.8125 214.97653 397.60938Q214.53903 397.39062 214.30466 397.01562Q214.07028 396.64062 214.07028 396.17188Q214.07028 395.76562 214.25778 395.40625Q214.44528 395.04688 214.7734 394.8125Q215.0234 394.64062 215.44528 394.51562Q215.86716 394.39062 216.36716 394.39062Q217.0859 394.39062 217.63278 394.60938Q218.19528 394.8125 218.4609 395.17188Q218.72653 395.53125 218.82028 396.125L217.78903 396.26562Q217.72653 395.79688 217.38278 395.53125Q217.05466 395.25 216.42966 395.25Q215.7109 395.25 215.3984 395.5Q215.0859 395.73438 215.0859 396.0625Q215.0859 396.26562 215.2109 396.42188Q215.35153 396.59375 215.61716 396.70312Q215.7734 396.76562 216.55466 396.96875Q217.67966 397.28125 218.11716 397.46875Q218.55466 397.65625 218.80466 398.01562Q219.05466 398.375 219.05466 398.92188Q219.05466 399.45312 218.74216 399.92188Q218.44528 400.375 217.86716 400.64062Q217.28903 400.89062 216.55466 400.89062Q215.3359 400.89062 214.69528 400.39062Q214.07028 399.875 213.8984 398.89062ZM222.00778 403.28125L221.25778 403.28125Q223.00778 400.46875 223.00778 397.64062Q223.00778 396.54688 222.75778 395.45312Q222.55466 394.57812 222.19528 393.76562Q221.9609 393.25 221.25778 392.01562L222.00778 392.01562Q223.10153 393.48438 223.63278 394.96875Q224.0859 396.25 224.0859 397.64062Q224.0859 399.21875 223.47653 400.70312Q222.86716 402.17188 222.00778 403.28125Z" fill-rule="nonzero"/><path fill="#000000" d="M323.89603 400.75L323.89603 392.15625L325.03665 392.15625L325.03665 399.73438L329.27103 399.73438L329.27103 400.75L323.89603 400.75ZM330.42728 397.64062Q330.42728 395.90625 331.3804 395.07812Q332.17728 394.39062 333.33353 394.39062Q334.61478 394.39062 335.42728 395.23438Q336.2554 396.0625 336.2554 397.54688Q336.2554 398.75 335.89603 399.4375Q335.53665 400.125 334.83353 400.51562Q334.14603 400.89062 333.33353 400.89062Q332.03665 400.89062 331.22415 400.0625Q330.42728 399.21875 330.42728 397.64062ZM331.5054 397.64062Q331.5054 398.82812 332.02103 399.42188Q332.55228 400.01562 333.33353 400.01562Q334.1304 400.01562 334.64603 399.42188Q335.16165 398.82812 335.16165 397.60938Q335.16165 396.45312 334.6304 395.85938Q334.11478 395.26562 333.33353 395.26562Q332.55228 395.26562 332.02103 395.85938Q331.5054 396.4375 331.5054 397.64062ZM344.08353 397.73438L345.20853 398.03125Q344.84915 399.42188 343.92728 400.15625Q343.0054 400.89062 341.66165 400.89062Q340.27103 400.89062 339.39603 400.32812Q338.52103 399.76562 338.0679 398.70312Q337.61478 397.625 337.61478 396.39062Q337.61478 395.04688 338.1304 394.04688Q338.64603 393.04688 339.58353 392.53125Q340.53665 392.01562 341.67728 392.01562Q342.95853 392.01562 343.83353 392.67188Q344.72415 393.32812 345.0679 394.51562L343.9429 394.78125Q343.64603 393.84375 343.0679 393.42188Q342.5054 392.98438 341.64603 392.98438Q340.66165 392.98438 339.98978 393.46875Q339.33353 393.9375 339.05228 394.73438Q338.78665 395.53125 338.78665 396.39062Q338.78665 397.48438 339.09915 398.29688Q339.42728 399.10938 340.09915 399.51562Q340.77103 399.92188 341.5679 399.92188Q342.52103 399.92188 343.17728 399.375Q343.84915 398.82812 344.08353 397.73438ZM353.08353 397.73438L354.20853 398.03125Q353.84915 399.42188 352.92728 400.15625Q352.0054 400.89062 350.66165 400.89062Q349.27103 400.89062 348.39603 400.32812Q347.52103 399.76562 347.0679 398.70312Q346.61478 397.625 346.61478 396.39062Q346.61478 395.04688 347.1304 394.04688Q347.64603 393.04688 348.58353 392.53125Q349.53665 392.01562 350.67728 392.01562Q351.95853 392.01562 352.83353 392.67188Q353.72415 393.32812 354.0679 394.51562L352.9429 394.78125Q352.64603 393.84375 352.0679 393.42188Q351.5054 392.98438 350.64603 392.98438Q349.66165 392.98438 348.98978 393.46875Q348.33353 393.9375 348.05228 394.73438Q347.78665 395.53125 347.78665 396.39062Q347.78665 397.48438 348.09915 398.29688Q348.42728 399.10938 349.09915 399.51562Q349.77103 399.92188 350.5679 399.92188Q351.52103 399.92188 352.17728 399.375Q352.84915 398.82812 353.08353 397.73438ZM360.83353 403.28125Q359.95853 402.17188 359.34915 400.70312Q358.7554 399.21875 358.7554 397.64062Q358.7554 396.25 359.1929 394.96875Q359.72415 393.48438 360.83353 392.01562L361.58353 392.01562Q360.8804 393.23438 360.64603 393.75Q360.28665 394.5625 360.08353 395.4375Q359.83353 396.53125 359.83353 397.64062Q359.83353 400.46875 361.58353 403.28125L360.83353 403.28125ZM362.72415 394.21875Q362.72415 393.29688 363.17728 392.65625Q363.64603 392.01562 364.52103 392.01562Q365.33353 392.01562 365.86478 392.59375Q366.39603 393.17188 366.39603 394.28125Q366.39603 395.375 365.84915 395.96875Q365.3179 396.54688 364.53665 396.54688Q363.7554 396.54688 363.23978 395.96875Q362.72415 395.39062 362.72415 394.21875ZM364.55228 392.73438Q364.16165 392.73438 363.89603 393.07812Q363.64603 393.42188 363.64603 394.32812Q363.64603 395.15625 363.89603 395.5Q364.16165 395.82812 364.55228 395.82812Q364.95853 395.82812 365.20853 395.48438Q365.47415 395.14062 365.47415 394.25Q365.47415 393.40625 365.20853 393.07812Q364.9429 392.73438 364.55228 392.73438ZM364.55228 401.0625L369.2554 392.01562L370.11478 392.01562L365.42728 401.0625L364.55228 401.0625ZM368.27103 398.73438Q368.27103 397.8125 368.72415 397.17188Q369.1929 396.53125 370.08353 396.53125Q370.89603 396.53125 371.42728 397.10938Q371.95853 397.67188 371.95853 398.79688Q371.95853 399.89062 371.41165 400.48438Q370.8804 401.0625 370.08353 401.0625Q369.3179 401.0625 368.78665 400.48438Q368.27103 399.90625 368.27103 398.73438ZM370.11478 397.25Q369.70853 397.25 369.4429 397.59375Q369.1929 397.9375 369.1929 398.84375Q369.1929 399.65625 369.45853 400.0Q369.72415 400.34375 370.11478 400.34375Q370.5054 400.34375 370.77103 400.0Q371.03665 399.65625 371.03665 398.75Q371.03665 397.92188 370.77103 397.59375Q370.5054 397.25 370.11478 397.25ZM376.42728 397.64062Q376.42728 395.90625 377.3804 395.07812Q378.17728 394.39062 379.33353 394.39062Q380.61478 394.39062 381.42728 395.23438Q382.2554 396.0625 382.2554 397.54688Q382.2554 398.75 381.89603 399.4375Q381.53665 400.125 380.83353 400.51562Q380.14603 400.89062 379.33353 400.89062Q378.03665 400.89062 377.22415 400.0625Q376.42728 399.21875 376.42728 397.64062ZM377.5054 397.64062Q377.5054 398.82812 378.02103 399.42188Q378.55228 400.01562 379.33353 400.01562Q380.1304 400.01562 380.64603 399.42188Q381.16165 398.82812 381.16165 397.60938Q381.16165 396.45312 380.6304 395.85938Q380.11478 395.26562 379.33353 395.26562Q378.55228 395.26562 378.02103 395.85938Q377.5054 396.4375 377.5054 397.64062ZM384.0679 400.75L384.0679 395.34375L383.1304 395.34375L383.1304 394.53125L384.0679 394.53125L384.0679 393.85938Q384.0679 393.23438 384.17728 392.9375Q384.33353 392.51562 384.70853 392.26562Q385.09915 392.01562 385.78665 392.01562Q386.23978 392.01562 386.77103 392.125L386.61478 393.03125Q386.28665 392.98438 385.98978 392.98438Q385.5054 392.98438 385.30228 393.1875Q385.11478 393.39062 385.11478 393.95312L385.11478 394.53125L386.33353 394.53125L386.33353 395.34375L385.11478 395.34375L385.11478 400.75L384.0679 400.75ZM389.78665 400.75L389.78665 392.15625L390.84915 392.15625L390.84915 400.75L389.78665 400.75ZM392.8179 393.375L392.8179 392.15625L393.8804 392.15625L393.8804 393.375L392.8179 393.375ZM392.8179 400.75L392.8179 394.53125L393.8804 394.53125L393.8804 400.75L392.8179 400.75ZM395.8179 400.75L395.8179 394.53125L396.7554 394.53125L396.7554 395.40625Q397.4429 394.39062 398.73978 394.39062Q399.30228 394.39062 399.77103 394.59375Q400.2554 394.79688 400.48978 395.125Q400.72415 395.45312 400.8179 395.89062Q400.86478 396.1875 400.86478 396.92188L400.86478 400.75L399.8179 400.75L399.8179 396.96875Q399.8179 396.3125 399.6929 396.0Q399.5679 395.6875 399.2554 395.5Q398.9429 395.29688 398.52103 395.29688Q397.84915 395.29688 397.34915 395.73438Q396.86478 396.15625 396.86478 397.34375L396.86478 400.75L395.8179 400.75ZM407.0679 398.75L408.16165 398.875Q407.91165 399.82812 407.20853 400.35938Q406.5054 400.89062 405.42728 400.89062Q404.0679 400.89062 403.2554 400.04688Q402.45853 399.20312 402.45853 397.6875Q402.45853 396.125 403.27103 395.26562Q404.08353 394.39062 405.36478 394.39062Q406.61478 394.39062 407.39603 395.23438Q408.1929 396.07812 408.1929 397.625Q408.1929 397.71875 408.1929 397.90625L403.55228 397.90625Q403.61478 398.9375 404.1304 399.48438Q404.64603 400.01562 405.42728 400.01562Q406.0054 400.01562 406.41165 399.71875Q406.83353 399.40625 407.0679 398.75ZM403.61478 397.04688L407.08353 397.04688Q407.02103 396.25 406.6929 395.85938Q406.17728 395.25 405.3804 395.25Q404.64603 395.25 404.14603 395.73438Q403.66165 396.21875 403.61478 397.04688ZM409.39603 398.89062L410.42728 398.73438Q410.52103 399.35938 410.91165 399.6875Q411.3179 400.01562 412.05228 400.01562Q412.77103 400.01562 413.11478 399.73438Q413.47415 399.4375 413.47415 399.03125Q413.47415 398.67188 413.16165 398.46875Q412.9429 398.32812 412.08353 398.10938Q410.92728 397.8125 410.47415 397.60938Q410.03665 397.39062 409.80228 397.01562Q409.5679 396.64062 409.5679 396.17188Q409.5679 395.76562 409.7554 395.40625Q409.9429 395.04688 410.27103 394.8125Q410.52103 394.64062 410.9429 394.51562Q411.36478 394.39062 411.86478 394.39062Q412.58353 394.39062 413.1304 394.60938Q413.6929 394.8125 413.95853 395.17188Q414.22415 395.53125 414.3179 396.125L413.28665 396.26562Q413.22415 395.79688 412.8804 395.53125Q412.55228 395.25 411.92728 395.25Q411.20853 395.25 410.89603 395.5Q410.58353 395.73438 410.58353 396.0625Q410.58353 396.26562 410.70853 396.42188Q410.84915 396.59375 411.11478 396.70312Q411.27103 396.76562 412.05228 396.96875Q413.17728 397.28125 413.61478 397.46875Q414.05228 397.65625 414.30228 398.01562Q414.55228 398.375 414.55228 398.92188Q414.55228 399.45312 414.23978 399.92188Q413.9429 400.375 413.36478 400.64062Q412.78665 400.89062 412.05228 400.89062Q410.83353 400.89062 410.1929 400.39062Q409.5679 399.875 409.39603 398.89062ZM417.5054 403.28125L416.7554 403.28125Q418.5054 400.46875 418.5054 397.64062Q418.5054 396.54688 418.2554 395.45312Q418.05228 394.57812 417.6929 393.76562Q417.45853 393.25 416.7554 392.01562L417.5054 392.01562Q418.59915 393.48438 419.1304 394.96875Q419.58353 396.25 419.58353 397.64062Q419.58353 399.21875 418.97415 400.70312Q418.36478 402.17188 417.5054 403.28125Z" fill-rule="nonzero"/><path fill="#4285f4" d="M524.75 61.416668C524.75 60.864384 525.1977 60.416668 525.75 60.416668L535.75 60.416668C536.3023 60.416668 536.75 60.864384 536.75 61.416668L536.75 71.416664C536.75 71.96895 536.3023 72.416664 535.75 72.416664L525.75 72.416664C525.1977 72.416664 524.75 71.96895 524.75 71.416664Z" fill-rule="nonzero"/><path fill="#1a1a1a" d="M545.09375 67.979164L546.125 67.83854Q546.15625 68.822914 546.4844 69.18229Q546.8125 69.541664 547.40625 69.541664Q547.8281 69.541664 548.1406 69.354164Q548.4531 69.15104 548.5625 68.822914Q548.6875 68.479164 548.6875 67.74479L548.6875 61.822914L549.8125 61.822914L549.8125 67.68229Q549.8125 68.760414 549.5469 69.354164Q549.2969 69.947914 548.7344 70.260414Q548.1719 70.55729 547.40625 70.55729Q546.28125 70.55729 545.6719 69.916664Q545.0781 69.260414 545.09375 67.979164ZM551.15625 67.30729Q551.15625 65.572914 552.1094 64.74479Q552.90625 64.05729 554.0625 64.05729Q555.34375 64.05729 556.15625 64.90104Q556.9844 65.729164 556.9844 67.21354Q556.9844 68.416664 556.625 69.104164Q556.2656 69.791664 555.5625 70.18229Q554.875 70.55729 554.0625 70.55729Q552.7656 70.55729 551.9531 69.729164Q551.15625 68.885414 551.15625 67.30729ZM552.2344 67.30729Q552.2344 68.49479 552.75 69.08854Q553.28125 69.68229 554.0625 69.68229Q554.8594 69.68229 555.375 69.08854Q555.8906 68.49479 555.8906 67.27604Q555.8906 66.11979 555.3594 65.52604Q554.84375 64.93229 554.0625 64.93229Q553.28125 64.93229 552.75 65.52604Q552.2344 66.104164 552.2344 67.30729ZM558.5469 70.416664L558.5469 64.197914L559.4844 64.197914L559.4844 65.072914Q560.1719 64.05729 561.46875 64.05729Q562.03125 64.05729 562.5 64.260414Q562.9844 64.46354 563.21875 64.791664Q563.4531 65.11979 563.5469 65.55729Q563.59375 65.854164 563.59375 66.58854L563.59375 70.416664L562.5469 70.416664L562.5469 66.635414Q562.5469 65.979164 562.4219 65.666664Q562.2969 65.354164 561.9844 65.166664Q561.6719 64.96354 561.25 64.96354Q560.5781 64.96354 560.0781 65.40104Q559.59375 65.822914 559.59375 67.010414L559.59375 70.416664L558.5469 70.416664ZM569.6094 69.65104Q569.0156 70.15104 568.46875 70.354164Q567.9375 70.55729 567.3125 70.55729Q566.28125 70.55729 565.7344 70.05729Q565.1875 69.55729 565.1875 68.77604Q565.1875 68.322914 565.3906 67.947914Q565.59375 67.55729 565.9375 67.33854Q566.28125 67.104164 566.7031 66.99479Q567.0 66.90104 567.6406 66.822914Q568.90625 66.68229 569.5156 66.46354Q569.5156 66.24479 569.5156 66.197914Q569.5156 65.541664 569.21875 65.27604Q568.8125 64.93229 568.0156 64.93229Q567.28125 64.93229 566.9219 65.197914Q566.5625 65.447914 566.3906 66.104164L565.3594 65.96354Q565.5 65.30729 565.8281 64.90104Q566.15625 64.49479 566.7656 64.27604Q567.375 64.05729 568.1719 64.05729Q568.96875 64.05729 569.46875 64.24479Q569.96875 64.43229 570.2031 64.71354Q570.4375 64.99479 570.53125 65.43229Q570.5781 65.697914 570.5781 66.40104L570.5781 67.80729Q570.5781 69.27604 570.6406 69.666664Q570.71875 70.05729 570.9219 70.416664L569.8125 70.416664Q569.65625 70.08854 569.6094 69.65104ZM569.5156 67.291664Q568.9375 67.52604 567.7969 67.697914Q567.1406 67.791664 566.875 67.916664Q566.6094 68.02604 566.4531 68.24479Q566.3125 68.46354 566.3125 68.74479Q566.3125 69.166664 566.625 69.447914Q566.9531 69.729164 567.5625 69.729164Q568.1719 69.729164 568.6406 69.46354Q569.125 69.197914 569.34375 68.729164Q569.5156 68.36979 569.5156 67.68229L569.5156 67.291664ZM572.125 68.55729L573.15625 68.40104Q573.25 69.02604 573.6406 69.354164Q574.0469 69.68229 574.78125 69.68229Q575.5 69.68229 575.84375 69.40104Q576.2031 69.104164 576.2031 68.697914Q576.2031 68.33854 575.8906 68.135414Q575.6719 67.99479 574.8125 67.77604Q573.65625 67.479164 573.2031 67.27604Q572.7656 67.05729 572.53125 66.68229Q572.2969 66.30729 572.2969 65.83854Q572.2969 65.43229 572.4844 65.072914Q572.6719 64.71354 573.0 64.479164Q573.25 64.30729 573.6719 64.18229Q574.09375 64.05729 574.59375 64.05729Q575.3125 64.05729 575.8594 64.27604Q576.4219 64.479164 576.6875 64.83854Q576.9531 65.197914 577.0469 65.791664L576.0156 65.93229Q575.9531 65.46354 575.6094 65.197914Q575.28125 64.916664 574.65625 64.916664Q573.9375 64.916664 573.625 65.166664Q573.3125 65.40104 573.3125 65.729164Q573.3125 65.93229 573.4375 66.08854Q573.5781 66.260414 573.84375 66.36979Q574.0 66.43229 574.78125 66.635414Q575.90625 66.947914 576.34375 67.135414Q576.78125 67.322914 577.03125 67.68229Q577.28125 68.041664 577.28125 68.58854Q577.28125 69.11979 576.96875 69.58854Q576.6719 70.041664 576.09375 70.30729Q575.5156 70.55729 574.78125 70.55729Q573.5625 70.55729 572.9219 70.05729Q572.2969 69.541664 572.125 68.55729Z" fill-rule="nonzero"/><path fill="#ea4335" d="M524.75 85.416664C524.75 84.86438 525.1977 84.416664 525.75 84.416664L535.75 84.416664C536.3023 84.416664 536.75 84.86438 536.75 85.416664L536.75 95.416664C536.75 95.96895 536.3023 96.416664 535.75 96.416664L525.75 96.416664C525.1977 96.416664 524.75 95.96895 524.75 95.416664Z" fill-rule="nonzero"/><path fill="#1a1a1a" d="M547.8594 94.416664L547.8594 86.83854L545.03125 86.83854L545.03125 85.822914L551.84375 85.822914L551.84375 86.83854L549.0 86.83854L549.0 94.416664L547.8594 94.416664ZM552.5469 94.416664L552.5469 85.822914L553.59375 85.822914L553.59375 88.90104Q554.3281 88.05729 555.4531 88.05729Q556.15625 88.05729 556.65625 88.33854Q557.1719 88.604164 557.3906 89.08854Q557.6094 89.55729 557.6094 90.479164L557.6094 94.416664L556.5625 94.416664L556.5625 90.479164Q556.5625 89.68229 556.21875 89.322914Q555.875 88.96354 555.25 88.96354Q554.78125 88.96354 554.3594 89.21354Q553.9531 89.447914 553.7656 89.86979Q553.59375 90.27604 553.59375 91.010414L553.59375 94.416664L552.5469 94.416664ZM559.15625 91.30729Q559.15625 89.572914 560.1094 88.74479Q560.90625 88.05729 562.0625 88.05729Q563.34375 88.05729 564.15625 88.90104Q564.9844 89.729164 564.9844 91.21354Q564.9844 92.416664 564.625 93.104164Q564.2656 93.791664 563.5625 94.18229Q562.875 94.55729 562.0625 94.55729Q560.7656 94.55729 559.9531 93.729164Q559.15625 92.885414 559.15625 91.30729ZM560.2344 91.30729Q560.2344 92.49479 560.75 93.08854Q561.28125 93.68229 562.0625 93.68229Q562.8594 93.68229 563.375 93.08854Q563.8906 92.49479 563.8906 91.27604Q563.8906 90.11979 563.3594 89.52604Q562.84375 88.93229 562.0625 88.93229Q561.28125 88.93229 560.75 89.52604Q560.2344 90.104164 560.2344 91.30729ZM566.5469 94.416664L566.5469 88.197914L567.4844 88.197914L567.4844 89.072914Q567.78125 88.604164 568.2656 88.33854Q568.75 88.05729 569.375 88.05729Q570.0625 88.05729 570.5 88.33854Q570.9531 88.61979 571.125 89.135414Q571.875 88.05729 573.0469 88.05729Q573.9844 88.05729 574.46875 88.572914Q574.96875 89.072914 574.96875 90.15104L574.96875 94.416664L573.9219 94.416664L573.9219 90.49479Q573.9219 89.86979 573.8125 89.58854Q573.71875 89.30729 573.4531 89.135414Q573.1875 88.96354 572.8125 88.96354Q572.15625 88.96354 571.71875 89.40104Q571.2969 89.83854 571.2969 90.80729L571.2969 94.416664L570.2344 94.416664L570.2344 90.36979Q570.2344 89.666664 569.96875 89.322914Q569.71875 88.96354 569.1406 88.96354Q568.6875 88.96354 568.3125 89.197914Q567.9375 89.43229 567.7656 89.885414Q567.59375 90.33854 567.59375 91.18229L567.59375 94.416664L566.5469 94.416664ZM581.6094 93.65104Q581.0156 94.15104 580.46875 94.354164Q579.9375 94.55729 579.3125 94.55729Q578.28125 94.55729 577.7344 94.05729Q577.1875 93.55729 577.1875 92.77604Q577.1875 92.322914 577.3906 91.947914Q577.59375 91.55729 577.9375 91.33854Q578.28125 91.104164 578.7031 90.99479Q579.0 90.90104 579.6406 90.822914Q580.90625 90.68229 581.5156 90.46354Q581.5156 90.24479 581.5156 90.197914Q581.5156 89.541664 581.21875 89.27604Q580.8125 88.93229 580.0156 88.93229Q579.28125 88.93229 578.9219 89.197914Q578.5625 89.447914 578.3906 90.104164L577.3594 89.96354Q577.5 89.30729 577.8281 88.90104Q578.15625 88.49479 578.7656 88.27604Q579.375 88.05729 580.1719 88.05729Q580.96875 88.05729 581.46875 88.24479Q581.96875 88.43229 582.2031 88.71354Q582.4375 88.99479 582.53125 89.43229Q582.5781 89.697914 582.5781 90.40104L582.5781 91.80729Q582.5781 93.27604 582.6406 93.666664Q582.71875 94.05729 582.9219 94.416664L581.8125 94.416664Q581.65625 94.08854 581.6094 93.65104ZM581.5156 91.291664Q580.9375 91.52604 579.7969 91.697914Q579.1406 91.791664 578.875 91.916664Q578.6094 92.02604 578.4531 92.24479Q578.3125 92.46354 578.3125 92.74479Q578.3125 93.166664 578.625 93.447914Q578.9531 93.729164 579.5625 93.729164Q580.1719 93.729164 580.6406 93.46354Q581.125 93.197914 581.34375 92.729164Q581.5156 92.36979 581.5156 91.68229L581.5156 91.291664ZM584.125 92.55729L585.15625 92.40104Q585.25 93.02604 585.6406 93.354164Q586.0469 93.68229 586.78125 93.68229Q587.5 93.68229 587.84375 93.40104Q588.2031 93.104164 588.2031 92.697914Q588.2031 92.33854 587.8906 92.135414Q587.6719 91.99479 586.8125 91.77604Q585.65625 91.479164 585.2031 91.27604Q584.7656 91.05729 584.53125 90.68229Q584.2969 90.30729 584.2969 89.83854Q584.2969 89.43229 584.4844 89.072914Q584.6719 88.71354 585.0 88.479164Q585.25 88.30729 585.6719 88.18229Q586.09375 88.05729 586.59375 88.05729Q587.3125 88.05729 587.8594 88.27604Q588.4219 88.479164 588.6875 88.83854Q588.9531 89.197914 589.0469 89.791664L588.0156 89.93229Q587.9531 89.46354 587.6094 89.197914Q587.28125 88.916664 586.65625 88.916664Q585.9375 88.916664 585.625 89.166664Q585.3125 89.40104 585.3125 89.729164Q585.3125 89.93229 585.4375 90.08854Q585.5781 90.260414 585.84375 90.36979Q586.0 90.43229 586.78125 90.635414Q587.90625 90.947914 588.34375 91.135414Q588.78125 91.322914 589.03125 91.68229Q589.28125 92.041664 589.28125 92.58854Q589.28125 93.11979 588.96875 93.58854Q588.6719 94.041664 588.09375 94.30729Q587.5156 94.55729 586.78125 94.55729Q585.5625 94.55729 584.9219 94.05729Q584.2969 93.541664 584.125 92.55729Z" fill-rule="nonzero"/><path fill="#fbbc04" d="M524.75 109.416664C524.75 108.86438 525.1977 108.416664 525.75 108.416664L535.75 108.416664C536.3023 108.416664 536.75 108.86438 536.75 109.416664L536.75 119.416664C536.75 119.96895 536.3023 120.416664 535.75 120.416664L525.75 120.416664C525.1977 120.416664 524.75 119.96895 524.75 119.416664Z" fill-rule="nonzero"/><path fill="#1a1a1a" d="M545.7031 118.416664L545.7031 109.822914L551.90625 109.822914L551.90625 110.83854L546.84375 110.83854L546.84375 113.46354L551.59375 113.46354L551.59375 114.479164L546.84375 114.479164L546.84375 117.40104L552.1094 117.40104L552.1094 118.416664L545.7031 118.416664ZM553.5469 118.416664L553.5469 112.197914L554.4844 112.197914L554.4844 113.072914Q554.78125 112.604164 555.2656 112.33854Q555.75 112.05729 556.375 112.05729Q557.0625 112.05729 557.5 112.33854Q557.9531 112.61979 558.125 113.135414Q558.875 112.05729 560.0469 112.05729Q560.9844 112.05729 561.46875 112.572914Q561.96875 113.072914 561.96875 114.15104L561.96875 118.416664L560.9219 118.416664L560.9219 114.49479Q560.9219 113.86979 560.8125 113.58854Q560.71875 113.30729 560.4531 113.135414Q560.1875 112.96354 559.8125 112.96354Q559.15625 112.96354 558.71875 113.40104Q558.2969 113.83854 558.2969 114.80729L558.2969 118.416664L557.2344 118.416664L557.2344 114.36979Q557.2344 113.666664 556.96875 113.322914Q556.71875 112.96354 556.1406 112.96354Q555.6875 112.96354 555.3125 113.197914Q554.9375 113.43229 554.7656 113.885414Q554.59375 114.33854 554.59375 115.18229L554.59375 118.416664L553.5469 118.416664ZM564.5469 111.041664L564.5469 109.822914L565.6094 109.822914L565.6094 111.041664L564.5469 111.041664ZM564.5469 118.416664L564.5469 112.197914L565.6094 112.197914L565.6094 118.416664L564.5469 118.416664ZM567.5156 118.416664L567.5156 109.822914L568.5781 109.822914L568.5781 118.416664L567.5156 118.416664Z" fill-rule="nonzero"/><path fill="#34a853" d="M524.75 133.41667C524.75 132.86438 525.1977 132.41667 525.75 132.41667L535.75 132.41667C536.3023 132.41667 536.75 132.86438 536.75 133.41667L536.75 143.41667C536.75 143.96895 536.3023 144.41667 535.75 144.41667L525.75 144.41667C525.1977 144.41667 524.75 143.96895 524.75 143.41667Z" fill-rule="nonzero"/><path fill="#1a1a1a" d="M545.625 142.41667L545.625 133.82292L546.7656 133.82292L546.7656 138.08855L551.03125 133.82292L552.5781 133.82292L548.96875 137.3073L552.7344 142.41667L551.2344 142.41667L548.1719 138.07292L546.7656 139.4323L546.7656 142.41667L545.625 142.41667ZM553.53125 142.41667L553.53125 136.19792L554.4844 136.19792L554.4844 137.13542Q554.84375 136.47917 555.1406 136.27605Q555.4531 136.0573 555.8281 136.0573Q556.3594 136.0573 556.90625 136.38542L556.5469 137.3698Q556.15625 137.13542 555.78125 137.13542Q555.4219 137.13542 555.1406 137.35417Q554.875 137.5573 554.7656 137.9323Q554.5781 138.4948 554.5781 139.15105L554.5781 142.41667L553.53125 142.41667ZM557.5469 135.04167L557.5469 133.82292L558.6094 133.82292L558.6094 135.04167L557.5469 135.04167ZM557.5469 142.41667L557.5469 136.19792L558.6094 136.19792L558.6094 142.41667L557.5469 142.41667ZM560.125 140.5573L561.15625 140.40105Q561.25 141.02605 561.6406 141.35417Q562.0469 141.6823 562.78125 141.6823Q563.5 141.6823 563.84375 141.40105Q564.2031 141.10417 564.2031 140.69792Q564.2031 140.33855 563.8906 140.13542Q563.6719 139.9948 562.8125 139.77605Q561.65625 139.47917 561.2031 139.27605Q560.7656 139.0573 560.53125 138.6823Q560.2969 138.3073 560.2969 137.83855Q560.2969 137.4323 560.4844 137.07292Q560.6719 136.71355 561.0 136.47917Q561.25 136.3073 561.6719 136.1823Q562.09375 136.0573 562.59375 136.0573Q563.3125 136.0573 563.8594 136.27605Q564.4219 136.47917 564.6875 136.83855Q564.9531 137.19792 565.0469 137.79167L564.0156 137.9323Q563.9531 137.46355 563.6094 137.19792Q563.28125 136.91667 562.65625 136.91667Q561.9375 136.91667 561.625 137.16667Q561.3125 137.40105 561.3125 137.72917Q561.3125 137.9323 561.4375 138.08855Q561.5781 138.26042 561.84375 138.3698Q562.0 138.4323 562.78125 138.63542Q563.90625 138.94792 564.34375 139.13542Q564.78125 139.32292 565.03125 139.6823Q565.28125 140.04167 565.28125 140.58855Q565.28125 141.1198 564.96875 141.58855Q564.6719 142.04167 564.09375 142.3073Q563.5156 142.5573 562.78125 142.5573Q561.5625 142.5573 560.9219 142.0573Q560.2969 141.54167 560.125 140.5573ZM569.84375 141.47917L570.0 142.40105Q569.5469 142.4948 569.2031 142.4948Q568.625 142.4948 568.3125 142.32292Q568.0 142.13542 567.8594 141.83855Q567.7344 141.54167 567.7344 140.58855L567.7344 137.01042L566.96875 137.01042L566.96875 136.19792L567.7344 136.19792L567.7344 134.65105L568.78125 134.02605L568.78125 136.19792L569.84375 136.19792L569.84375 137.01042L568.78125 137.01042L568.78125 140.65105Q568.78125 141.10417 568.8281 141.22917Q568.8906 141.35417 569.0156 141.4323Q569.1406 141.51042 569.375 141.51042Q569.5625 141.51042 569.84375 141.47917ZM570.15625 139.3073Q570.15625 137.57292 571.1094 136.7448Q571.90625 136.0573 573.0625 136.0573Q574.34375 136.0573 575.15625 136.90105Q575.9844 137.72917 575.9844 139.21355Q575.9844 140.41667 575.625 141.10417Q575.2656 141.79167 574.5625 142.1823Q573.875 142.5573 573.0625 142.5573Q571.7656 142.5573 570.9531 141.72917Q570.15625 140.88542 570.15625 139.3073ZM571.2344 139.3073Q571.2344 140.4948 571.75 141.08855Q572.28125 141.6823 573.0625 141.6823Q573.8594 141.6823 574.375 141.08855Q574.8906 140.4948 574.8906 139.27605Q574.8906 138.1198 574.3594 137.52605Q573.84375 136.9323 573.0625 136.9323Q572.28125 136.9323 571.75 137.52605Q571.2344 138.10417 571.2344 139.3073ZM577.7969 142.41667L577.7969 137.01042L576.8594 137.01042L576.8594 136.19792L577.7969 136.19792L577.7969 135.52605Q577.7969 134.90105 577.90625 134.60417Q578.0625 134.1823 578.4375 133.9323Q578.8281 133.6823 579.5156 133.6823Q579.96875 133.6823 580.5 133.79167L580.34375 134.69792Q580.0156 134.65105 579.71875 134.65105Q579.2344 134.65105 579.03125 134.85417Q578.84375 135.0573 578.84375 135.6198L578.84375 136.19792L580.0625 136.19792L580.0625 137.01042L578.84375 137.01042L578.84375 142.41667L577.7969 142.41667ZM580.7969 142.41667L580.7969 137.01042L579.8594 137.01042L579.8594 136.19792L580.7969 136.19792L580.7969 135.52605Q580.7969 134.90105 580.90625 134.60417Q581.0625 134.1823 581.4375 133.9323Q581.8281 133.6823 582.5156 133.6823Q582.96875 133.6823 583.5 133.79167L583.34375 134.69792Q583.0156 134.65105 582.71875 134.65105Q582.2344 134.65105 582.03125 134.85417Q581.84375 135.0573 581.84375 135.6198L581.84375 136.19792L583.0625 136.19792L583.0625 137.01042L581.84375 137.01042L581.84375 142.41667L580.7969 142.41667ZM587.7969 140.41667L588.8906 140.54167Q588.6406 141.4948 587.9375 142.02605Q587.2344 142.5573 586.15625 142.5573Q584.7969 142.5573 583.9844 141.71355Q583.1875 140.8698 583.1875 139.35417Q583.1875 137.79167 584.0 136.9323Q584.8125 136.0573 586.09375 136.0573Q587.34375 136.0573 588.125 136.90105Q588.9219 137.7448 588.9219 139.29167Q588.9219 139.38542 588.9219 139.57292L584.28125 139.57292Q584.34375 140.60417 584.8594 141.15105Q585.375 141.6823 586.15625 141.6823Q586.7344 141.6823 587.1406 141.38542Q587.5625 141.07292 587.7969 140.41667ZM584.34375 138.71355L587.8125 138.71355Q587.75 137.91667 587.4219 137.52605Q586.90625 136.91667 586.1094 136.91667Q585.375 136.91667 584.875 137.40105Q584.3906 137.88542 584.34375 138.71355ZM590.53125 142.41667L590.53125 136.19792L591.4844 136.19792L591.4844 137.13542Q591.84375 136.47917 592.1406 136.27605Q592.4531 136.0573 592.8281 136.0573Q593.3594 136.0573 593.90625 136.38542L593.5469 137.3698Q593.15625 137.13542 592.78125 137.13542Q592.4219 137.13542 592.1406 137.35417Q591.875 137.5573 591.7656 137.9323Q591.5781 138.4948 591.5781 139.15105L591.5781 142.41667L590.53125 142.41667Z" fill-rule="nonzero"/><path fill="#ff6d01" d="M524.75 157.41667C524.75 156.86438 525.1977 156.41667 525.75 156.41667L535.75 156.41667C536.3023 156.41667 536.75 156.86438 536.75 157.41667L536.75 167.41667C536.75 167.96895 536.3023 168.41667 535.75 168.41667L525.75 168.41667C525.1977 168.41667 524.75 167.96895 524.75 167.41667Z" fill-rule="nonzero"/><path fill="#1a1a1a" d="M545.6406 166.41667L545.6406 157.82292L547.3594 157.82292L549.3906 163.90105Q549.6719 164.76042 549.7969 165.1823Q549.9375 164.71355 550.25 163.8073L552.3125 157.82292L553.84375 157.82292L553.84375 166.41667L552.75 166.41667L552.75 159.22917L550.25 166.41667L549.21875 166.41667L546.7344 159.10417L546.7344 166.41667L545.6406 166.41667ZM554.5469 159.04167L554.5469 157.82292L555.6094 157.82292L555.6094 159.04167L554.5469 159.04167ZM554.5469 166.41667L554.5469 160.19792L555.6094 160.19792L555.6094 166.41667L554.5469 166.41667ZM557.53125 166.41667L557.53125 160.19792L558.4844 160.19792L558.4844 161.13542Q558.84375 160.47917 559.1406 160.27605Q559.4531 160.0573 559.8281 160.0573Q560.3594 160.0573 560.90625 160.38542L560.5469 161.3698Q560.15625 161.13542 559.78125 161.13542Q559.4219 161.13542 559.1406 161.35417Q558.875 161.5573 558.7656 161.9323Q558.5781 162.4948 558.5781 163.15105L558.5781 166.41667L557.53125 166.41667ZM565.6094 164.13542L566.6406 164.27605Q566.46875 165.33855 565.7656 165.94792Q565.0625 166.5573 564.0469 166.5573Q562.7656 166.5573 561.9844 165.72917Q561.21875 164.88542 561.21875 163.32292Q561.21875 162.32292 561.5469 161.57292Q561.8906 160.8073 562.5625 160.4323Q563.25 160.0573 564.0625 160.0573Q565.0625 160.0573 565.7031 160.57292Q566.3594 161.07292 566.5469 162.02605L565.5156 162.1823Q565.375 161.5573 565.0 161.2448Q564.625 160.91667 564.09375 160.91667Q563.2969 160.91667 562.7969 161.4948Q562.2969 162.0573 562.2969 163.29167Q562.2969 164.5573 562.78125 165.1198Q563.2656 165.6823 564.03125 165.6823Q564.65625 165.6823 565.0625 165.3073Q565.4844 164.9323 565.6094 164.13542ZM571.7969 164.41667L572.8906 164.54167Q572.6406 165.4948 571.9375 166.02605Q571.2344 166.5573 570.15625 166.5573Q568.7969 166.5573 567.9844 165.71355Q567.1875 164.8698 567.1875 163.35417Q567.1875 161.79167 568.0 160.9323Q568.8125 160.0573 570.09375 160.0573Q571.34375 160.0573 572.125 160.90105Q572.9219 161.7448 572.9219 163.29167Q572.9219 163.38542 572.9219 163.57292L568.28125 163.57292Q568.34375 164.60417 568.8594 165.15105Q569.375 165.6823 570.15625 165.6823Q570.7344 165.6823 571.1406 165.38542Q571.5625 165.07292 571.7969 164.41667ZM568.34375 162.71355L571.8125 162.71355Q571.75 161.91667 571.4219 161.52605Q570.90625 160.91667 570.1094 160.91667Q569.375 160.91667 568.875 161.40105Q568.3906 161.88542 568.34375 162.71355ZM578.6094 165.65105Q578.0156 166.15105 577.46875 166.35417Q576.9375 166.5573 576.3125 166.5573Q575.28125 166.5573 574.7344 166.0573Q574.1875 165.5573 574.1875 164.77605Q574.1875 164.32292 574.3906 163.94792Q574.59375 163.5573 574.9375 163.33855Q575.28125 163.10417 575.7031 162.9948Q576.0 162.90105 576.6406 162.82292Q577.90625 162.6823 578.5156 162.46355Q578.5156 162.2448 578.5156 162.19792Q578.5156 161.54167 578.21875 161.27605Q577.8125 160.9323 577.0156 160.9323Q576.28125 160.9323 575.9219 161.19792Q575.5625 161.44792 575.3906 162.10417L574.3594 161.96355Q574.5 161.3073 574.8281 160.90105Q575.15625 160.4948 575.7656 160.27605Q576.375 160.0573 577.1719 160.0573Q577.96875 160.0573 578.46875 160.2448Q578.96875 160.4323 579.2031 160.71355Q579.4375 160.9948 579.53125 161.4323Q579.5781 161.69792 579.5781 162.40105L579.5781 163.8073Q579.5781 165.27605 579.6406 165.66667Q579.71875 166.0573 579.9219 166.41667L578.8125 166.41667Q578.65625 166.08855 578.6094 165.65105ZM578.5156 163.29167Q577.9375 163.52605 576.7969 163.69792Q576.1406 163.79167 575.875 163.91667Q575.6094 164.02605 575.4531 164.2448Q575.3125 164.46355 575.3125 164.7448Q575.3125 165.16667 575.625 165.44792Q575.9531 165.72917 576.5625 165.72917Q577.1719 165.72917 577.6406 165.46355Q578.125 165.19792 578.34375 164.72917Q578.5156 164.3698 578.5156 163.6823L578.5156 163.29167Z" fill-rule="nonzero"/><path fill="#46bdc6" d="M524.75 181.41667C524.75 180.86438 525.1977 180.41667 525.75 180.41667L535.75 180.41667C536.3023 180.41667 536.75 180.86438 536.75 181.41667L536.75 191.41667C536.75 191.96895 536.3023 192.41667 535.75 192.41667L525.75 192.41667C525.1977 192.41667 524.75 191.96895 524.75 191.41667Z" fill-rule="nonzero"/><path fill="#1a1a1a" d="M545.3281 186.22917Q545.3281 184.08855 546.46875 182.88542Q547.625 181.66667 549.4375 181.66667Q550.6406 181.66667 551.59375 182.2448Q552.5469 182.8073 553.0469 183.82292Q553.5469 184.83855 553.5469 186.13542Q553.5469 187.4323 553.0156 188.46355Q552.4844 189.4948 551.5156 190.02605Q550.5625 190.5573 549.4375 190.5573Q548.21875 190.5573 547.2656 189.97917Q546.3125 189.38542 545.8125 188.38542Q545.3281 187.3698 545.3281 186.22917ZM546.5 186.2448Q546.5 187.8073 547.3281 188.69792Q548.1719 189.58855 549.4375 189.58855Q550.71875 189.58855 551.5469 188.69792Q552.375 187.79167 552.375 186.1198Q552.375 185.07292 552.0156 184.29167Q551.6719 183.51042 550.9844 183.08855Q550.2969 182.65105 549.4531 182.65105Q548.25 182.65105 547.375 183.47917Q546.5 184.3073 546.5 186.2448ZM556.84375 189.47917L557.0 190.40105Q556.5469 190.4948 556.2031 190.4948Q555.625 190.4948 555.3125 190.32292Q555.0 190.13542 554.8594 189.83855Q554.7344 189.54167 554.7344 188.58855L554.7344 185.01042L553.96875 185.01042L553.96875 184.19792L554.7344 184.19792L554.7344 182.65105L555.78125 182.02605L555.78125 184.19792L556.84375 184.19792L556.84375 185.01042L555.78125 185.01042L555.78125 188.65105Q555.78125 189.10417 555.8281 189.22917Q555.8906 189.35417 556.0156 189.4323Q556.1406 189.51042 556.375 189.51042Q556.5625 189.51042 556.84375 189.47917ZM557.5469 190.41667L557.5469 181.82292L558.59375 181.82292L558.59375 184.90105Q559.3281 184.0573 560.4531 184.0573Q561.15625 184.0573 561.65625 184.33855Q562.1719 184.60417 562.3906 185.08855Q562.6094 185.5573 562.6094 186.47917L562.6094 190.41667L561.5625 190.41667L561.5625 186.47917Q561.5625 185.6823 561.21875 185.32292Q560.875 184.96355 560.25 184.96355Q559.78125 184.96355 559.3594 185.21355Q558.9531 185.44792 558.7656 185.8698Q558.59375 186.27605 558.59375 187.01042L558.59375 190.41667L557.5469 190.41667ZM568.7969 188.41667L569.8906 188.54167Q569.6406 189.4948 568.9375 190.02605Q568.2344 190.5573 567.15625 190.5573Q565.7969 190.5573 564.9844 189.71355Q564.1875 188.8698 564.1875 187.35417Q564.1875 185.79167 565.0 184.9323Q565.8125 184.0573 567.09375 184.0573Q568.34375 184.0573 569.125 184.90105Q569.9219 185.7448 569.9219 187.29167Q569.9219 187.38542 569.9219 187.57292L565.28125 187.57292Q565.34375 188.60417 565.8594 189.15105Q566.375 189.6823 567.15625 189.6823Q567.7344 189.6823 568.1406 189.38542Q568.5625 189.07292 568.7969 188.41667ZM565.34375 186.71355L568.8125 186.71355Q568.75 185.91667 568.4219 185.52605Q567.90625 184.91667 567.1094 184.91667Q566.375 184.91667 565.875 185.40105Q565.3906 185.88542 565.34375 186.71355ZM571.53125 190.41667L571.53125 184.19792L572.4844 184.19792L572.4844 185.13542Q572.84375 184.47917 573.1406 184.27605Q573.4531 184.0573 573.8281 184.0573Q574.3594 184.0573 574.90625 184.38542L574.5469 185.3698Q574.15625 185.13542 573.78125 185.13542Q573.4219 185.13542 573.1406 185.35417Q572.875 185.5573 572.7656 185.9323Q572.5781 186.4948 572.5781 187.15105L572.5781 190.41667L571.53125 190.41667ZM575.125 188.5573L576.15625 188.40105Q576.25 189.02605 576.6406 189.35417Q577.0469 189.6823 577.78125 189.6823Q578.5 189.6823 578.84375 189.40105Q579.2031 189.10417 579.2031 188.69792Q579.2031 188.33855 578.8906 188.13542Q578.6719 187.9948 577.8125 187.77605Q576.65625 187.47917 576.2031 187.27605Q575.7656 187.0573 575.53125 186.6823Q575.2969 186.3073 575.2969 185.83855Q575.2969 185.4323 575.4844 185.07292Q575.6719 184.71355 576.0 184.47917Q576.25 184.3073 576.6719 184.1823Q577.09375 184.0573 577.59375 184.0573Q578.3125 184.0573 578.8594 184.27605Q579.4219 184.47917 579.6875 184.83855Q579.9531 185.19792 580.0469 185.79167L579.0156 185.9323Q578.9531 185.46355 578.6094 185.19792Q578.28125 184.91667 577.65625 184.91667Q576.9375 184.91667 576.625 185.16667Q576.3125 185.40105 576.3125 185.72917Q576.3125 185.9323 576.4375 186.08855Q576.5781 186.26042 576.84375 186.3698Q577.0 186.4323 577.78125 186.63542Q578.90625 186.94792 579.34375 187.13542Q579.78125 187.32292 580.03125 187.6823Q580.28125 188.04167 580.28125 188.58855Q580.28125 189.1198 579.96875 189.58855Q579.6719 190.04167 579.09375 190.3073Q578.5156 190.5573 577.78125 190.5573Q576.5625 190.5573 575.9219 190.0573Q575.2969 189.54167 575.125 188.5573Z" fill-rule="nonzero"/><path fill="#757575" d="M33.015625 35.234375L34.90625 35.703125Q34.3125 38.046875 32.765625 39.28125Q31.21875 40.5 28.96875 40.5Q26.65625 40.5 25.203125 39.5625Q23.765625 38.609375 23.0 36.828125Q22.25 35.03125 22.25 32.984375Q22.25 30.75 23.09375 29.09375Q23.953125 27.421875 25.53125 26.5625Q27.109375 25.6875 29.0 25.6875Q31.15625 25.6875 32.609375 26.78125Q34.078125 27.875 34.65625 29.859375L32.796875 30.296875Q32.296875 28.734375 31.34375 28.03125Q30.40625 27.3125 28.96875 27.3125Q27.3125 27.3125 26.203125 28.109375Q25.09375 28.890625 24.640625 30.234375Q24.203125 31.5625 24.203125 32.96875Q24.203125 34.796875 24.734375 36.171875Q25.265625 37.53125 26.390625 38.203125Q27.515625 38.875 28.8125 38.875Q30.40625 38.875 31.515625 37.953125Q32.625 37.03125 33.015625 35.234375ZM43.359375 40.25L43.359375 38.71875Q42.15625 40.484375 40.078125 40.484375Q39.15625 40.484375 38.359375 40.140625Q37.5625 39.78125 37.171875 39.25Q36.796875 38.71875 36.640625 37.9375Q36.53125 37.421875 36.53125 36.296875L36.53125 29.875L38.28125 29.875L38.28125 35.625Q38.28125 37.0 38.390625 37.484375Q38.5625 38.171875 39.09375 38.578125Q39.640625 38.96875 40.421875 38.96875Q41.21875 38.96875 41.90625 38.5625Q42.609375 38.15625 42.890625 37.46875Q43.1875 36.765625 43.1875 35.4375L43.1875 29.875L44.9375 29.875L44.9375 40.25L43.359375 40.25ZM46.5625 40.25L46.5625 29.875L48.140625 29.875L48.140625 31.328125Q48.625 30.578125 49.4375 30.109375Q50.25 29.640625 51.28125 29.640625Q52.4375 29.640625 53.171875 30.125Q53.90625 30.59375 54.21875 31.453125Q55.453125 29.640625 57.421875 29.640625Q58.96875 29.640625 59.796875 30.5Q60.625 31.359375 60.625 33.125L60.625 40.25L58.875 40.25L58.875 33.71875Q58.875 32.65625 58.703125 32.203125Q58.53125 31.734375 58.078125 31.453125Q57.640625 31.171875 57.03125 31.171875Q55.9375 31.171875 55.203125 31.90625Q54.484375 32.625 54.484375 34.21875L54.484375 40.25L52.734375 40.25L52.734375 33.515625Q52.734375 32.34375 52.296875 31.765625Q51.875 31.171875 50.890625 31.171875Q50.15625 31.171875 49.515625 31.5625Q48.890625 31.953125 48.609375 32.703125Q48.328125 33.453125 48.328125 34.875L48.328125 40.25L46.5625 40.25ZM69.359375 40.25L69.359375 38.71875Q68.15625 40.484375 66.078125 40.484375Q65.15625 40.484375 64.359375 40.140625Q63.5625 39.78125 63.171875 39.25Q62.796875 38.71875 62.640625 37.9375Q62.53125 37.421875 62.53125 36.296875L62.53125 29.875L64.28125 29.875L64.28125 35.625Q64.28125 37.0 64.390625 37.484375Q64.5625 38.171875 65.09375 38.578125Q65.640625 38.96875 66.421875 38.96875Q67.21875 38.96875 67.90625 38.5625Q68.609375 38.15625 68.890625 37.46875Q69.1875 36.765625 69.1875 35.4375L69.1875 29.875L70.9375 29.875L70.9375 40.25L69.359375 40.25ZM72.53125 40.25L72.53125 25.9375L74.28125 25.9375L74.28125 40.25L72.53125 40.25ZM83.34375 38.96875Q82.359375 39.796875 81.453125 40.140625Q80.546875 40.484375 79.515625 40.484375Q77.8125 40.484375 76.890625 39.65625Q75.96875 38.8125 75.96875 37.515625Q75.96875 36.75 76.3125 36.125Q76.671875 35.5 77.234375 35.125Q77.796875 34.734375 78.5 34.53125Q79.015625 34.40625 80.0625 34.265625Q82.1875 34.015625 83.1875 33.671875Q83.203125 33.3125 83.203125 33.203125Q83.203125 32.140625 82.703125 31.6875Q82.03125 31.09375 80.703125 31.09375Q79.453125 31.09375 78.859375 31.53125Q78.28125 31.96875 78.0 33.078125L76.28125 32.84375Q76.515625 31.734375 77.046875 31.0625Q77.578125 30.375 78.59375 30.015625Q79.609375 29.640625 80.953125 29.640625Q82.28125 29.640625 83.109375 29.953125Q83.9375 30.265625 84.328125 30.75Q84.71875 31.21875 84.875 31.9375Q84.96875 32.390625 84.96875 33.5625L84.96875 35.90625Q84.96875 38.359375 85.078125 39.015625Q85.1875 39.65625 85.53125 40.25L83.6875 40.25Q83.421875 39.703125 83.34375 38.96875ZM83.1875 35.046875Q82.234375 35.4375 80.3125 35.703125Q79.234375 35.859375 78.78125 36.0625Q78.34375 36.25 78.09375 36.625Q77.84375 37.0 77.84375 37.46875Q77.84375 38.171875 78.375 38.640625Q78.90625 39.109375 79.9375 39.109375Q80.953125 39.109375 81.734375 38.671875Q82.53125 38.21875 82.90625 37.453125Q83.1875 36.84375 83.1875 35.6875L83.1875 35.046875ZM91.40625 38.671875L91.65625 40.234375Q90.921875 40.390625 90.328125 40.390625Q89.375 40.390625 88.84375 40.09375Q88.328125 39.78125 88.109375 39.296875Q87.890625 38.796875 87.890625 37.21875L87.890625 31.25L86.609375 31.25L86.609375 29.875L87.890625 29.875L87.890625 27.3125L89.640625 26.25L89.640625 29.875L91.40625 29.875L91.40625 31.25L89.640625 31.25L89.640625 37.3125Q89.640625 38.0625 89.734375 38.28125Q89.828125 38.484375 90.03125 38.625Q90.25 38.75 90.640625 38.75Q90.921875 38.75 91.40625 38.671875ZM93.578125 27.953125L93.578125 25.9375L95.34375 25.9375L95.34375 27.953125L93.578125 27.953125ZM93.578125 40.25L93.578125 29.875L95.34375 29.875L95.34375 40.25L93.578125 40.25ZM100.453125 40.25L96.5 29.875L98.359375 29.875L100.59375 36.09375Q100.953125 37.09375 101.25 38.171875Q101.484375 37.359375 101.90625 36.203125L104.203125 29.875L106.015625 29.875L102.09375 40.25L100.453125 40.25ZM113.671875 36.90625L115.484375 37.140625Q115.0625 38.71875 113.890625 39.609375Q112.734375 40.484375 110.921875 40.484375Q108.65625 40.484375 107.3125 39.09375Q105.984375 37.6875 105.984375 35.15625Q105.984375 32.53125 107.328125 31.09375Q108.671875 29.640625 110.828125 29.640625Q112.90625 29.640625 114.21875 31.0625Q115.546875 32.46875 115.546875 35.046875Q115.546875 35.203125 115.53125 35.515625L107.796875 35.515625Q107.890625 37.21875 108.765625 38.125Q109.640625 39.03125 110.9375 39.03125Q111.90625 39.03125 112.578125 38.53125Q113.265625 38.015625 113.671875 36.90625ZM107.890625 34.0625L113.6875 34.0625Q113.578125 32.765625 113.03125 32.109375Q112.1875 31.09375 110.84375 31.09375Q109.640625 31.09375 108.8125 31.90625Q107.984375 32.703125 107.890625 34.0625ZM122.234375 40.25L127.734375 25.9375L129.76562 25.9375L135.625 40.25L122.234375 40.25ZM124.859375 38.5625L132.8125 38.5625L129.71875 30.40625Q129.03125 28.5625 128.70312 27.4375Q128.4375 28.765625 127.9375 30.171875L124.859375 38.5625ZM147.01562 35.234375L148.90625 35.703125Q148.3125 38.046875 146.76562 39.28125Q145.21875 40.5 142.96875 40.5Q140.65625 40.5 139.20312 39.5625Q137.76562 38.609375 137.0 36.828125Q136.25 35.03125 136.25 32.984375Q136.25 30.75 137.09375 29.09375Q137.95312 27.421875 139.53125 26.5625Q141.10938 25.6875 143.0 25.6875Q145.15625 25.6875 146.60938 26.78125Q148.07812 27.875 148.65625 29.859375L146.79688 30.296875Q146.29688 28.734375 145.34375 28.03125Q144.40625 27.3125 142.96875 27.3125Q141.3125 27.3125 140.20312 28.109375Q139.09375 28.890625 138.64062 30.234375Q138.20312 31.5625 138.20312 32.96875Q138.20312 34.796875 138.73438 36.171875Q139.26562 37.53125 140.39062 38.203125Q141.51562 38.875 142.8125 38.875Q144.40625 38.875 145.51562 37.953125Q146.625 37.03125 147.01562 35.234375ZM150.79688 40.25L150.79688 25.9375L155.71875 25.9375Q157.39062 25.9375 158.28125 26.140625Q159.5 26.421875 160.375 27.15625Q161.5 28.125 162.0625 29.609375Q162.625 31.09375 162.625 33.015625Q162.625 34.640625 162.25 35.90625Q161.875 37.15625 161.26562 37.984375Q160.67188 38.8125 159.96875 39.296875Q159.26562 39.765625 158.26562 40.015625Q157.26562 40.25 155.95312 40.25L150.79688 40.25ZM152.6875 38.5625L155.75 38.5625Q157.15625 38.5625 157.95312 38.296875Q158.76562 38.03125 159.25 37.546875Q159.92188 36.875 160.29688 35.75Q160.67188 34.609375 160.67188 32.984375Q160.67188 30.734375 159.9375 29.53125Q159.20312 28.328125 158.14062 27.921875Q157.39062 27.625 155.70312 27.625L152.6875 27.625L152.6875 38.5625ZM173.45312 40.25L169.5 29.875L171.35938 29.875L173.59375 36.09375Q173.95312 37.09375 174.25 38.171875Q174.48438 37.359375 174.90625 36.203125L177.20312 29.875L179.01562 29.875L175.09375 40.25L173.45312 40.25ZM178.85938 37.15625L180.60938 36.875Q180.75 37.921875 181.42188 38.484375Q182.09375 39.03125 183.29688 39.03125Q184.5 39.03125 185.07812 38.546875Q185.67188 38.046875 185.67188 37.390625Q185.67188 36.796875 185.15625 36.453125Q184.79688 36.21875 183.35938 35.859375Q181.42188 35.359375 180.67188 35.015625Q179.9375 34.65625 179.54688 34.03125Q179.15625 33.390625 179.15625 32.625Q179.15625 31.9375 179.46875 31.34375Q179.79688 30.75 180.34375 30.359375Q180.75 30.0625 181.45312 29.859375Q182.17188 29.640625 182.98438 29.640625Q184.20312 29.640625 185.125 30.0Q186.04688 30.34375 186.48438 30.953125Q186.92188 31.546875 187.09375 32.546875L185.375 32.78125Q185.25 31.984375 184.6875 31.546875Q184.125 31.09375 183.10938 31.09375Q181.89062 31.09375 181.375 31.5Q180.85938 31.890625 180.85938 32.421875Q180.85938 32.765625 181.07812 33.046875Q181.28125 33.328125 181.75 33.515625Q182.01562 33.609375 183.29688 33.953125Q185.17188 34.453125 185.90625 34.78125Q186.64062 35.09375 187.0625 35.703125Q187.48438 36.296875 187.48438 37.203125Q187.48438 38.078125 186.96875 38.859375Q186.45312 39.640625 185.48438 40.0625Q184.51562 40.484375 183.29688 40.484375Q181.28125 40.484375 180.21875 39.640625Q179.15625 38.796875 178.85938 37.15625ZM190.0625 40.25L190.0625 38.25L192.0625 38.25L192.0625 40.25L190.0625 40.25ZM201.71875 40.25L201.71875 25.9375L203.60938 25.9375L203.60938 38.5625L210.65625 38.5625L210.65625 40.25L201.71875 40.25ZM211.92188 35.0625Q211.92188 32.1875 213.51562 30.796875Q214.85938 29.640625 216.78125 29.640625Q218.92188 29.640625 220.26562 31.046875Q221.625 32.453125 221.625 34.921875Q221.625 36.921875 221.03125 38.078125Q220.4375 39.21875 219.28125 39.859375Q218.14062 40.484375 216.78125 40.484375Q214.59375 40.484375 213.25 39.09375Q211.92188 37.6875 211.92188 35.0625ZM213.71875 35.0625Q213.71875 37.0625 214.57812 38.046875Q215.45312 39.03125 216.78125 39.03125Q218.09375 39.03125 218.95312 38.046875Q219.82812 37.046875 219.82812 35.0Q219.82812 33.078125 218.95312 32.09375Q218.07812 31.09375 216.78125 31.09375Q215.45312 31.09375 214.57812 32.09375Q213.71875 33.078125 213.71875 35.0625ZM234.01562 35.234375L235.90625 35.703125Q235.3125 38.046875 233.76562 39.28125Q232.21875 40.5 229.96875 40.5Q227.65625 40.5 226.20312 39.5625Q224.76562 38.609375 224.0 36.828125Q223.25 35.03125 223.25 32.984375Q223.25 30.75 224.09375 29.09375Q224.95312 27.421875 226.53125 26.5625Q228.10938 25.6875 230.0 25.6875Q232.15625 25.6875 233.60938 26.78125Q235.07812 27.875 235.65625 29.859375L233.79688 30.296875Q233.29688 28.734375 232.34375 28.03125Q231.40625 27.3125 229.96875 27.3125Q228.3125 27.3125 227.20312 28.109375Q226.09375 28.890625 225.64062 30.234375Q225.20312 31.5625 225.20312 32.96875Q225.20312 34.796875 225.73438 36.171875Q226.26562 37.53125 227.39062 38.203125Q228.51562 38.875 229.8125 38.875Q231.40625 38.875 232.51562 37.953125Q233.625 37.03125 234.01562 35.234375ZM248.01562 35.234375L249.90625 35.703125Q249.3125 38.046875 247.76562 39.28125Q246.21875 40.5 243.96875 40.5Q241.65625 40.5 240.20312 39.5625Q238.76562 38.609375 238.0 36.828125Q237.25 35.03125 237.25 32.984375Q237.25 30.75 238.09375 29.09375Q238.95312 27.421875 240.53125 26.5625Q242.10938 25.6875 244.0 25.6875Q246.15625 25.6875 247.60938 26.78125Q249.07812 27.875 249.65625 29.859375L247.79688 30.296875Q247.29688 28.734375 246.34375 28.03125Q245.40625 27.3125 243.96875 27.3125Q242.3125 27.3125 241.20312 28.109375Q240.09375 28.890625 239.64062 30.234375Q239.20312 31.5625 239.20312 32.96875Q239.20312 34.796875 239.73438 36.171875Q240.26562 37.53125 241.39062 38.203125Q242.51562 38.875 243.8125 38.875Q245.40625 38.875 246.51562 37.953125Q247.625 37.03125 248.01562 35.234375ZM252.03125 40.25L252.03125 38.25L254.03125 38.25L254.03125 40.25Q254.03125 41.359375 253.64062 42.03125Q253.25 42.71875 252.40625 43.078125L251.90625 42.328125Q252.46875 42.09375 252.73438 41.609375Q253.0 41.140625 253.03125 40.25L252.03125 40.25ZM265.1875 40.25L263.5625 40.25L263.5625 25.9375L265.3125 25.9375L265.3125 31.046875Q266.4375 29.640625 268.15625 29.640625Q269.10938 29.640625 269.96875 30.03125Q270.82812 30.421875 271.375 31.125Q271.92188 31.8125 272.23438 32.796875Q272.54688 33.78125 272.54688 34.90625Q272.54688 37.578125 271.23438 39.03125Q269.92188 40.484375 268.07812 40.484375Q266.23438 40.484375 265.1875 38.953125L265.1875 40.25ZM265.17188 34.984375Q265.17188 36.84375 265.67188 37.6875Q266.51562 39.03125 267.92188 39.03125Q269.07812 39.03125 269.90625 38.03125Q270.75 37.03125 270.75 35.046875Q270.75 33.015625 269.9375 32.0625Q269.14062 31.09375 268.0 31.09375Q266.84375 31.09375 266.0 32.09375Q265.17188 33.09375 265.17188 34.984375ZM281.67188 36.90625L283.48438 37.140625Q283.0625 38.71875 281.89062 39.609375Q280.73438 40.484375 278.92188 40.484375Q276.65625 40.484375 275.3125 39.09375Q273.98438 37.6875 273.98438 35.15625Q273.98438 32.53125 275.32812 31.09375Q276.67188 29.640625 278.82812 29.640625Q280.90625 29.640625 282.21875 31.0625Q283.54688 32.46875 283.54688 35.046875Q283.54688 35.203125 283.53125 35.515625L275.79688 35.515625Q275.89062 37.21875 276.76562 38.125Q277.64062 39.03125 278.9375 39.03125Q279.90625 39.03125 280.57812 38.53125Q281.26562 38.015625 281.67188 36.90625ZM275.89062 34.0625L281.6875 34.0625Q281.57812 32.765625 281.03125 32.109375Q280.1875 31.09375 278.84375 31.09375Q277.64062 31.09375 276.8125 31.90625Q275.98438 32.703125 275.89062 34.0625ZM285.98438 40.25L285.98438 31.25L284.4375 31.25L284.4375 29.875L285.98438 29.875L285.98438 28.78125Q285.98438 27.734375 286.17188 27.21875Q286.42188 26.53125 287.0625 26.109375Q287.70312 25.6875 288.85938 25.6875Q289.60938 25.6875 290.5 25.859375L290.23438 27.390625Q289.6875 27.296875 289.20312 27.296875Q288.40625 27.296875 288.0625 27.640625Q287.73438 27.984375 287.73438 28.921875L287.73438 29.875L289.76562 29.875L289.76562 31.25L287.73438 31.25L287.73438 40.25L285.98438 40.25ZM290.92188 35.0625Q290.92188 32.1875 292.51562 30.796875Q293.85938 29.640625 295.78125 29.640625Q297.92188 29.640625 299.26562 31.046875Q300.625 32.453125 300.625 34.921875Q300.625 36.921875 300.03125 38.078125Q299.4375 39.21875 298.28125 39.859375Q297.14062 40.484375 295.78125 40.484375Q293.59375 40.484375 292.25 39.09375Q290.92188 37.6875 290.92188 35.0625ZM292.71875 35.0625Q292.71875 37.0625 293.57812 38.046875Q294.45312 39.03125 295.78125 39.03125Q297.09375 39.03125 297.95312 38.046875Q298.82812 37.046875 298.82812 35.0Q298.82812 33.078125 297.95312 32.09375Q297.07812 31.09375 295.78125 31.09375Q294.45312 31.09375 293.57812 32.09375Q292.71875 33.078125 292.71875 35.0625ZM302.54688 40.25L302.54688 29.875L304.125 29.875L304.125 31.453125Q304.73438 30.34375 305.25 30.0Q305.76562 29.640625 306.375 29.640625Q307.26562 29.640625 308.1875 30.203125L307.57812 31.84375Q306.9375 31.453125 306.29688 31.453125Q305.71875 31.453125 305.25 31.8125Q304.79688 32.15625 304.59375 32.765625Q304.3125 33.703125 304.3125 34.8125L304.3125 40.25L302.54688 40.25ZM316.67188 36.90625L318.48438 37.140625Q318.0625 38.71875 316.89062 39.609375Q315.73438 40.484375 313.92188 40.484375Q311.65625 40.484375 310.3125 39.09375Q308.98438 37.6875 308.98438 35.15625Q308.98438 32.53125 310.32812 31.09375Q311.67188 29.640625 313.82812 29.640625Q315.90625 29.640625 317.21875 31.0625Q318.54688 32.46875 318.54688 35.046875Q318.54688 35.203125 318.53125 35.515625L310.79688 35.515625Q310.89062 37.21875 311.76562 38.125Q312.64062 39.03125 313.9375 39.03125Q314.90625 39.03125 315.57812 38.53125Q316.26562 38.015625 316.67188 36.90625ZM310.89062 34.0625L316.6875 34.0625Q316.57812 32.765625 316.03125 32.109375Q315.1875 31.09375 313.84375 31.09375Q312.64062 31.09375 311.8125 31.90625Q310.98438 32.703125 310.89062 34.0625ZM330.40625 38.671875L330.65625 40.234375Q329.92188 40.390625 329.32812 40.390625Q328.375 40.390625 327.84375 40.09375Q327.32812 39.78125 327.10938 39.296875Q326.89062 38.796875 326.89062 37.21875L326.89062 31.25L325.60938 31.25L325.60938 29.875L326.89062 29.875L326.89062 27.3125L328.64062 26.25L328.64062 29.875L330.40625 29.875L330.40625 31.25L328.64062 31.25L328.64062 37.3125Q328.64062 38.0625 328.73438 38.28125Q328.82812 38.484375 329.03125 38.625Q329.25 38.75 329.64062 38.75Q329.92188 38.75 330.40625 38.671875ZM332.5625 40.25L332.5625 25.9375L334.32812 25.9375L334.32812 31.0625Q335.5625 29.640625 337.4375 29.640625Q338.57812 29.640625 339.42188 30.09375Q340.28125 30.546875 340.64062 31.359375Q341.01562 32.15625 341.01562 33.671875L341.01562 40.25L339.26562 40.25L339.26562 33.671875Q339.26562 32.359375 338.6875 31.765625Q338.10938 31.15625 337.07812 31.15625Q336.29688 31.15625 335.59375 31.5625Q334.90625 31.96875 334.60938 32.671875Q334.32812 33.359375 334.32812 34.578125L334.32812 40.25L332.5625 40.25ZM349.67188 36.90625L351.48438 37.140625Q351.0625 38.71875 349.89062 39.609375Q348.73438 40.484375 346.92188 40.484375Q344.65625 40.484375 343.3125 39.09375Q341.98438 37.6875 341.98438 35.15625Q341.98438 32.53125 343.32812 31.09375Q344.67188 29.640625 346.82812 29.640625Q348.90625 29.640625 350.21875 31.0625Q351.54688 32.46875 351.54688 35.046875Q351.54688 35.203125 351.53125 35.515625L343.79688 35.515625Q343.89062 37.21875 344.76562 38.125Q345.64062 39.03125 346.9375 39.03125Q347.90625 39.03125 348.57812 38.53125Q349.26562 38.015625 349.67188 36.90625ZM343.89062 34.0625L349.6875 34.0625Q349.57812 32.765625 349.03125 32.109375Q348.1875 31.09375 346.84375 31.09375Q345.64062 31.09375 344.8125 31.90625Q343.98438 32.703125 343.89062 34.0625ZM352.85938 37.15625L354.60938 36.875Q354.75 37.921875 355.42188 38.484375Q356.09375 39.03125 357.29688 39.03125Q358.5 39.03125 359.07812 38.546875Q359.67188 38.046875 359.67188 37.390625Q359.67188 36.796875 359.15625 36.453125Q358.79688 36.21875 357.35938 35.859375Q355.42188 35.359375 354.67188 35.015625Q353.9375 34.65625 353.54688 34.03125Q353.15625 33.390625 353.15625 32.625Q353.15625 31.9375 353.46875 31.34375Q353.79688 30.75 354.34375 30.359375Q354.75 30.0625 355.45312 29.859375Q356.17188 29.640625 356.98438 29.640625Q358.20312 29.640625 359.125 30.0Q360.04688 30.34375 360.48438 30.953125Q360.92188 31.546875 361.09375 32.546875L359.375 32.78125Q359.25 31.984375 358.6875 31.546875Q358.125 31.09375 357.10938 31.09375Q355.89062 31.09375 355.375 31.5Q354.85938 31.890625 354.85938 32.421875Q354.85938 32.765625 355.07812 33.046875Q355.28125 33.328125 355.75 33.515625Q356.01562 33.609375 357.29688 33.953125Q359.17188 34.453125 359.90625 34.78125Q360.64062 35.09375 361.0625 35.703125Q361.48438 36.296875 361.48438 37.203125Q361.48438 38.078125 360.96875 38.859375Q360.45312 39.640625 359.48438 40.0625Q358.51562 40.484375 357.29688 40.484375Q355.28125 40.484375 354.21875 39.640625Q353.15625 38.796875 352.85938 37.15625ZM363.57812 27.953125L363.57812 25.9375L365.34375 25.9375L365.34375 27.953125L363.57812 27.953125ZM363.57812 40.25L363.57812 29.875L365.34375 29.875L365.34375 40.25L363.57812 40.25ZM366.85938 37.15625L368.60938 36.875Q368.75 37.921875 369.42188 38.484375Q370.09375 39.03125 371.29688 39.03125Q372.5 39.03125 373.07812 38.546875Q373.67188 38.046875 373.67188 37.390625Q373.67188 36.796875 373.15625 36.453125Q372.79688 36.21875 371.35938 35.859375Q369.42188 35.359375 368.67188 35.015625Q367.9375 34.65625 367.54688 34.03125Q367.15625 33.390625 367.15625 32.625Q367.15625 31.9375 367.46875 31.34375Q367.79688 30.75 368.34375 30.359375Q368.75 30.0625 369.45312 29.859375Q370.17188 29.640625 370.98438 29.640625Q372.20312 29.640625 373.125 30.0Q374.04688 30.34375 374.48438 30.953125Q374.92188 31.546875 375.09375 32.546875L373.375 32.78125Q373.25 31.984375 372.6875 31.546875Q372.125 31.09375 371.10938 31.09375Q369.89062 31.09375 369.375 31.5Q368.85938 31.890625 368.85938 32.421875Q368.85938 32.765625 369.07812 33.046875Q369.28125 33.328125 369.75 33.515625Q370.01562 33.609375 371.29688 33.953125Q373.17188 34.453125 373.90625 34.78125Q374.64062 35.09375 375.0625 35.703125Q375.48438 36.296875 375.48438 37.203125Q375.48438 38.078125 374.96875 38.859375Q374.45312 39.640625 373.48438 40.0625Q372.51562 40.484375 371.29688 40.484375Q369.28125 40.484375 368.21875 39.640625Q367.15625 38.796875 366.85938 37.15625Z" fill-rule="nonzero"/></svg>