<svg version="1.1" viewBox="0.0 0.0 615.0 424.0" fill="none" stroke="none" stroke-linecap="square" stroke-miterlimit="10" width="615" height="424" xmlns:xlink="http://www.w3.org/1999/xlink" xmlns="http://www.w3.org/2000/svg"><path fill="#ffffff" d="M0 0L615.0 0L615.0 424.0L0 424.0L0 0Z" fill-rule="nonzero"/><path stroke="#333333" stroke-width="1.0" stroke-linecap="butt" d="M48.5 382.5L501.5 382.5" fill-rule="nonzero"/><path stroke="#cccccc" stroke-width="1.0" stroke-linecap="butt" d="M48.5 277.5L501.5 277.5" fill-rule="nonzero"/><path stroke="#cccccc" stroke-width="1.0" stroke-linecap="butt" d="M48.5 171.5L501.5 171.5" fill-rule="nonzero"/><path stroke="#cccccc" stroke-width="1.0" stroke-linecap="butt" d="M48.5 66.5L501.5 66.5" fill-rule="nonzero"/><clipPath id="id_0"><path d="M48.2 66.333336L501.90222 66.333336L501.90222 382.8L48.2 382.8L48.2 66.333336Z" clip-rule="nonzero"/></clipPath><path stroke="#000000" stroke-width="2.0" stroke-linecap="butt" stroke-opacity="0.0" clip-path="url(#id_0)" d="M136.0 383.0L117.0 383.0L117.0 137.0C117.0 135.89543 117.89543 135.0 119.0 135.0L134.0 135.0C135.10457 135.0 136.0 135.89543 136.0 137.0Z" fill-rule="nonzero"/><path fill="#4285f4" clip-path="url(#id_0)" d="M136.0 383.0L117.0 383.0L117.0 137.0C117.0 135.89543 117.89543 135.0 119.0 135.0L134.0 135.0C135.10457 135.0 136.0 135.89543 136.0 137.0Z" fill-rule="nonzero"/><path stroke="#000000" stroke-width="2.0" stroke-linecap="butt" stroke-opacity="0.0" clip-path="url(#id_0)" d="M329.0 383.0L310.0 383.0L310.0 74.0C310.0 72.89543 310.89542 72.0 312.0 72.0L327.0 72.0C328.10458 72.0 329.0 72.89543 329.0 74.0Z" fill-rule="nonzero"/><path fill="#4285f4" clip-path="url(#id_0)" d="M329.0 383.0L310.0 383.0L310.0 74.0C310.0 72.89543 310.89542 72.0 312.0 72.0L327.0 72.0C328.10458 72.0 329.0 72.89543 329.0 74.0Z" fill-rule="nonzero"/><path stroke="#000000" stroke-width="2.0" stroke-linecap="butt" stroke-opacity="0.0" clip-path="url(#id_0)" d="M157.0 383.0L138.0 383.0L138.0 139.0C138.0 137.89543 138.89543 137.0 140.0 137.0L155.0 137.0C156.10457 137.0 157.0 137.89543 157.0 139.0Z" fill-rule="nonzero"/><path fill="#ea4335" clip-path="url(#id_0)" d="M157.0 383.0L138.0 383.0L138.0 139.0C138.0 137.89543 138.89543 137.0 140.0 137.0L155.0 137.0C156.10457 137.0 157.0 137.89543 157.0 139.0Z" fill-rule="nonzero"/><path stroke="#000000" stroke-width="2.0" stroke-linecap="butt" stroke-opacity="0.0" clip-path="url(#id_0)" d="M350.0 383.0L331.0 383.0L331.0 257.0C331.0 255.89543 331.89542 255.0 333.0 255.0L348.0 255.0C349.10458 255.0 350.0 255.89543 350.0 257.0Z" fill-rule="nonzero"/><path fill="#ea4335" clip-path="url(#id_0)" d="M350.0 383.0L331.0 383.0L331.0 257.0C331.0 255.89543 331.89542 255.0 333.0 255.0L348.0 255.0C349.10458 255.0 350.0 255.89543 350.0 257.0Z" fill-rule="nonzero"/><path stroke="#000000" stroke-width="2.0" stroke-linecap="butt" stroke-opacity="0.0" clip-path="url(#id_0)" d="M178.0 383.0L159.0 383.0L159.0 368.0C159.0 366.89542 159.89543 366.0 161.0 366.0L176.0 366.0C177.10457 366.0 178.0 366.89542 178.0 368.0Z" fill-rule="nonzero"/><path fill="#fbbc04" clip-path="url(#id_0)" d="M178.0 383.0L159.0 383.0L159.0 368.0C159.0 366.89542 159.89543 366.0 161.0 366.0L176.0 366.0C177.10457 366.0 178.0 366.89542 178.0 368.0Z" fill-rule="nonzero"/><path stroke="#000000" stroke-width="2.0" stroke-linecap="butt" stroke-opacity="0.0" clip-path="url(#id_0)" d="M371.0 383.0L352.0 383.0L352.0 332.0C352.0 330.89542 352.89542 330.0 354.0 330.0L369.0 330.0C370.10458 330.0 371.0 330.89542 371.0 332.0Z" fill-rule="nonzero"/><path fill="#fbbc04" clip-path="url(#id_0)" d="M371.0 383.0L352.0 383.0L352.0 332.0C352.0 330.89542 352.89542 330.0 354.0 330.0L369.0 330.0C370.10458 330.0 371.0 330.89542 371.0 332.0Z" fill-rule="nonzero"/><path stroke="#000000" stroke-width="2.0" stroke-linecap="butt" stroke-opacity="0.0" clip-path="url(#id_0)" d="M199.0 383.0L180.0 383.0L180.0 373.0C180.0 371.89542 180.89543 371.0 182.0 371.0L197.0 371.0C198.10457 371.0 199.0 371.89542 199.0 373.0Z" fill-rule="nonzero"/><path fill="#34a853" clip-path="url(#id_0)" d="M199.0 383.0L180.0 383.0L180.0 373.0C180.0 371.89542 180.89543 371.0 182.0 371.0L197.0 371.0C198.10457 371.0 199.0 371.89542 199.0 373.0Z" fill-rule="nonzero"/><path stroke="#000000" stroke-width="2.0" stroke-linecap="butt" stroke-opacity="0.0" clip-path="url(#id_0)" d="M392.0 383.0L373.0 383.0L373.0 375.0C373.0 373.89542 373.89542 373.0 375.0 373.0L390.0 373.0C391.10458 373.0 392.0 373.89542 392.0 375.0Z" fill-rule="nonzero"/><path fill="#34a853" clip-path="url(#id_0)" d="M392.0 383.0L373.0 383.0L373.0 375.0C373.0 373.89542 373.89542 373.0 375.0 373.0L390.0 373.0C391.10458 373.0 392.0 373.89542 392.0 375.0Z" fill-rule="nonzero"/><path stroke="#000000" stroke-width="2.0" stroke-linecap="butt" stroke-opacity="0.0" clip-path="url(#id_0)" d="M220.0 383.0L201.0 383.0L201.0 382.0C201.0 381.44772 201.44771 381.0 202.0 381.0L219.0 381.0C219.55229 381.0 220.0 381.44772 220.0 382.0Z" fill-rule="nonzero"/><path fill="#ff6d01" clip-path="url(#id_0)" d="M220.0 383.0L201.0 383.0L201.0 382.0C201.0 381.44772 201.44771 381.0 202.0 381.0L219.0 381.0C219.55229 381.0 220.0 381.44772 220.0 382.0Z" fill-rule="nonzero"/><path stroke="#000000" stroke-width="2.0" stroke-linecap="butt" stroke-opacity="0.0" clip-path="url(#id_0)" d="M413.0 383.0L394.0 383.0L394.0 363.0C394.0 361.89542 394.89542 361.0 396.0 361.0L411.0 361.0C412.10458 361.0 413.0 361.89542 413.0 363.0Z" fill-rule="nonzero"/><path fill="#ff6d01" clip-path="url(#id_0)" d="M413.0 383.0L394.0 383.0L394.0 363.0C394.0 361.89542 394.89542 361.0 396.0 361.0L411.0 361.0C412.10458 361.0 413.0 361.89542 413.0 363.0Z" fill-rule="nonzero"/><path stroke="#000000" stroke-width="2.0" stroke-linecap="butt" stroke-opacity="0.0" clip-path="url(#id_0)" d="M241.0 383.0L222.0 383.0L222.0 381.5C222.0 380.67157 222.67157 380.0 223.5 380.0L239.5 380.0C240.32843 380.0 241.0 380.67157 241.0 381.5Z" fill-rule="nonzero"/><path fill="#46bdc6" clip-path="url(#id_0)" d="M241.0 383.0L222.0 383.0L222.0 381.5C222.0 380.67157 222.67157 380.0 223.5 380.0L239.5 380.0C240.32843 380.0 241.0 380.67157 241.0 381.5Z" fill-rule="nonzero"/><path stroke="#000000" stroke-width="2.0" stroke-linecap="butt" stroke-opacity="0.0" clip-path="url(#id_0)" d="M434.0 383.0L415.0 383.0L415.0 380.0C415.0 378.89542 415.89542 378.0 417.0 378.0L432.0 378.0C433.10458 378.0 434.0 378.89542 434.0 380.0Z" fill-rule="nonzero"/><path fill="#46bdc6" clip-path="url(#id_0)" d="M434.0 383.0L415.0 383.0L415.0 380.0C415.0 378.89542 415.89542 378.0 417.0 378.0L432.0 378.0C433.10458 378.0 434.0 378.89542 434.0 380.0Z" fill-rule="nonzero"/><path fill="#000000" d="M25.7 382.5656Q25.7 381.03436 26.0125 380.1125Q26.325 379.175 26.934376 378.675Q27.559376 378.175 28.496876 378.175Q29.184376 378.175 29.7 378.45624Q30.23125 378.7375 30.575 379.26874Q30.91875 379.78436 31.10625 380.53436Q31.29375 381.28436 31.29375 382.5656Q31.29375 384.08124 30.98125 385.0031Q30.684376 385.925 30.059376 386.4406Q29.45 386.9406 28.496876 386.9406Q27.2625 386.9406 26.54375 386.05Q25.7 384.9875 25.7 382.5656ZM26.778126 382.5656Q26.778126 384.675 27.278126 385.3781Q27.778126 386.08124 28.496876 386.08124Q29.23125 386.08124 29.715626 385.3781Q30.215626 384.675 30.215626 382.5656Q30.215626 380.4406 29.715626 379.7531Q29.23125 379.05 28.48125 379.05Q27.7625 379.05 27.325 379.65936Q26.778126 380.4406 26.778126 382.5656ZM33.2625 386.8L33.2625 385.59686L34.465626 385.59686L34.465626 386.8Q34.465626 387.45624 34.23125 387.8625Q33.996876 388.28436 33.496876 388.5031L33.2 388.05Q33.528126 387.90936 33.684376 387.6125Q33.840626 387.33124 33.871876 386.8L33.2625 386.8ZM35.7 382.5656Q35.7 381.03436 36.0125 380.1125Q36.325 379.175 36.934376 378.675Q37.559376 378.175 38.496876 378.175Q39.184376 378.175 39.7 378.45624Q40.23125 378.7375 40.575 379.26874Q40.91875 379.78436 41.10625 380.53436Q41.29375 381.28436 41.29375 382.5656Q41.29375 384.08124 40.98125 385.0031Q40.684376 385.925 40.059376 386.4406Q39.45 386.9406 38.496876 386.9406Q37.2625 386.9406 36.54375 386.05Q35.7 384.9875 35.7 382.5656ZM36.778126 382.5656Q36.778126 384.675 37.278126 385.3781Q37.778126 386.08124 38.496876 386.08124Q39.23125 386.08124 39.715626 385.3781Q40.215626 384.675 40.215626 382.5656Q40.215626 380.4406 39.715626 379.7531Q39.23125 379.05 38.48125 379.05Q37.7625 379.05 37.325 379.65936Q36.778126 380.4406 36.778126 382.5656Z" fill-rule="nonzero"/><path fill="#000000" d="M25.7 277.07672Q25.7 275.54547 26.0125 274.6236Q26.325 273.6861 26.934376 273.1861Q27.559376 272.6861 28.496876 272.6861Q29.184376 272.6861 29.7 272.96735Q30.23125 273.2486 30.575 273.77985Q30.91875 274.29547 31.10625 275.04547Q31.29375 275.79547 31.29375 277.07672Q31.29375 278.59235 30.98125 279.51422Q30.684376 280.4361 30.059376 280.95172Q29.45 281.45172 28.496876 281.45172Q27.2625 281.45172 26.54375 280.5611Q25.7 279.4986 25.7 277.07672ZM26.778126 277.07672Q26.778126 279.1861 27.278126 279.88922Q27.778126 280.59235 28.496876 280.59235Q29.23125 280.59235 29.715626 279.88922Q30.215626 279.1861 30.215626 277.07672Q30.215626 274.95172 29.715626 274.26422Q29.23125 273.5611 28.48125 273.5611Q27.7625 273.5611 27.325 274.17047Q26.778126 274.95172 26.778126 277.07672ZM33.2625 281.3111L33.2625 280.10797L34.465626 280.10797L34.465626 281.3111Q34.465626 281.96735 34.23125 282.3736Q33.996876 282.79547 33.496876 283.01422L33.2 282.5611Q33.528126 282.42047 33.684376 282.1236Q33.840626 281.84235 33.871876 281.3111L33.2625 281.3111ZM41.246876 280.29547L41.246876 281.3111L35.559376 281.3111Q35.559376 280.9361 35.684376 280.57672Q35.903126 279.9986 36.371876 279.4361Q36.85625 278.8736 37.7625 278.13922Q39.16875 276.98297 39.653126 276.3111Q40.153126 275.63922 40.153126 275.04547Q40.153126 274.42047 39.7 273.9986Q39.246876 273.5611 38.528126 273.5611Q37.7625 273.5611 37.309376 274.01422Q36.85625 274.46735 36.840626 275.27985L35.7625 275.17047Q35.871876 273.95172 36.590626 273.32672Q37.325 272.6861 38.559376 272.6861Q39.79375 272.6861 40.5125 273.3736Q41.23125 274.0611 41.23125 275.07672Q41.23125 275.59235 41.0125 276.09235Q40.809376 276.57672 40.309376 277.13922Q39.825 277.6861 38.7 278.63922Q37.746876 279.4361 37.465626 279.73297Q37.2 280.01422 37.028126 280.29547L41.246876 280.29547Z" fill-rule="nonzero"/><path fill="#000000" d="M25.7 171.58784Q25.7 170.0566 26.0125 169.13472Q26.325 168.19722 26.934376 167.69722Q27.559376 167.19722 28.496876 167.19722Q29.184376 167.19722 29.7 167.47847Q30.23125 167.75972 30.575 168.29097Q30.91875 168.8066 31.10625 169.5566Q31.29375 170.3066 31.29375 171.58784Q31.29375 173.10347 30.98125 174.02534Q30.684376 174.94722 30.059376 175.46284Q29.45 175.96284 28.496876 175.96284Q27.2625 175.96284 26.54375 175.07222Q25.7 174.00972 25.7 171.58784ZM26.778126 171.58784Q26.778126 173.69722 27.278126 174.40034Q27.778126 175.10347 28.496876 175.10347Q29.23125 175.10347 29.715626 174.40034Q30.215626 173.69722 30.215626 171.58784Q30.215626 169.46284 29.715626 168.77534Q29.23125 168.07222 28.48125 168.07222Q27.7625 168.07222 27.325 168.6816Q26.778126 169.46284 26.778126 171.58784ZM33.2625 175.82222L33.2625 174.6191L34.465626 174.6191L34.465626 175.82222Q34.465626 176.47847 34.23125 176.88472Q33.996876 177.3066 33.496876 177.52534L33.2 177.07222Q33.528126 176.9316 33.684376 176.63472Q33.840626 176.35347 33.871876 175.82222L33.2625 175.82222ZM39.075 175.82222L39.075 173.75972L35.35625 173.75972L35.35625 172.79097L39.278126 167.22847L40.1375 167.22847L40.1375 172.79097L41.29375 172.79097L41.29375 173.75972L40.1375 173.75972L40.1375 175.82222L39.075 175.82222ZM39.075 172.79097L39.075 168.9316L36.3875 172.79097L39.075 172.79097Z" fill-rule="nonzero"/><path fill="#000000" d="M25.7 66.09896Q25.7 64.56771 26.0125 63.645836Q26.325 62.708336 26.934376 62.208336Q27.559376 61.708336 28.496876 61.708336Q29.184376 61.708336 29.7 61.989586Q30.23125 62.270836 30.575 62.802086Q30.91875 63.31771 31.10625 64.06771Q31.29375 64.81771 31.29375 66.09896Q31.29375 67.614586 30.98125 68.53646Q30.684376 69.458336 30.059376 69.97396Q29.45 70.47396 28.496876 70.47396Q27.2625 70.47396 26.54375 69.583336Q25.7 68.520836 25.7 66.09896ZM26.778126 66.09896Q26.778126 68.208336 27.278126 68.91146Q27.778126 69.614586 28.496876 69.614586Q29.23125 69.614586 29.715626 68.91146Q30.215626 68.208336 30.215626 66.09896Q30.215626 63.97396 29.715626 63.28646Q29.23125 62.583336 28.48125 62.583336Q27.7625 62.583336 27.325 63.19271Q26.778126 63.97396 26.778126 66.09896ZM33.2625 70.333336L33.2625 69.13021L34.465626 69.13021L34.465626 70.333336Q34.465626 70.989586 34.23125 71.395836Q33.996876 71.81771 33.496876 72.03646L33.2 71.583336Q33.528126 71.44271 33.684376 71.145836Q33.840626 70.864586 33.871876 70.333336L33.2625 70.333336ZM41.16875 63.84896L40.121876 63.927086Q39.98125 63.302086 39.73125 63.020836Q39.29375 62.56771 38.66875 62.56771Q38.16875 62.56771 37.778126 62.84896Q37.29375 63.22396 36.996876 63.927086Q36.715626 64.614586 36.7 65.895836Q37.075 65.31771 37.621876 65.03646Q38.184376 64.75521 38.79375 64.75521Q39.840626 64.75521 40.575 65.53646Q41.325 66.31771 41.325 67.53646Q41.325 68.34896 40.965626 69.052086Q40.621876 69.739586 40.0125 70.114586Q39.403126 70.47396 38.6375 70.47396Q37.309376 70.47396 36.48125 69.50521Q35.653126 68.53646 35.653126 66.31771Q35.653126 63.81771 36.575 62.69271Q37.371876 61.708336 38.73125 61.708336Q39.746876 61.708336 40.3875 62.28646Q41.04375 62.84896 41.16875 63.84896ZM36.871876 67.552086Q36.871876 68.09896 37.090626 68.59896Q37.325 69.083336 37.73125 69.34896Q38.153126 69.614586 38.621876 69.614586Q39.278126 69.614586 39.7625 69.083336Q40.246876 68.53646 40.246876 67.614586Q40.246876 66.72396 39.7625 66.208336Q39.29375 65.69271 38.575 65.69271Q37.85625 65.69271 37.35625 66.208336Q36.871876 66.72396 36.871876 67.552086Z" fill-rule="nonzero"/><path fill="#000000" d="M132.5031 399.8L135.79997 391.20624L137.03435 391.20624L140.54997 399.8L132.5031 399.8ZM134.08122 398.78436L138.86247 398.78436L137.0031 393.89374Q136.58122 392.78436 136.39372 392.1125Q136.23747 392.90936 135.92497 393.7531L134.08122 398.78436ZM146.58122 396.78436L147.70622 397.08124Q147.34685 398.47186 146.42497 399.20624Q145.5031 399.9406 144.15935 399.9406Q142.76872 399.9406 141.89372 399.3781Q141.01872 398.8156 140.5656 397.7531Q140.11247 396.675 140.11247 395.4406Q140.11247 394.09686 140.6281 393.09686Q141.14372 392.09686 142.08122 391.58124Q143.03435 391.0656 144.17497 391.0656Q145.45622 391.0656 146.33122 391.72186Q147.22185 392.3781 147.5656 393.5656L146.4406 393.83124Q146.14372 392.89374 145.5656 392.47186Q145.0031 392.03436 144.14372 392.03436Q143.15935 392.03436 142.48747 392.51874Q141.83122 392.9875 141.54997 393.78436Q141.28435 394.58124 141.28435 395.4406Q141.28435 396.53436 141.59685 397.34686Q141.92497 398.15936 142.59685 398.5656Q143.26872 398.97186 144.0656 398.97186Q145.01872 398.97186 145.67497 398.425Q146.34685 397.8781 146.58122 396.78436ZM149.4406 399.8L149.4406 391.20624L152.40935 391.20624Q153.40935 391.20624 153.9406 391.33124Q154.67497 391.5031 155.1906 391.9406Q155.8781 392.51874 156.20622 393.425Q156.54997 394.3156 156.54997 395.45624Q156.54997 396.4406 156.3156 397.1906Q156.09685 397.9406 155.73747 398.4406Q155.3781 398.9406 154.9406 399.22186Q154.51872 399.5031 153.92497 399.65936Q153.33122 399.8 152.54997 399.8L149.4406 399.8ZM150.58122 398.78436L152.40935 398.78436Q153.26872 398.78436 153.7531 398.6281Q154.23747 398.47186 154.51872 398.175Q154.92497 397.78436 155.14372 397.09686Q155.3781 396.40936 155.3781 395.4406Q155.3781 394.09686 154.92497 393.3781Q154.48747 392.64374 153.86247 392.39374Q153.39372 392.22186 152.39372 392.22186L150.58122 392.22186L150.58122 398.78436ZM163.33122 402.33124Q162.45622 401.22186 161.84685 399.7531Q161.2531 398.26874 161.2531 396.6906Q161.2531 395.3 161.6906 394.01874Q162.22185 392.53436 163.33122 391.0656L164.08122 391.0656Q163.3781 392.28436 163.14372 392.8Q162.78435 393.6125 162.58122 394.4875Q162.33122 395.58124 162.33122 396.6906Q162.33122 399.51874 164.08122 402.33124L163.33122 402.33124ZM165.22185 393.26874Q165.22185 392.34686 165.67497 391.70624Q166.14372 391.0656 167.01872 391.0656Q167.83122 391.0656 168.36247 391.64374Q168.89372 392.22186 168.89372 393.33124Q168.89372 394.425 168.34685 395.01874Q167.8156 395.59686 167.03435 395.59686Q166.2531 395.59686 165.73747 395.01874Q165.22185 394.4406 165.22185 393.26874ZM167.04997 391.78436Q166.65935 391.78436 166.39372 392.1281Q166.14372 392.47186 166.14372 393.3781Q166.14372 394.20624 166.39372 394.55Q166.65935 394.8781 167.04997 394.8781Q167.45622 394.8781 167.70622 394.53436Q167.97185 394.1906 167.97185 393.3Q167.97185 392.45624 167.70622 392.1281Q167.4406 391.78436 167.04997 391.78436ZM167.04997 400.1125L171.7531 391.0656L172.61247 391.0656L167.92497 400.1125L167.04997 400.1125ZM170.76872 397.78436Q170.76872 396.8625 171.22185 396.22186Q171.6906 395.58124 172.58122 395.58124Q173.39372 395.58124 173.92497 396.15936Q174.45622 396.72186 174.45622 397.84686Q174.45622 398.9406 173.90935 399.53436Q173.3781 400.1125 172.58122 400.1125Q171.8156 400.1125 171.28435 399.53436Q170.76872 398.95624 170.76872 397.78436ZM172.61247 396.3Q172.20622 396.3 171.9406 396.64374Q171.6906 396.9875 171.6906 397.89374Q171.6906 398.70624 171.95622 399.05Q172.22185 399.39374 172.61247 399.39374Q173.0031 399.39374 173.26872 399.05Q173.53435 398.70624 173.53435 397.8Q173.53435 396.97186 173.26872 396.64374Q173.0031 396.3 172.61247 396.3ZM178.92497 396.6906Q178.92497 394.95624 179.8781 394.1281Q180.67497 393.4406 181.83122 393.4406Q183.11247 393.4406 183.92497 394.28436Q184.7531 395.1125 184.7531 396.59686Q184.7531 397.8 184.39372 398.4875Q184.03435 399.175 183.33122 399.5656Q182.64372 399.9406 181.83122 399.9406Q180.53435 399.9406 179.72185 399.1125Q178.92497 398.26874 178.92497 396.6906ZM180.0031 396.6906Q180.0031 397.8781 180.51872 398.47186Q181.04997 399.0656 181.83122 399.0656Q182.6281 399.0656 183.14372 398.47186Q183.65935 397.8781 183.65935 396.65936Q183.65935 395.5031 183.1281 394.90936Q182.61247 394.3156 181.83122 394.3156Q181.04997 394.3156 180.51872 394.90936Q180.0031 395.4875 180.0031 396.6906ZM186.5656 399.8L186.5656 394.39374L185.6281 394.39374L185.6281 393.58124L186.5656 393.58124L186.5656 392.90936Q186.5656 392.28436 186.67497 391.9875Q186.83122 391.5656 187.20622 391.3156Q187.59685 391.0656 188.28435 391.0656Q188.73747 391.0656 189.26872 391.175L189.11247 392.08124Q188.78435 392.03436 188.48747 392.03436Q188.0031 392.03436 187.79997 392.2375Q187.61247 392.4406 187.61247 393.0031L187.61247 393.58124L188.83122 393.58124L188.83122 394.39374L187.61247 394.39374L187.61247 399.8L186.5656 399.8ZM193.28435 399.8L192.29997 399.8L192.29997 391.20624L193.36247 391.20624L193.36247 394.26874Q194.03435 393.4406 195.0656 393.4406Q195.64372 393.4406 196.14372 393.675Q196.65935 393.89374 196.98747 394.3156Q197.33122 394.7375 197.51872 395.33124Q197.70622 395.925 197.70622 396.59686Q197.70622 398.1906 196.90935 399.0656Q196.11247 399.9406 195.01872 399.9406Q193.90935 399.9406 193.28435 399.01874L193.28435 399.8ZM193.26872 396.64374Q193.26872 397.7531 193.58122 398.2531Q194.08122 399.0656 194.92497 399.0656Q195.61247 399.0656 196.11247 398.47186Q196.6281 397.8781 196.6281 396.675Q196.6281 395.45624 196.14372 394.8781Q195.65935 394.3 194.97185 394.3Q194.28435 394.3 193.76872 394.90936Q193.26872 395.5031 193.26872 396.64374ZM199.26872 402.1906L199.14372 401.20624Q199.48747 401.3 199.7531 401.3Q200.09685 401.3 200.29997 401.175Q200.51872 401.0656 200.65935 400.8625Q200.7531 400.6906 200.98747 400.0656Q201.0031 399.9875 201.08122 399.8156L198.70622 393.58124L199.84685 393.58124L201.14372 397.175Q201.39372 397.8625 201.59685 398.6281Q201.78435 397.89374 202.03435 397.20624L203.36247 393.58124L204.40935 393.58124L202.04997 399.90936Q201.65935 400.925 201.45622 401.3156Q201.17497 401.84686 200.79997 402.08124Q200.4406 402.33124 199.9406 402.33124Q199.64372 402.33124 199.26872 402.1906ZM206.61247 398.8625L206.76872 399.78436Q206.3156 399.8781 205.97185 399.8781Q205.39372 399.8781 205.08122 399.70624Q204.76872 399.51874 204.6281 399.22186Q204.5031 398.925 204.5031 397.97186L204.5031 394.39374L203.73747 394.39374L203.73747 393.58124L204.5031 393.58124L204.5031 392.03436L205.54997 391.40936L205.54997 393.58124L206.61247 393.58124L206.61247 394.39374L205.54997 394.39374L205.54997 398.03436Q205.54997 398.4875 205.59685 398.6125Q205.65935 398.7375 205.78435 398.8156Q205.90935 398.89374 206.14372 398.89374Q206.33122 398.89374 206.61247 398.8625ZM211.5656 397.8L212.65935 397.925Q212.40935 398.8781 211.70622 399.40936Q211.0031 399.9406 209.92497 399.9406Q208.5656 399.9406 207.7531 399.09686Q206.95622 398.2531 206.95622 396.7375Q206.95622 395.175 207.76872 394.3156Q208.58122 393.4406 209.86247 393.4406Q211.11247 393.4406 211.89372 394.28436Q212.6906 395.1281 212.6906 396.675Q212.6906 396.76874 212.6906 396.95624L208.04997 396.95624Q208.11247 397.9875 208.6281 398.53436Q209.14372 399.0656 209.92497 399.0656Q210.5031 399.0656 210.90935 398.76874Q211.33122 398.45624 211.5656 397.8ZM208.11247 396.09686L211.58122 396.09686Q211.51872 395.3 211.1906 394.90936Q210.67497 394.3 209.8781 394.3Q209.14372 394.3 208.64372 394.78436Q208.15935 395.26874 208.11247 396.09686ZM213.89372 397.9406L214.92497 397.78436Q215.01872 398.40936 215.40935 398.7375Q215.8156 399.0656 216.54997 399.0656Q217.26872 399.0656 217.61247 398.78436Q217.97185 398.4875 217.97185 398.08124Q217.97185 397.72186 217.65935 397.51874Q217.4406 397.3781 216.58122 397.15936Q215.42497 396.8625 214.97185 396.65936Q214.53435 396.4406 214.29997 396.0656Q214.0656 395.6906 214.0656 395.22186Q214.0656 394.8156 214.2531 394.45624Q214.4406 394.09686 214.76872 393.8625Q215.01872 393.6906 215.4406 393.5656Q215.86247 393.4406 216.36247 393.4406Q217.08122 393.4406 217.6281 393.65936Q218.1906 393.8625 218.45622 394.22186Q218.72185 394.58124 218.8156 395.175L217.78435 395.3156Q217.72185 394.84686 217.3781 394.58124Q217.04997 394.3 216.42497 394.3Q215.70622 394.3 215.39372 394.55Q215.08122 394.78436 215.08122 395.1125Q215.08122 395.3156 215.20622 395.47186Q215.34685 395.64374 215.61247 395.7531Q215.76872 395.8156 216.54997 396.01874Q217.67497 396.33124 218.11247 396.51874Q218.54997 396.70624 218.79997 397.0656Q219.04997 397.425 219.04997 397.97186Q219.04997 398.5031 218.73747 398.97186Q218.4406 399.425 217.86247 399.6906Q217.28435 399.9406 216.54997 399.9406Q215.33122 399.9406 214.6906 399.4406Q214.0656 398.925 213.89372 397.9406ZM222.0031 402.33124L221.2531 402.33124Q223.0031 399.51874 223.0031 396.6906Q223.0031 395.59686 222.7531 394.5031Q222.54997 393.6281 222.1906 392.8156Q221.95622 392.3 221.2531 391.0656L222.0031 391.0656Q223.09685 392.53436 223.6281 394.01874Q224.08122 395.3 224.08122 396.6906Q224.08122 398.26874 223.47185 399.7531Q222.86247 401.22186 222.0031 402.33124Z" fill-rule="nonzero"/><path fill="#000000" d="M323.9585 399.8L323.9585 391.20624L325.09912 391.20624L325.09912 398.78436L329.3335 398.78436L329.3335 399.8L323.9585 399.8ZM330.48975 396.6906Q330.48975 394.95624 331.44287 394.1281Q332.23975 393.4406 333.396 393.4406Q334.67725 393.4406 335.48975 394.28436Q336.31787 395.1125 336.31787 396.59686Q336.31787 397.8 335.9585 398.4875Q335.59912 399.175 334.896 399.5656Q334.2085 399.9406 333.396 399.9406Q332.09912 399.9406 331.28662 399.1125Q330.48975 398.26874 330.48975 396.6906ZM331.56787 396.6906Q331.56787 397.8781 332.0835 398.47186Q332.61475 399.0656 333.396 399.0656Q334.19287 399.0656 334.7085 398.47186Q335.22412 397.8781 335.22412 396.65936Q335.22412 395.5031 334.69287 394.90936Q334.17725 394.3156 333.396 394.3156Q332.61475 394.3156 332.0835 394.90936Q331.56787 395.4875 331.56787 396.6906ZM344.146 396.78436L345.271 397.08124Q344.91162 398.47186 343.98975 399.20624Q343.06787 399.9406 341.72412 399.9406Q340.3335 399.9406 339.4585 399.3781Q338.5835 398.8156 338.13037 397.7531Q337.67725 396.675 337.67725 395.4406Q337.67725 394.09686 338.19287 393.09686Q338.7085 392.09686 339.646 391.58124Q340.59912 391.0656 341.73975 391.0656Q343.021 391.0656 343.896 391.72186Q344.78662 392.3781 345.13037 393.5656L344.00537 393.83124Q343.7085 392.89374 343.13037 392.47186Q342.56787 392.03436 341.7085 392.03436Q340.72412 392.03436 340.05225 392.51874Q339.396 392.9875 339.11475 393.78436Q338.84912 394.58124 338.84912 395.4406Q338.84912 396.53436 339.16162 397.34686Q339.48975 398.15936 340.16162 398.5656Q340.8335 398.97186 341.63037 398.97186Q342.5835 398.97186 343.23975 398.425Q343.91162 397.8781 344.146 396.78436ZM353.146 396.78436L354.271 397.08124Q353.91162 398.47186 352.98975 399.20624Q352.06787 399.9406 350.72412 399.9406Q349.3335 399.9406 348.4585 399.3781Q347.5835 398.8156 347.13037 397.7531Q346.67725 396.675 346.67725 395.4406Q346.67725 394.09686 347.19287 393.09686Q347.7085 392.09686 348.646 391.58124Q349.59912 391.0656 350.73975 391.0656Q352.021 391.0656 352.896 391.72186Q353.78662 392.3781 354.13037 393.5656L353.00537 393.83124Q352.7085 392.89374 352.13037 392.47186Q351.56787 392.03436 350.7085 392.03436Q349.72412 392.03436 349.05225 392.51874Q348.396 392.9875 348.11475 393.78436Q347.84912 394.58124 347.84912 395.4406Q347.84912 396.53436 348.16162 397.34686Q348.48975 398.15936 349.16162 398.5656Q349.8335 398.97186 350.63037 398.97186Q351.5835 398.97186 352.23975 398.425Q352.91162 397.8781 353.146 396.78436ZM360.896 402.33124Q360.021 401.22186 359.41162 399.7531Q358.81787 398.26874 358.81787 396.6906Q358.81787 395.3 359.25537 394.01874Q359.78662 392.53436 360.896 391.0656L361.646 391.0656Q360.94287 392.28436 360.7085 392.8Q360.34912 393.6125 360.146 394.4875Q359.896 395.58124 359.896 396.6906Q359.896 399.51874 361.646 402.33124L360.896 402.33124ZM362.78662 393.26874Q362.78662 392.34686 363.23975 391.70624Q363.7085 391.0656 364.5835 391.0656Q365.396 391.0656 365.92725 391.64374Q366.4585 392.22186 366.4585 393.33124Q366.4585 394.425 365.91162 395.01874Q365.38037 395.59686 364.59912 395.59686Q363.81787 395.59686 363.30225 395.01874Q362.78662 394.4406 362.78662 393.26874ZM364.61475 391.78436Q364.22412 391.78436 363.9585 392.1281Q363.7085 392.47186 363.7085 393.3781Q363.7085 394.20624 363.9585 394.55Q364.22412 394.8781 364.61475 394.8781Q365.021 394.8781 365.271 394.53436Q365.53662 394.1906 365.53662 393.3Q365.53662 392.45624 365.271 392.1281Q365.00537 391.78436 364.61475 391.78436ZM364.61475 400.1125L369.31787 391.0656L370.17725 391.0656L365.48975 400.1125L364.61475 400.1125ZM368.3335 397.78436Q368.3335 396.8625 368.78662 396.22186Q369.25537 395.58124 370.146 395.58124Q370.9585 395.58124 371.48975 396.15936Q372.021 396.72186 372.021 397.84686Q372.021 398.9406 371.47412 399.53436Q370.94287 400.1125 370.146 400.1125Q369.38037 400.1125 368.84912 399.53436Q368.3335 398.95624 368.3335 397.78436ZM370.17725 396.3Q369.771 396.3 369.50537 396.64374Q369.25537 396.9875 369.25537 397.89374Q369.25537 398.70624 369.521 399.05Q369.78662 399.39374 370.17725 399.39374Q370.56787 399.39374 370.8335 399.05Q371.09912 398.70624 371.09912 397.8Q371.09912 396.97186 370.8335 396.64374Q370.56787 396.3 370.17725 396.3ZM376.48975 396.6906Q376.48975 394.95624 377.44287 394.1281Q378.23975 393.4406 379.396 393.4406Q380.67725 393.4406 381.48975 394.28436Q382.31787 395.1125 382.31787 396.59686Q382.31787 397.8 381.9585 398.4875Q381.59912 399.175 380.896 399.5656Q380.2085 399.9406 379.396 399.9406Q378.09912 399.9406 377.28662 399.1125Q376.48975 398.26874 376.48975 396.6906ZM377.56787 396.6906Q377.56787 397.8781 378.0835 398.47186Q378.61475 399.0656 379.396 399.0656Q380.19287 399.0656 380.7085 398.47186Q381.22412 397.8781 381.22412 396.65936Q381.22412 395.5031 380.69287 394.90936Q380.17725 394.3156 379.396 394.3156Q378.61475 394.3156 378.0835 394.90936Q377.56787 395.4875 377.56787 396.6906ZM384.13037 399.8L384.13037 394.39374L383.19287 394.39374L383.19287 393.58124L384.13037 393.58124L384.13037 392.90936Q384.13037 392.28436 384.23975 391.9875Q384.396 391.5656 384.771 391.3156Q385.16162 391.0656 385.84912 391.0656Q386.30225 391.0656 386.8335 391.175L386.67725 392.08124Q386.34912 392.03436 386.05225 392.03436Q385.56787 392.03436 385.36475 392.2375Q385.17725 392.4406 385.17725 393.0031L385.17725 393.58124L386.396 393.58124L386.396 394.39374L385.17725 394.39374L385.17725 399.8L384.13037 399.8ZM389.84912 399.8L389.84912 391.20624L390.91162 391.20624L390.91162 399.8L389.84912 399.8ZM392.88037 392.425L392.88037 391.20624L393.94287 391.20624L393.94287 392.425L392.88037 392.425ZM392.88037 399.8L392.88037 393.58124L393.94287 393.58124L393.94287 399.8L392.88037 399.8ZM395.88037 399.8L395.88037 393.58124L396.81787 393.58124L396.81787 394.45624Q397.50537 393.4406 398.80225 393.4406Q399.36475 393.4406 399.8335 393.64374Q400.31787 393.84686 400.55225 394.175Q400.78662 394.5031 400.88037 394.9406Q400.92725 395.2375 400.92725 395.97186L400.92725 399.8L399.88037 399.8L399.88037 396.01874Q399.88037 395.3625 399.75537 395.05Q399.63037 394.7375 399.31787 394.55Q399.00537 394.34686 398.5835 394.34686Q397.91162 394.34686 397.41162 394.78436Q396.92725 395.20624 396.92725 396.39374L396.92725 399.8L395.88037 399.8ZM407.13037 397.8L408.22412 397.925Q407.97412 398.8781 407.271 399.40936Q406.56787 399.9406 405.48975 399.9406Q404.13037 399.9406 403.31787 399.09686Q402.521 398.2531 402.521 396.7375Q402.521 395.175 403.3335 394.3156Q404.146 393.4406 405.42725 393.4406Q406.67725 393.4406 407.4585 394.28436Q408.25537 395.1281 408.25537 396.675Q408.25537 396.76874 408.25537 396.95624L403.61475 396.95624Q403.67725 397.9875 404.19287 398.53436Q404.7085 399.0656 405.48975 399.0656Q406.06787 399.0656 406.47412 398.76874Q406.896 398.45624 407.13037 397.8ZM403.67725 396.09686L407.146 396.09686Q407.0835 395.3 406.75537 394.90936Q406.23975 394.3 405.44287 394.3Q404.7085 394.3 404.2085 394.78436Q403.72412 395.26874 403.67725 396.09686ZM409.4585 397.9406L410.48975 397.78436Q410.5835 398.40936 410.97412 398.7375Q411.38037 399.0656 412.11475 399.0656Q412.8335 399.0656 413.17725 398.78436Q413.53662 398.4875 413.53662 398.08124Q413.53662 397.72186 413.22412 397.51874Q413.00537 397.3781 412.146 397.15936Q410.98975 396.8625 410.53662 396.65936Q410.09912 396.4406 409.86475 396.0656Q409.63037 395.6906 409.63037 395.22186Q409.63037 394.8156 409.81787 394.45624Q410.00537 394.09686 410.3335 393.8625Q410.5835 393.6906 411.00537 393.5656Q411.42725 393.4406 411.92725 393.4406Q412.646 393.4406 413.19287 393.65936Q413.75537 393.8625 414.021 394.22186Q414.28662 394.58124 414.38037 395.175L413.34912 395.3156Q413.28662 394.84686 412.94287 394.58124Q412.61475 394.3 411.98975 394.3Q411.271 394.3 410.9585 394.55Q410.646 394.78436 410.646 395.1125Q410.646 395.3156 410.771 395.47186Q410.91162 395.64374 411.17725 395.7531Q411.3335 395.8156 412.11475 396.01874Q413.23975 396.33124 413.67725 396.51874Q414.11475 396.70624 414.36475 397.0656Q414.61475 397.425 414.61475 397.97186Q414.61475 398.5031 414.30225 398.97186Q414.00537 399.425 413.42725 399.6906Q412.84912 399.9406 412.11475 399.9406Q410.896 399.9406 410.25537 399.4406Q409.63037 398.925 409.4585 397.9406ZM417.56787 402.33124L416.81787 402.33124Q418.56787 399.51874 418.56787 396.6906Q418.56787 395.59686 418.31787 394.5031Q418.11475 393.6281 417.75537 392.8156Q417.521 392.3 416.81787 391.0656L417.56787 391.0656Q418.66162 392.53436 419.19287 394.01874Q419.646 395.3 419.646 396.6906Q419.646 398.26874 419.03662 399.7531Q418.42725 401.22186 417.56787 402.33124Z" fill-rule="nonzero"/><path fill="#4285f4" d="M524.8 61.333332C524.8 60.781048 525.24774 60.333332 525.8 60.333332L535.8 60.333332C536.3523 60.333332 536.8 60.781048 536.8 61.333332L536.8 71.333336C536.8 71.88562 536.3523 72.333336 535.8 72.333336L525.8 72.333336C525.24774 72.333336 524.8 71.88562 524.8 71.333336Z" fill-rule="nonzero"/><path fill="#1a1a1a" d="M545.14374 67.895836L546.175 67.75521Q546.20624 68.739586 546.53436 69.09896Q546.8625 69.458336 547.45624 69.458336Q547.8781 69.458336 548.1906 69.270836Q548.5031 69.06771 548.6125 68.739586Q548.7375 68.395836 548.7375 67.66146L548.7375 61.739586L549.8625 61.739586L549.8625 67.59896Q549.8625 68.677086 549.59686 69.270836Q549.34686 69.864586 548.78436 70.177086Q548.22186 70.47396 547.45624 70.47396Q546.33124 70.47396 545.72186 69.833336Q545.1281 69.177086 545.14374 67.895836ZM551.20624 67.22396Q551.20624 65.489586 552.15936 64.66146Q552.95624 63.97396 554.1125 63.97396Q555.39374 63.97396 556.20624 64.81771Q557.03436 65.645836 557.03436 67.13021Q557.03436 68.333336 556.675 69.020836Q556.3156 69.708336 555.6125 70.09896Q554.925 70.47396 554.1125 70.47396Q552.8156 70.47396 552.0031 69.645836Q551.20624 68.802086 551.20624 67.22396ZM552.28436 67.22396Q552.28436 68.41146 552.8 69.00521Q553.33124 69.59896 554.1125 69.59896Q554.90936 69.59896 555.425 69.00521Q555.9406 68.41146 555.9406 67.19271Q555.9406 66.03646 555.40936 65.44271Q554.89374 64.84896 554.1125 64.84896Q553.33124 64.84896 552.8 65.44271Q552.28436 66.020836 552.28436 67.22396ZM558.59686 70.333336L558.59686 64.114586L559.53436 64.114586L559.53436 64.989586Q560.22186 63.97396 561.51874 63.97396Q562.08124 63.97396 562.55 64.177086Q563.03436 64.38021 563.26874 64.708336Q563.5031 65.03646 563.59686 65.47396Q563.64374 65.770836 563.64374 66.50521L563.64374 70.333336L562.59686 70.333336L562.59686 66.552086Q562.59686 65.895836 562.47186 65.583336Q562.34686 65.270836 562.03436 65.083336Q561.72186 64.88021 561.3 64.88021Q560.6281 64.88021 560.1281 65.31771Q559.64374 65.739586 559.64374 66.927086L559.64374 70.333336L558.59686 70.333336ZM569.65936 69.56771Q569.0656 70.06771 568.51874 70.270836Q567.9875 70.47396 567.3625 70.47396Q566.33124 70.47396 565.78436 69.97396Q565.2375 69.47396 565.2375 68.69271Q565.2375 68.239586 565.4406 67.864586Q565.64374 67.47396 565.9875 67.25521Q566.33124 67.020836 566.7531 66.91146Q567.05 66.81771 567.6906 66.739586Q568.95624 66.59896 569.5656 66.38021Q569.5656 66.16146 569.5656 66.114586Q569.5656 65.458336 569.26874 65.19271Q568.8625 64.84896 568.0656 64.84896Q567.33124 64.84896 566.97186 65.114586Q566.6125 65.364586 566.4406 66.020836L565.40936 65.88021Q565.55 65.22396 565.8781 64.81771Q566.20624 64.41146 566.8156 64.19271Q567.425 63.97396 568.22186 63.97396Q569.01874 63.97396 569.51874 64.16146Q570.01874 64.34896 570.2531 64.63021Q570.4875 64.91146 570.58124 65.34896Q570.6281 65.614586 570.6281 66.31771L570.6281 67.72396Q570.6281 69.19271 570.6906 69.583336Q570.76874 69.97396 570.97186 70.333336L569.8625 70.333336Q569.70624 70.00521 569.65936 69.56771ZM569.5656 67.208336Q568.9875 67.44271 567.84686 67.614586Q567.1906 67.708336 566.925 67.833336Q566.65936 67.94271 566.5031 68.16146Q566.3625 68.38021 566.3625 68.66146Q566.3625 69.083336 566.675 69.364586Q567.0031 69.645836 567.6125 69.645836Q568.22186 69.645836 568.6906 69.38021Q569.175 69.114586 569.39374 68.645836Q569.5656 68.28646 569.5656 67.59896L569.5656 67.208336ZM572.175 68.47396L573.20624 68.31771Q573.3 68.94271 573.6906 69.270836Q574.09686 69.59896 574.83124 69.59896Q575.55 69.59896 575.89374 69.31771Q576.2531 69.020836 576.2531 68.614586Q576.2531 68.25521 575.9406 68.052086Q575.72186 67.91146 574.8625 67.69271Q573.70624 67.395836 573.2531 67.19271Q572.8156 66.97396 572.58124 66.59896Q572.34686 66.22396 572.34686 65.75521Q572.34686 65.34896 572.53436 64.989586Q572.72186 64.63021 573.05 64.395836Q573.3 64.22396 573.72186 64.09896Q574.14374 63.97396 574.64374 63.97396Q575.3625 63.97396 575.90936 64.19271Q576.47186 64.395836 576.7375 64.75521Q577.0031 65.114586 577.09686 65.708336L576.0656 65.84896Q576.0031 65.38021 575.65936 65.114586Q575.33124 64.833336 574.70624 64.833336Q573.9875 64.833336 573.675 65.083336Q573.3625 65.31771 573.3625 65.645836Q573.3625 65.84896 573.4875 66.00521Q573.6281 66.177086 573.89374 66.28646Q574.05 66.34896 574.83124 66.552086Q575.95624 66.864586 576.39374 67.052086Q576.83124 67.239586 577.08124 67.59896Q577.33124 67.958336 577.33124 68.50521Q577.33124 69.03646 577.01874 69.50521Q576.72186 69.958336 576.14374 70.22396Q575.5656 70.47396 574.83124 70.47396Q573.6125 70.47396 572.97186 69.97396Q572.34686 69.458336 572.175 68.47396Z" fill-rule="nonzero"/><path fill="#ea4335" d="M524.8 85.333336C524.8 84.78105 525.24774 84.333336 525.8 84.333336L535.8 84.333336C536.3523 84.333336 536.8 84.78105 536.8 85.333336L536.8 95.333336C536.8 95.88562 536.3523 96.333336 535.8 96.333336L525.8 96.333336C525.24774 96.333336 524.8 95.88562 524.8 95.333336Z" fill-rule="nonzero"/><path fill="#1a1a1a" d="M547.90936 94.333336L547.90936 86.75521L545.08124 86.75521L545.08124 85.739586L551.89374 85.739586L551.89374 86.75521L549.05 86.75521L549.05 94.333336L547.90936 94.333336ZM552.59686 94.333336L552.59686 85.739586L553.64374 85.739586L553.64374 88.81771Q554.3781 87.97396 555.5031 87.97396Q556.20624 87.97396 556.70624 88.25521Q557.22186 88.520836 557.4406 89.00521Q557.65936 89.47396 557.65936 90.395836L557.65936 94.333336L556.6125 94.333336L556.6125 90.395836Q556.6125 89.59896 556.26874 89.239586Q555.925 88.88021 555.3 88.88021Q554.83124 88.88021 554.40936 89.13021Q554.0031 89.364586 553.8156 89.78646Q553.64374 90.19271 553.64374 90.927086L553.64374 94.333336L552.59686 94.333336ZM559.20624 91.22396Q559.20624 89.489586 560.15936 88.66146Q560.95624 87.97396 562.1125 87.97396Q563.39374 87.97396 564.20624 88.81771Q565.03436 89.645836 565.03436 91.13021Q565.03436 92.333336 564.675 93.020836Q564.3156 93.708336 563.6125 94.09896Q562.925 94.47396 562.1125 94.47396Q560.8156 94.47396 560.0031 93.645836Q559.20624 92.802086 559.20624 91.22396ZM560.28436 91.22396Q560.28436 92.41146 560.8 93.00521Q561.33124 93.59896 562.1125 93.59896Q562.90936 93.59896 563.425 93.00521Q563.9406 92.41146 563.9406 91.19271Q563.9406 90.03646 563.40936 89.44271Q562.89374 88.84896 562.1125 88.84896Q561.33124 88.84896 560.8 89.44271Q560.28436 90.020836 560.28436 91.22396ZM566.59686 94.333336L566.59686 88.114586L567.53436 88.114586L567.53436 88.989586Q567.83124 88.520836 568.3156 88.25521Q568.8 87.97396 569.425 87.97396Q570.1125 87.97396 570.55 88.25521Q571.0031 88.53646 571.175 89.052086Q571.925 87.97396 573.09686 87.97396Q574.03436 87.97396 574.51874 88.489586Q575.01874 88.989586 575.01874 90.06771L575.01874 94.333336L573.97186 94.333336L573.97186 90.41146Q573.97186 89.78646 573.8625 89.50521Q573.76874 89.22396 573.5031 89.052086Q573.2375 88.88021 572.8625 88.88021Q572.20624 88.88021 571.76874 89.31771Q571.34686 89.75521 571.34686 90.72396L571.34686 94.333336L570.28436 94.333336L570.28436 90.28646Q570.28436 89.583336 570.01874 89.239586Q569.76874 88.88021 569.1906 88.88021Q568.7375 88.88021 568.3625 89.114586Q567.9875 89.34896 567.8156 89.802086Q567.64374 90.25521 567.64374 91.09896L567.64374 94.333336L566.59686 94.333336ZM581.65936 93.56771Q581.0656 94.06771 580.51874 94.270836Q579.9875 94.47396 579.3625 94.47396Q578.33124 94.47396 577.78436 93.97396Q577.2375 93.47396 577.2375 92.69271Q577.2375 92.239586 577.4406 91.864586Q577.64374 91.47396 577.9875 91.25521Q578.33124 91.020836 578.7531 90.91146Q579.05 90.81771 579.6906 90.739586Q580.95624 90.59896 581.5656 90.38021Q581.5656 90.16146 581.5656 90.114586Q581.5656 89.458336 581.26874 89.19271Q580.8625 88.84896 580.0656 88.84896Q579.33124 88.84896 578.97186 89.114586Q578.6125 89.364586 578.4406 90.020836L577.40936 89.88021Q577.55 89.22396 577.8781 88.81771Q578.20624 88.41146 578.8156 88.19271Q579.425 87.97396 580.22186 87.97396Q581.01874 87.97396 581.51874 88.16146Q582.01874 88.34896 582.2531 88.63021Q582.4875 88.91146 582.58124 89.34896Q582.6281 89.614586 582.6281 90.31771L582.6281 91.72396Q582.6281 93.19271 582.6906 93.583336Q582.76874 93.97396 582.97186 94.333336L581.8625 94.333336Q581.70624 94.00521 581.65936 93.56771ZM581.5656 91.208336Q580.9875 91.44271 579.84686 91.614586Q579.1906 91.708336 578.925 91.833336Q578.65936 91.94271 578.5031 92.16146Q578.3625 92.38021 578.3625 92.66146Q578.3625 93.083336 578.675 93.364586Q579.0031 93.645836 579.6125 93.645836Q580.22186 93.645836 580.6906 93.38021Q581.175 93.114586 581.39374 92.645836Q581.5656 92.28646 581.5656 91.59896L581.5656 91.208336ZM584.175 92.47396L585.20624 92.31771Q585.3 92.94271 585.6906 93.270836Q586.09686 93.59896 586.83124 93.59896Q587.55 93.59896 587.89374 93.31771Q588.2531 93.020836 588.2531 92.614586Q588.2531 92.25521 587.9406 92.052086Q587.72186 91.91146 586.8625 91.69271Q585.70624 91.395836 585.2531 91.19271Q584.8156 90.97396 584.58124 90.59896Q584.34686 90.22396 584.34686 89.75521Q584.34686 89.34896 584.53436 88.989586Q584.72186 88.63021 585.05 88.395836Q585.3 88.22396 585.72186 88.09896Q586.14374 87.97396 586.64374 87.97396Q587.3625 87.97396 587.90936 88.19271Q588.47186 88.395836 588.7375 88.75521Q589.0031 89.114586 589.09686 89.708336L588.0656 89.84896Q588.0031 89.38021 587.65936 89.114586Q587.33124 88.833336 586.70624 88.833336Q585.9875 88.833336 585.675 89.083336Q585.3625 89.31771 585.3625 89.645836Q585.3625 89.84896 585.4875 90.00521Q585.6281 90.177086 585.89374 90.28646Q586.05 90.34896 586.83124 90.552086Q587.95624 90.864586 588.39374 91.052086Q588.83124 91.239586 589.08124 91.59896Q589.33124 91.958336 589.33124 92.50521Q589.33124 93.03646 589.01874 93.50521Q588.72186 93.958336 588.14374 94.22396Q587.5656 94.47396 586.83124 94.47396Q585.6125 94.47396 584.97186 93.97396Q584.34686 93.458336 584.175 92.47396Z" fill-rule="nonzero"/><path fill="#fbbc04" d="M524.8 109.333336C524.8 108.78105 525.24774 108.333336 525.8 108.333336L535.8 108.333336C536.3523 108.333336 536.8 108.78105 536.8 109.333336L536.8 119.333336C536.8 119.88562 536.3523 120.333336 535.8 120.333336L525.8 120.333336C525.24774 120.333336 524.8 119.88562 524.8 119.333336Z" fill-rule="nonzero"/><path fill="#1a1a1a" d="M545.7531 118.333336L545.7531 109.739586L551.95624 109.739586L551.95624 110.75521L546.89374 110.75521L546.89374 113.38021L551.64374 113.38021L551.64374 114.395836L546.89374 114.395836L546.89374 117.31771L552.15936 117.31771L552.15936 118.333336L545.7531 118.333336ZM553.59686 118.333336L553.59686 112.114586L554.53436 112.114586L554.53436 112.989586Q554.83124 112.520836 555.3156 112.25521Q555.8 111.97396 556.425 111.97396Q557.1125 111.97396 557.55 112.25521Q558.0031 112.53646 558.175 113.052086Q558.925 111.97396 560.09686 111.97396Q561.03436 111.97396 561.51874 112.489586Q562.01874 112.989586 562.01874 114.06771L562.01874 118.333336L560.97186 118.333336L560.97186 114.41146Q560.97186 113.78646 560.8625 113.50521Q560.76874 113.22396 560.5031 113.052086Q560.2375 112.88021 559.8625 112.88021Q559.20624 112.88021 558.76874 113.31771Q558.34686 113.75521 558.34686 114.72396L558.34686 118.333336L557.28436 118.333336L557.28436 114.28646Q557.28436 113.583336 557.01874 113.239586Q556.76874 112.88021 556.1906 112.88021Q555.7375 112.88021 555.3625 113.114586Q554.9875 113.34896 554.8156 113.802086Q554.64374 114.25521 554.64374 115.09896L554.64374 118.333336L553.59686 118.333336ZM564.59686 110.958336L564.59686 109.739586L565.65936 109.739586L565.65936 110.958336L564.59686 110.958336ZM564.59686 118.333336L564.59686 112.114586L565.65936 112.114586L565.65936 118.333336L564.59686 118.333336ZM567.5656 118.333336L567.5656 109.739586L568.6281 109.739586L568.6281 118.333336L567.5656 118.333336Z" fill-rule="nonzero"/><path fill="#34a853" d="M524.8 133.33333C524.8 132.78105 525.24774 132.33333 525.8 132.33333L535.8 132.33333C536.3523 132.33333 536.8 132.78105 536.8 133.33333L536.8 143.33333C536.8 143.88562 536.3523 144.33333 535.8 144.33333L525.8 144.33333C525.24774 144.33333 524.8 143.88562 524.8 143.33333Z" fill-rule="nonzero"/><path fill="#1a1a1a" d="M545.72186 142.33333L545.72186 133.73958L548.6906 133.73958Q549.6906 133.73958 550.22186 133.86458Q550.95624 134.03645 551.47186 134.47395Q552.15936 135.05208 552.4875 135.95833Q552.83124 136.84895 552.83124 137.98958Q552.83124 138.97395 552.59686 139.72395Q552.3781 140.47395 552.01874 140.97395Q551.65936 141.47395 551.22186 141.7552Q550.8 142.03645 550.20624 142.1927Q549.6125 142.33333 548.83124 142.33333L545.72186 142.33333ZM546.8625 141.3177L548.6906 141.3177Q549.55 141.3177 550.03436 141.16145Q550.51874 141.0052 550.8 140.70833Q551.20624 140.3177 551.425 139.6302Q551.65936 138.9427 551.65936 137.97395Q551.65936 136.6302 551.20624 135.91145Q550.76874 135.17708 550.14374 134.92708Q549.675 134.7552 548.675 134.7552L546.8625 134.7552L546.8625 141.3177ZM558.65936 141.5677Q558.0656 142.0677 557.51874 142.27083Q556.9875 142.47395 556.3625 142.47395Q555.33124 142.47395 554.78436 141.97395Q554.2375 141.47395 554.2375 140.6927Q554.2375 140.23958 554.4406 139.86458Q554.64374 139.47395 554.9875 139.2552Q555.33124 139.02083 555.7531 138.91145Q556.05 138.8177 556.6906 138.73958Q557.95624 138.59895 558.5656 138.3802Q558.5656 138.16145 558.5656 138.11458Q558.5656 137.45833 558.26874 137.1927Q557.8625 136.84895 557.0656 136.84895Q556.33124 136.84895 555.97186 137.11458Q555.6125 137.36458 555.4406 138.02083L554.40936 137.8802Q554.55 137.22395 554.8781 136.8177Q555.20624 136.41145 555.8156 136.1927Q556.425 135.97395 557.22186 135.97395Q558.01874 135.97395 558.51874 136.16145Q559.01874 136.34895 559.2531 136.6302Q559.4875 136.91145 559.58124 137.34895Q559.6281 137.61458 559.6281 138.3177L559.6281 139.72395Q559.6281 141.1927 559.6906 141.58333Q559.76874 141.97395 559.97186 142.33333L558.8625 142.33333Q558.70624 142.0052 558.65936 141.5677ZM558.5656 139.20833Q557.9875 139.4427 556.84686 139.61458Q556.1906 139.70833 555.925 139.83333Q555.65936 139.9427 555.5031 140.16145Q555.3625 140.3802 555.3625 140.66145Q555.3625 141.08333 555.675 141.36458Q556.0031 141.64583 556.6125 141.64583Q557.22186 141.64583 557.6906 141.3802Q558.175 141.11458 558.39374 140.64583Q558.5656 140.28645 558.5656 139.59895L558.5656 139.20833ZM562.7375 142.33333L560.83124 136.11458L561.925 136.11458L562.90936 139.70833L563.28436 141.03645Q563.3156 140.9427 563.6125 139.7552L564.59686 136.11458L565.675 136.11458L566.6125 139.72395L566.925 140.91145L567.28436 139.70833L568.34686 136.11458L569.3781 136.11458L567.425 142.33333L566.33124 142.33333L565.34686 138.59895L565.09686 137.55208L563.84686 142.33333L562.7375 142.33333ZM570.59686 134.95833L570.59686 133.73958L571.65936 133.73958L571.65936 134.95833L570.59686 134.95833ZM570.59686 142.33333L570.59686 136.11458L571.65936 136.11458L571.65936 142.33333L570.59686 142.33333ZM577.6281 142.33333L577.6281 141.55208Q577.03436 142.47395 575.89374 142.47395Q575.14374 142.47395 574.51874 142.0677Q573.89374 141.64583 573.55 140.91145Q573.20624 140.17708 573.20624 139.22395Q573.20624 138.30208 573.51874 137.53645Q573.83124 136.77083 574.45624 136.3802Q575.08124 135.97395 575.84686 135.97395Q576.40936 135.97395 576.84686 136.20833Q577.28436 136.4427 577.5656 136.8177L577.5656 133.73958L578.6125 133.73958L578.6125 142.33333L577.6281 142.33333ZM574.3 139.22395Q574.3 140.42708 574.8 141.02083Q575.3 141.59895 575.9875 141.59895Q576.675 141.59895 577.15936 141.03645Q577.64374 140.47395 577.64374 139.3177Q577.64374 138.03645 577.14374 137.4427Q576.65936 136.84895 575.9406 136.84895Q575.2375 136.84895 574.76874 137.42708Q574.3 137.98958 574.3 139.22395Z" fill-rule="nonzero"/><path fill="#ff6d01" d="M524.8 157.33333C524.8 156.78105 525.24774 156.33333 525.8 156.33333L535.8 156.33333C536.3523 156.33333 536.8 156.78105 536.8 157.33333L536.8 167.33333C536.8 167.88562 536.3523 168.33333 535.8 168.33333L525.8 168.33333C525.24774 168.33333 524.8 167.88562 524.8 167.33333Z" fill-rule="nonzero"/><path fill="#1a1a1a" d="M545.675 166.33333L545.675 157.73958L546.8156 157.73958L546.8156 162.0052L551.08124 157.73958L552.6281 157.73958L549.01874 161.22395L552.78436 166.33333L551.28436 166.33333L548.22186 161.98958L546.8156 163.34895L546.8156 166.33333L545.675 166.33333ZM553.58124 166.33333L553.58124 160.11458L554.53436 160.11458L554.53436 161.05208Q554.89374 160.39583 555.1906 160.1927Q555.5031 159.97395 555.8781 159.97395Q556.40936 159.97395 556.95624 160.30208L556.59686 161.28645Q556.20624 161.05208 555.83124 161.05208Q555.47186 161.05208 555.1906 161.27083Q554.925 161.47395 554.8156 161.84895Q554.6281 162.41145 554.6281 163.0677L554.6281 166.33333L553.58124 166.33333ZM557.59686 158.95833L557.59686 157.73958L558.65936 157.73958L558.65936 158.95833L557.59686 158.95833ZM557.59686 166.33333L557.59686 160.11458L558.65936 160.11458L558.65936 166.33333L557.59686 166.33333ZM560.175 164.47395L561.20624 164.3177Q561.3 164.9427 561.6906 165.27083Q562.09686 165.59895 562.83124 165.59895Q563.55 165.59895 563.89374 165.3177Q564.2531 165.02083 564.2531 164.61458Q564.2531 164.2552 563.9406 164.05208Q563.72186 163.91145 562.8625 163.6927Q561.70624 163.39583 561.2531 163.1927Q560.8156 162.97395 560.58124 162.59895Q560.34686 162.22395 560.34686 161.7552Q560.34686 161.34895 560.53436 160.98958Q560.72186 160.6302 561.05 160.39583Q561.3 160.22395 561.72186 160.09895Q562.14374 159.97395 562.64374 159.97395Q563.3625 159.97395 563.90936 160.1927Q564.47186 160.39583 564.7375 160.7552Q565.0031 161.11458 565.09686 161.70833L564.0656 161.84895Q564.0031 161.3802 563.65936 161.11458Q563.33124 160.83333 562.70624 160.83333Q561.9875 160.83333 561.675 161.08333Q561.3625 161.3177 561.3625 161.64583Q561.3625 161.84895 561.4875 162.0052Q561.6281 162.17708 561.89374 162.28645Q562.05 162.34895 562.83124 162.55208Q563.95624 162.86458 564.39374 163.05208Q564.83124 163.23958 565.08124 163.59895Q565.33124 163.95833 565.33124 164.5052Q565.33124 165.03645 565.01874 165.5052Q564.72186 165.95833 564.14374 166.22395Q563.5656 166.47395 562.83124 166.47395Q561.6125 166.47395 560.97186 165.97395Q560.34686 165.45833 560.175 164.47395ZM569.89374 165.39583L570.05 166.3177Q569.59686 166.41145 569.2531 166.41145Q568.675 166.41145 568.3625 166.23958Q568.05 166.05208 567.90936 165.7552Q567.78436 165.45833 567.78436 164.5052L567.78436 160.92708L567.01874 160.92708L567.01874 160.11458L567.78436 160.11458L567.78436 158.5677L568.83124 157.9427L568.83124 160.11458L569.89374 160.11458L569.89374 160.92708L568.83124 160.92708L568.83124 164.5677Q568.83124 165.02083 568.8781 165.14583Q568.9406 165.27083 569.0656 165.34895Q569.1906 165.42708 569.425 165.42708Q569.6125 165.42708 569.89374 165.39583ZM570.20624 163.22395Q570.20624 161.48958 571.15936 160.66145Q571.95624 159.97395 573.1125 159.97395Q574.39374 159.97395 575.20624 160.8177Q576.03436 161.64583 576.03436 163.1302Q576.03436 164.33333 575.675 165.02083Q575.3156 165.70833 574.6125 166.09895Q573.925 166.47395 573.1125 166.47395Q571.8156 166.47395 571.0031 165.64583Q570.20624 164.80208 570.20624 163.22395ZM571.28436 163.22395Q571.28436 164.41145 571.8 165.0052Q572.33124 165.59895 573.1125 165.59895Q573.90936 165.59895 574.425 165.0052Q574.9406 164.41145 574.9406 163.1927Q574.9406 162.03645 574.40936 161.4427Q573.89374 160.84895 573.1125 160.84895Q572.33124 160.84895 571.8 161.4427Q571.28436 162.02083 571.28436 163.22395ZM577.84686 166.33333L577.84686 160.92708L576.90936 160.92708L576.90936 160.11458L577.84686 160.11458L577.84686 159.4427Q577.84686 158.8177 577.95624 158.52083Q578.1125 158.09895 578.4875 157.84895Q578.8781 157.59895 579.5656 157.59895Q580.01874 157.59895 580.55 157.70833L580.39374 158.61458Q580.0656 158.5677 579.76874 158.5677Q579.28436 158.5677 579.08124 158.77083Q578.89374 158.97395 578.89374 159.53645L578.89374 160.11458L580.1125 160.11458L580.1125 160.92708L578.89374 160.92708L578.89374 166.33333L577.84686 166.33333ZM580.84686 166.33333L580.84686 160.92708L579.90936 160.92708L579.90936 160.11458L580.84686 160.11458L580.84686 159.4427Q580.84686 158.8177 580.95624 158.52083Q581.1125 158.09895 581.4875 157.84895Q581.8781 157.59895 582.5656 157.59895Q583.01874 157.59895 583.55 157.70833L583.39374 158.61458Q583.0656 158.5677 582.76874 158.5677Q582.28436 158.5677 582.08124 158.77083Q581.89374 158.97395 581.89374 159.53645L581.89374 160.11458L583.1125 160.11458L583.1125 160.92708L581.89374 160.92708L581.89374 166.33333L580.84686 166.33333ZM587.84686 164.33333L588.9406 164.45833Q588.6906 165.41145 587.9875 165.9427Q587.28436 166.47395 586.20624 166.47395Q584.84686 166.47395 584.03436 165.6302Q583.2375 164.78645 583.2375 163.27083Q583.2375 161.70833 584.05 160.84895Q584.8625 159.97395 586.14374 159.97395Q587.39374 159.97395 588.175 160.8177Q588.97186 161.66145 588.97186 163.20833Q588.97186 163.30208 588.97186 163.48958L584.33124 163.48958Q584.39374 164.52083 584.90936 165.0677Q585.425 165.59895 586.20624 165.59895Q586.78436 165.59895 587.1906 165.30208Q587.6125 164.98958 587.84686 164.33333ZM584.39374 162.6302L587.8625 162.6302Q587.8 161.83333 587.47186 161.4427Q586.95624 160.83333 586.15936 160.83333Q585.425 160.83333 584.925 161.3177Q584.4406 161.80208 584.39374 162.6302ZM590.58124 166.33333L590.58124 160.11458L591.53436 160.11458L591.53436 161.05208Q591.89374 160.39583 592.1906 160.1927Q592.5031 159.97395 592.8781 159.97395Q593.40936 159.97395 593.95624 160.30208L593.59686 161.28645Q593.20624 161.05208 592.83124 161.05208Q592.47186 161.05208 592.1906 161.27083Q591.925 161.47395 591.8156 161.84895Q591.6281 162.41145 591.6281 163.0677L591.6281 166.33333L590.58124 166.33333Z" fill-rule="nonzero"/><path fill="#46bdc6" d="M524.8 181.33333C524.8 180.78105 525.24774 180.33333 525.8 180.33333L535.8 180.33333C536.3523 180.33333 536.8 180.78105 536.8 181.33333L536.8 191.33333C536.8 191.88562 536.3523 192.33333 535.8 192.33333L525.8 192.33333C525.24774 192.33333 524.8 191.88562 524.8 191.33333Z" fill-rule="nonzero"/><path fill="#1a1a1a" d="M545.3781 186.14583Q545.3781 184.0052 546.51874 182.80208Q547.675 181.58333 549.4875 181.58333Q550.6906 181.58333 551.64374 182.16145Q552.59686 182.72395 553.09686 183.73958Q553.59686 184.7552 553.59686 186.05208Q553.59686 187.34895 553.0656 188.3802Q552.53436 189.41145 551.5656 189.9427Q550.6125 190.47395 549.4875 190.47395Q548.26874 190.47395 547.3156 189.89583Q546.3625 189.30208 545.8625 188.30208Q545.3781 187.28645 545.3781 186.14583ZM546.55 186.16145Q546.55 187.72395 547.3781 188.61458Q548.22186 189.5052 549.4875 189.5052Q550.76874 189.5052 551.59686 188.61458Q552.425 187.70833 552.425 186.03645Q552.425 184.98958 552.0656 184.20833Q551.72186 183.42708 551.03436 183.0052Q550.34686 182.5677 549.5031 182.5677Q548.3 182.5677 547.425 183.39583Q546.55 184.22395 546.55 186.16145ZM556.89374 189.39583L557.05 190.3177Q556.59686 190.41145 556.2531 190.41145Q555.675 190.41145 555.3625 190.23958Q555.05 190.05208 554.90936 189.7552Q554.78436 189.45833 554.78436 188.5052L554.78436 184.92708L554.01874 184.92708L554.01874 184.11458L554.78436 184.11458L554.78436 182.5677L555.83124 181.9427L555.83124 184.11458L556.89374 184.11458L556.89374 184.92708L555.83124 184.92708L555.83124 188.5677Q555.83124 189.02083 555.8781 189.14583Q555.9406 189.27083 556.0656 189.34895Q556.1906 189.42708 556.425 189.42708Q556.6125 189.42708 556.89374 189.39583ZM557.59686 190.33333L557.59686 181.73958L558.64374 181.73958L558.64374 184.8177Q559.3781 183.97395 560.5031 183.97395Q561.20624 183.97395 561.70624 184.2552Q562.22186 184.52083 562.4406 185.0052Q562.65936 185.47395 562.65936 186.39583L562.65936 190.33333L561.6125 190.33333L561.6125 186.39583Q561.6125 185.59895 561.26874 185.23958Q560.925 184.8802 560.3 184.8802Q559.83124 184.8802 559.40936 185.1302Q559.0031 185.36458 558.8156 185.78645Q558.64374 186.1927 558.64374 186.92708L558.64374 190.33333L557.59686 190.33333ZM568.84686 188.33333L569.9406 188.45833Q569.6906 189.41145 568.9875 189.9427Q568.28436 190.47395 567.20624 190.47395Q565.84686 190.47395 565.03436 189.6302Q564.2375 188.78645 564.2375 187.27083Q564.2375 185.70833 565.05 184.84895Q565.8625 183.97395 567.14374 183.97395Q568.39374 183.97395 569.175 184.8177Q569.97186 185.66145 569.97186 187.20833Q569.97186 187.30208 569.97186 187.48958L565.33124 187.48958Q565.39374 188.52083 565.90936 189.0677Q566.425 189.59895 567.20624 189.59895Q567.78436 189.59895 568.1906 189.30208Q568.6125 188.98958 568.84686 188.33333ZM565.39374 186.6302L568.8625 186.6302Q568.8 185.83333 568.47186 185.4427Q567.95624 184.83333 567.15936 184.83333Q566.425 184.83333 565.925 185.3177Q565.4406 185.80208 565.39374 186.6302ZM571.58124 190.33333L571.58124 184.11458L572.53436 184.11458L572.53436 185.05208Q572.89374 184.39583 573.1906 184.1927Q573.5031 183.97395 573.8781 183.97395Q574.40936 183.97395 574.95624 184.30208L574.59686 185.28645Q574.20624 185.05208 573.83124 185.05208Q573.47186 185.05208 573.1906 185.27083Q572.925 185.47395 572.8156 185.84895Q572.6281 186.41145 572.6281 187.0677L572.6281 190.33333L571.58124 190.33333ZM575.175 188.47395L576.20624 188.3177Q576.3 188.9427 576.6906 189.27083Q577.09686 189.59895 577.83124 189.59895Q578.55 189.59895 578.89374 189.3177Q579.2531 189.02083 579.2531 188.61458Q579.2531 188.2552 578.9406 188.05208Q578.72186 187.91145 577.8625 187.6927Q576.70624 187.39583 576.2531 187.1927Q575.8156 186.97395 575.58124 186.59895Q575.34686 186.22395 575.34686 185.7552Q575.34686 185.34895 575.53436 184.98958Q575.72186 184.6302 576.05 184.39583Q576.3 184.22395 576.72186 184.09895Q577.14374 183.97395 577.64374 183.97395Q578.3625 183.97395 578.90936 184.1927Q579.47186 184.39583 579.7375 184.7552Q580.0031 185.11458 580.09686 185.70833L579.0656 185.84895Q579.0031 185.3802 578.65936 185.11458Q578.33124 184.83333 577.70624 184.83333Q576.9875 184.83333 576.675 185.08333Q576.3625 185.3177 576.3625 185.64583Q576.3625 185.84895 576.4875 186.0052Q576.6281 186.17708 576.89374 186.28645Q577.05 186.34895 577.83124 186.55208Q578.95624 186.86458 579.39374 187.05208Q579.83124 187.23958 580.08124 187.59895Q580.33124 187.95833 580.33124 188.5052Q580.33124 189.03645 580.01874 189.5052Q579.72186 189.95833 579.14374 190.22395Q578.5656 190.47395 577.83124 190.47395Q576.6125 190.47395 575.97186 189.97395Q575.34686 189.45833 575.175 188.47395Z" fill-rule="nonzero"/><path fill="#757575" d="M32.965626 35.184376L34.85625 35.653126Q34.2625 37.996876 32.715626 39.23125Q31.16875 40.45 28.91875 40.45Q26.60625 40.45 25.153126 39.5125Q23.715626 38.559376 22.95 36.778126Q22.2 34.98125 22.2 32.934376Q22.2 30.7 23.04375 29.04375Q23.903126 27.371876 25.48125 26.5125Q27.059376 25.6375 28.95 25.6375Q31.10625 25.6375 32.559376 26.73125Q34.028126 27.825 34.60625 29.809376L32.746876 30.246876Q32.246876 28.684376 31.29375 27.98125Q30.35625 27.2625 28.91875 27.2625Q27.2625 27.2625 26.153126 28.059376Q25.04375 28.840626 24.590626 30.184376Q24.153126 31.5125 24.153126 32.91875Q24.153126 34.746876 24.684376 36.121876Q25.215626 37.48125 26.340626 38.153126Q27.465626 38.825 28.7625 38.825Q30.35625 38.825 31.465626 37.903126Q32.575 36.98125 32.965626 35.184376ZM43.309376 40.2L43.309376 38.66875Q42.10625 40.434376 40.028126 40.434376Q39.10625 40.434376 38.309376 40.090626Q37.5125 39.73125 37.121876 39.2Q36.746876 38.66875 36.590626 37.8875Q36.48125 37.371876 36.48125 36.246876L36.48125 29.825L38.23125 29.825L38.23125 35.575Q38.23125 36.95 38.340626 37.434376Q38.5125 38.121876 39.04375 38.528126Q39.590626 38.91875 40.371876 38.91875Q41.16875 38.91875 41.85625 38.5125Q42.559376 38.10625 42.840626 37.41875Q43.1375 36.715626 43.1375 35.3875L43.1375 29.825L44.8875 29.825L44.8875 40.2L43.309376 40.2ZM46.5125 40.2L46.5125 29.825L48.090626 29.825L48.090626 31.278126Q48.575 30.528126 49.3875 30.059376Q50.2 29.590626 51.23125 29.590626Q52.3875 29.590626 53.121876 30.075Q53.85625 30.54375 54.16875 31.403126Q55.403126 29.590626 57.371876 29.590626Q58.91875 29.590626 59.746876 30.45Q60.575 31.309376 60.575 33.075L60.575 40.2L58.825 40.2L58.825 33.66875Q58.825 32.60625 58.653126 32.153126Q58.48125 31.684376 58.028126 31.403126Q57.590626 31.121876 56.98125 31.121876Q55.8875 31.121876 55.153126 31.85625Q54.434376 32.575 54.434376 34.16875L54.434376 40.2L52.684376 40.2L52.684376 33.465626Q52.684376 32.29375 52.246876 31.715626Q51.825 31.121876 50.840626 31.121876Q50.10625 31.121876 49.465626 31.5125Q48.840626 31.903126 48.559376 32.653126Q48.278126 33.403126 48.278126 34.825L48.278126 40.2L46.5125 40.2ZM69.30937 40.2L69.30937 38.66875Q68.10625 40.434376 66.02812 40.434376Q65.10625 40.434376 64.30937 40.090626Q63.5125 39.73125 63.121876 39.2Q62.746876 38.66875 62.590626 37.8875Q62.48125 37.371876 62.48125 36.246876L62.48125 29.825L64.23125 29.825L64.23125 35.575Q64.23125 36.95 64.34062 37.434376Q64.5125 38.121876 65.04375 38.528126Q65.59062 38.91875 66.37187 38.91875Q67.16875 38.91875 67.85625 38.5125Q68.55937 38.10625 68.84062 37.41875Q69.1375 36.715626 69.1375 35.3875L69.1375 29.825L70.8875 29.825L70.8875 40.2L69.30937 40.2ZM72.48125 40.2L72.48125 25.8875L74.23125 25.8875L74.23125 40.2L72.48125 40.2ZM83.29375 38.91875Q82.30937 39.746876 81.40312 40.090626Q80.49687 40.434376 79.46562 40.434376Q77.7625 40.434376 76.84062 39.60625Q75.91875 38.7625 75.91875 37.465626Q75.91875 36.7 76.2625 36.075Q76.62187 35.45 77.18437 35.075Q77.74687 34.684376 78.45 34.48125Q78.96562 34.35625 80.0125 34.215626Q82.1375 33.965626 83.1375 33.621876Q83.15312 33.2625 83.15312 33.153126Q83.15312 32.090626 82.65312 31.6375Q81.98125 31.04375 80.65312 31.04375Q79.40312 31.04375 78.80937 31.48125Q78.23125 31.91875 77.95 33.028126L76.23125 32.79375Q76.46562 31.684376 76.99687 31.0125Q77.52812 30.325 78.54375 29.965626Q79.55937 29.590626 80.90312 29.590626Q82.23125 29.590626 83.05937 29.903126Q83.8875 30.215626 84.27812 30.7Q84.66875 31.16875 84.825 31.8875Q84.91875 32.340626 84.91875 33.5125L84.91875 35.85625Q84.91875 38.309376 85.02812 38.965626Q85.1375 39.60625 85.48125 40.2L83.6375 40.2Q83.37187 39.653126 83.29375 38.91875ZM83.1375 34.996876Q82.18437 35.3875 80.2625 35.653126Q79.18437 35.809376 78.73125 36.0125Q78.29375 36.2 78.04375 36.575Q77.79375 36.95 77.79375 37.41875Q77.79375 38.121876 78.325 38.590626Q78.85625 39.059376 79.8875 39.059376Q80.90312 39.059376 81.68437 38.621876Q82.48125 38.16875 82.85625 37.403126Q83.1375 36.79375 83.1375 35.6375L83.1375 34.996876ZM91.35625 38.621876L91.60625 40.184376Q90.87187 40.340626 90.27812 40.340626Q89.325 40.340626 88.79375 40.04375Q88.27812 39.73125 88.05937 39.246876Q87.84062 38.746876 87.84062 37.16875L87.84062 31.2L86.55937 31.2L86.55937 29.825L87.84062 29.825L87.84062 27.2625L89.59062 26.2L89.59062 29.825L91.35625 29.825L91.35625 31.2L89.59062 31.2L89.59062 37.2625Q89.59062 38.0125 89.68437 38.23125Q89.77812 38.434376 89.98125 38.575Q90.2 38.7 90.59062 38.7Q90.87187 38.7 91.35625 38.621876ZM93.52812 27.903126L93.52812 25.8875L95.29375 25.8875L95.29375 27.903126L93.52812 27.903126ZM93.52812 40.2L93.52812 29.825L95.29375 29.825L95.29375 40.2L93.52812 40.2ZM100.40312 40.2L96.45 29.825L98.30937 29.825L100.54375 36.04375Q100.90312 37.04375 101.2 38.121876Q101.43437 37.309376 101.85625 36.153126L104.15312 29.825L105.96562 29.825L102.04375 40.2L100.40312 40.2ZM113.62187 36.85625L115.43437 37.090626Q115.0125 38.66875 113.84062 39.559376Q112.68437 40.434376 110.87187 40.434376Q108.60625 40.434376 107.2625 39.04375Q105.93437 37.6375 105.93437 35.10625Q105.93437 32.48125 107.27812 31.04375Q108.62187 29.590626 110.77812 29.590626Q112.85625 29.590626 114.16875 31.0125Q115.49687 32.41875 115.49687 34.996876Q115.49687 35.153126 115.48125 35.465626L107.74687 35.465626Q107.84062 37.16875 108.71562 38.075Q109.59062 38.98125 110.8875 38.98125Q111.85625 38.98125 112.52812 38.48125Q113.21562 37.965626 113.62187 36.85625ZM107.84062 34.0125L113.6375 34.0125Q113.52812 32.715626 112.98125 32.059376Q112.1375 31.04375 110.79375 31.04375Q109.59062 31.04375 108.7625 31.85625Q107.93437 32.653126 107.84062 34.0125ZM122.18437 40.2L127.68437 25.8875L129.71562 25.8875L135.575 40.2L122.18437 40.2ZM124.80937 38.5125L132.7625 38.5125L129.66875 30.35625Q128.98125 28.5125 128.65312 27.3875Q128.3875 28.715626 127.8875 30.121876L124.80937 38.5125ZM146.96562 35.184376L148.85625 35.653126Q148.2625 37.996876 146.71562 39.23125Q145.16875 40.45 142.91875 40.45Q140.60625 40.45 139.15312 39.5125Q137.71562 38.559376 136.95 36.778126Q136.2 34.98125 136.2 32.934376Q136.2 30.7 137.04375 29.04375Q137.90312 27.371876 139.48125 26.5125Q141.05937 25.6375 142.95 25.6375Q145.10625 25.6375 146.55937 26.73125Q148.02812 27.825 148.60625 29.809376L146.74687 30.246876Q146.24687 28.684376 145.29375 27.98125Q144.35625 27.2625 142.91875 27.2625Q141.2625 27.2625 140.15312 28.059376Q139.04375 28.840626 138.59062 30.184376Q138.15312 31.5125 138.15312 32.91875Q138.15312 34.746876 138.68437 36.121876Q139.21562 37.48125 140.34062 38.153126Q141.46562 38.825 142.7625 38.825Q144.35625 38.825 145.46562 37.903126Q146.575 36.98125 146.96562 35.184376ZM150.74687 40.2L150.74687 25.8875L155.66875 25.8875Q157.34062 25.8875 158.23125 26.090626Q159.45 26.371876 160.325 27.10625Q161.45 28.075 162.0125 29.559376Q162.575 31.04375 162.575 32.965626Q162.575 34.590626 162.2 35.85625Q161.825 37.10625 161.21562 37.934376Q160.62187 38.7625 159.91875 39.246876Q159.21562 39.715626 158.21562 39.965626Q157.21562 40.2 155.90312 40.2L150.74687 40.2ZM152.6375 38.5125L155.7 38.5125Q157.10625 38.5125 157.90312 38.246876Q158.71562 37.98125 159.2 37.496876Q159.87187 36.825 160.24687 35.7Q160.62187 34.559376 160.62187 32.934376Q160.62187 30.684376 159.8875 29.48125Q159.15312 28.278126 158.09062 27.871876Q157.34062 27.575 155.65312 27.575L152.6375 27.575L152.6375 38.5125ZM173.40312 40.2L169.45 29.825L171.30937 29.825L173.54375 36.04375Q173.90312 37.04375 174.2 38.121876Q174.43437 37.309376 174.85625 36.153126L177.15312 29.825L178.96562 29.825L175.04375 40.2L173.40312 40.2ZM178.80937 37.10625L180.55937 36.825Q180.7 37.871876 181.37187 38.434376Q182.04375 38.98125 183.24687 38.98125Q184.45 38.98125 185.02812 38.496876Q185.62187 37.996876 185.62187 37.340626Q185.62187 36.746876 185.10625 36.403126Q184.74687 36.16875 183.30937 35.809376Q181.37187 35.309376 180.62187 34.965626Q179.8875 34.60625 179.49687 33.98125Q179.10625 33.340626 179.10625 32.575Q179.10625 31.8875 179.41875 31.29375Q179.74687 30.7 180.29375 30.309376Q180.7 30.0125 181.40312 29.809376Q182.12187 29.590626 182.93437 29.590626Q184.15312 29.590626 185.075 29.95Q185.99687 30.29375 186.43437 30.903126Q186.87187 31.496876 187.04375 32.496876L185.325 32.73125Q185.2 31.934376 184.6375 31.496876Q184.075 31.04375 183.05937 31.04375Q181.84062 31.04375 181.325 31.45Q180.80937 31.840626 180.80937 32.371876Q180.80937 32.715626 181.02812 32.996876Q181.23125 33.278126 181.7 33.465626Q181.96562 33.559376 183.24687 33.903126Q185.12187 34.403126 185.85625 34.73125Q186.59062 35.04375 187.0125 35.653126Q187.43437 36.246876 187.43437 37.153126Q187.43437 38.028126 186.91875 38.809376Q186.40312 39.590626 185.43437 40.0125Q184.46562 40.434376 183.24687 40.434376Q181.23125 40.434376 180.16875 39.590626Q179.10625 38.746876 178.80937 37.10625ZM190.0125 40.2L190.0125 38.2L192.0125 38.2L192.0125 40.2L190.0125 40.2ZM201.66875 40.2L201.66875 25.8875L203.55937 25.8875L203.55937 38.5125L210.60625 38.5125L210.60625 40.2L201.66875 40.2ZM211.87187 35.0125Q211.87187 32.1375 213.46562 30.746876Q214.80937 29.590626 216.73125 29.590626Q218.87187 29.590626 220.21562 30.996876Q221.575 32.403126 221.575 34.871876Q221.575 36.871876 220.98125 38.028126Q220.3875 39.16875 219.23125 39.809376Q218.09062 40.434376 216.73125 40.434376Q214.54375 40.434376 213.2 39.04375Q211.87187 37.6375 211.87187 35.0125ZM213.66875 35.0125Q213.66875 37.0125 214.52812 37.996876Q215.40312 38.98125 216.73125 38.98125Q218.04375 38.98125 218.90312 37.996876Q219.77812 36.996876 219.77812 34.95Q219.77812 33.028126 218.90312 32.04375Q218.02812 31.04375 216.73125 31.04375Q215.40312 31.04375 214.52812 32.04375Q213.66875 33.028126 213.66875 35.0125ZM233.96562 35.184376L235.85625 35.653126Q235.2625 37.996876 233.71562 39.23125Q232.16875 40.45 229.91875 40.45Q227.60625 40.45 226.15312 39.5125Q224.71562 38.559376 223.95 36.778126Q223.2 34.98125 223.2 32.934376Q223.2 30.7 224.04375 29.04375Q224.90312 27.371876 226.48125 26.5125Q228.05937 25.6375 229.95 25.6375Q232.10625 25.6375 233.55937 26.73125Q235.02812 27.825 235.60625 29.809376L233.74687 30.246876Q233.24687 28.684376 232.29375 27.98125Q231.35625 27.2625 229.91875 27.2625Q228.2625 27.2625 227.15312 28.059376Q226.04375 28.840626 225.59062 30.184376Q225.15312 31.5125 225.15312 32.91875Q225.15312 34.746876 225.68437 36.121876Q226.21562 37.48125 227.34062 38.153126Q228.46562 38.825 229.7625 38.825Q231.35625 38.825 232.46562 37.903126Q233.575 36.98125 233.96562 35.184376ZM247.96562 35.184376L249.85625 35.653126Q249.2625 37.996876 247.71562 39.23125Q246.16875 40.45 243.91875 40.45Q241.60625 40.45 240.15312 39.5125Q238.71562 38.559376 237.95 36.778126Q237.2 34.98125 237.2 32.934376Q237.2 30.7 238.04375 29.04375Q238.90312 27.371876 240.48125 26.5125Q242.05937 25.6375 243.95 25.6375Q246.10625 25.6375 247.55937 26.73125Q249.02812 27.825 249.60625 29.809376L247.74687 30.246876Q247.24687 28.684376 246.29375 27.98125Q245.35625 27.2625 243.91875 27.2625Q242.2625 27.2625 241.15312 28.059376Q240.04375 28.840626 239.59062 30.184376Q239.15312 31.5125 239.15312 32.91875Q239.15312 34.746876 239.68437 36.121876Q240.21562 37.48125 241.34062 38.153126Q242.46562 38.825 243.7625 38.825Q245.35625 38.825 246.46562 37.903126Q247.575 36.98125 247.96562 35.184376ZM251.98125 40.2L251.98125 38.2L253.98125 38.2L253.98125 40.2Q253.98125 41.309376 253.59062 41.98125Q253.2 42.66875 252.35625 43.028126L251.85625 42.278126Q252.41875 42.04375 252.68437 41.559376Q252.95 41.090626 252.98125 40.2L251.98125 40.2ZM270.29376 38.91875Q269.3094 39.746876 268.40314 40.090626Q267.4969 40.434376 266.46564 40.434376Q264.7625 40.434376 263.84064 39.60625Q262.91876 38.7625 262.91876 37.465626Q262.91876 36.7 263.2625 36.075Q263.6219 35.45 264.1844 35.075Q264.7469 34.684376 265.45 34.48125Q265.96564 34.35625 267.0125 34.215626Q269.1375 33.965626 270.1375 33.621876Q270.15314 33.2625 270.15314 33.153126Q270.15314 32.090626 269.65314 31.6375Q268.98126 31.04375 267.65314 31.04375Q266.40314 31.04375 265.8094 31.48125Q265.23126 31.91875 264.95 33.028126L263.23126 32.79375Q263.46564 31.684376 263.9969 31.0125Q264.52814 30.325 265.54376 29.965626Q266.5594 29.590626 267.90314 29.590626Q269.23126 29.590626 270.0594 29.903126Q270.8875 30.215626 271.27814 30.7Q271.66876 31.16875 271.825 31.8875Q271.91876 32.340626 271.91876 33.5125L271.91876 35.85625Q271.91876 38.309376 272.02814 38.965626Q272.1375 39.60625 272.48126 40.2L270.6375 40.2Q270.3719 39.653126 270.29376 38.91875ZM270.1375 34.996876Q269.1844 35.3875 267.2625 35.653126Q266.1844 35.809376 265.73126 36.0125Q265.29376 36.2 265.04376 36.575Q264.79376 36.95 264.79376 37.41875Q264.79376 38.121876 265.325 38.590626Q265.85626 39.059376 266.8875 39.059376Q267.90314 39.059376 268.6844 38.621876Q269.48126 38.16875 269.85626 37.403126Q270.1375 36.79375 270.1375 35.6375L270.1375 34.996876ZM274.9344 40.2L274.9344 31.2L273.3875 31.2L273.3875 29.825L274.9344 29.825L274.9344 28.73125Q274.9344 27.684376 275.1219 27.16875Q275.3719 26.48125 276.0125 26.059376Q276.65314 25.6375 277.8094 25.6375Q278.5594 25.6375 279.45 25.809376L279.1844 27.340626Q278.6375 27.246876 278.15314 27.246876Q277.35626 27.246876 277.0125 27.590626Q276.6844 27.934376 276.6844 28.871876L276.6844 29.825L278.71564 29.825L278.71564 31.2L276.6844 31.2L276.6844 40.2L274.9344 40.2ZM284.35626 38.621876L284.60626 40.184376Q283.8719 40.340626 283.27814 40.340626Q282.325 40.340626 281.79376 40.04375Q281.27814 39.73125 281.0594 39.246876Q280.84064 38.746876 280.84064 37.16875L280.84064 31.2L279.5594 31.2L279.5594 29.825L280.84064 29.825L280.84064 27.2625L282.59064 26.2L282.59064 29.825L284.35626 29.825L284.35626 31.2L282.59064 31.2L282.59064 37.2625Q282.59064 38.0125 282.6844 38.23125Q282.77814 38.434376 282.98126 38.575Q283.2 38.7 283.59064 38.7Q283.8719 38.7 284.35626 38.621876ZM293.6219 36.85625L295.4344 37.090626Q295.0125 38.66875 293.84064 39.559376Q292.6844 40.434376 290.8719 40.434376Q288.60626 40.434376 287.2625 39.04375Q285.9344 37.6375 285.9344 35.10625Q285.9344 32.48125 287.27814 31.04375Q288.6219 29.590626 290.77814 29.590626Q292.85626 29.590626 294.16876 31.0125Q295.4969 32.41875 295.4969 34.996876Q295.4969 35.153126 295.48126 35.465626L287.7469 35.465626Q287.84064 37.16875 288.71564 38.075Q289.59064 38.98125 290.8875 38.98125Q291.85626 38.98125 292.52814 38.48125Q293.21564 37.965626 293.6219 36.85625ZM287.84064 34.0125L293.6375 34.0125Q293.52814 32.715626 292.98126 32.059376Q292.1375 31.04375 290.79376 31.04375Q289.59064 31.04375 288.7625 31.85625Q287.9344 32.653126 287.84064 34.0125ZM297.4969 40.2L297.4969 29.825L299.075 29.825L299.075 31.403126Q299.6844 30.29375 300.2 29.95Q300.71564 29.590626 301.325 29.590626Q302.21564 29.590626 303.1375 30.153126L302.52814 31.79375Q301.8875 31.403126 301.2469 31.403126Q300.66876 31.403126 300.2 31.7625Q299.7469 32.10625 299.54376 32.715626Q299.2625 33.653126 299.2625 34.7625L299.2625 40.2L297.4969 40.2ZM314.35626 38.621876L314.60626 40.184376Q313.8719 40.340626 313.27814 40.340626Q312.325 40.340626 311.79376 40.04375Q311.27814 39.73125 311.0594 39.246876Q310.84064 38.746876 310.84064 37.16875L310.84064 31.2L309.5594 31.2L309.5594 29.825L310.84064 29.825L310.84064 27.2625L312.59064 26.2L312.59064 29.825L314.35626 29.825L314.35626 31.2L312.59064 31.2L312.59064 37.2625Q312.59064 38.0125 312.6844 38.23125Q312.77814 38.434376 312.98126 38.575Q313.2 38.7 313.59064 38.7Q313.8719 38.7 314.35626 38.621876ZM316.5125 40.2L316.5125 25.8875L318.27814 25.8875L318.27814 31.0125Q319.5125 29.590626 321.3875 29.590626Q322.52814 29.590626 323.3719 30.04375Q324.23126 30.496876 324.59064 31.309376Q324.96564 32.10625 324.96564 33.621876L324.96564 40.2L323.21564 40.2L323.21564 33.621876Q323.21564 32.309376 322.6375 31.715626Q322.0594 31.10625 321.02814 31.10625Q320.2469 31.10625 319.54376 31.5125Q318.85626 31.91875 318.5594 32.621876Q318.27814 33.309376 318.27814 34.528126L318.27814 40.2L316.5125 40.2ZM333.6219 36.85625L335.4344 37.090626Q335.0125 38.66875 333.84064 39.559376Q332.6844 40.434376 330.8719 40.434376Q328.60626 40.434376 327.2625 39.04375Q325.9344 37.6375 325.9344 35.10625Q325.9344 32.48125 327.27814 31.04375Q328.6219 29.590626 330.77814 29.590626Q332.85626 29.590626 334.16876 31.0125Q335.4969 32.41875 335.4969 34.996876Q335.4969 35.153126 335.48126 35.465626L327.7469 35.465626Q327.84064 37.16875 328.71564 38.075Q329.59064 38.98125 330.8875 38.98125Q331.85626 38.98125 332.52814 38.48125Q333.21564 37.965626 333.6219 36.85625ZM327.84064 34.0125L333.6375 34.0125Q333.52814 32.715626 332.98126 32.059376Q332.1375 31.04375 330.79376 31.04375Q329.59064 31.04375 328.7625 31.85625Q327.9344 32.653126 327.84064 34.0125ZM336.8094 37.10625L338.5594 36.825Q338.7 37.871876 339.3719 38.434376Q340.04376 38.98125 341.2469 38.98125Q342.45 38.98125 343.02814 38.496876Q343.6219 37.996876 343.6219 37.340626Q343.6219 36.746876 343.10626 36.403126Q342.7469 36.16875 341.3094 35.809376Q339.3719 35.309376 338.6219 34.965626Q337.8875 34.60625 337.4969 33.98125Q337.10626 33.340626 337.10626 32.575Q337.10626 31.8875 337.41876 31.29375Q337.7469 30.7 338.29376 30.309376Q338.7 30.0125 339.40314 29.809376Q340.1219 29.590626 340.9344 29.590626Q342.15314 29.590626 343.075 29.95Q343.9969 30.29375 344.4344 30.903126Q344.8719 31.496876 345.04376 32.496876L343.325 32.73125Q343.2 31.934376 342.6375 31.496876Q342.075 31.04375 341.0594 31.04375Q339.84064 31.04375 339.325 31.45Q338.8094 31.840626 338.8094 32.371876Q338.8094 32.715626 339.02814 32.996876Q339.23126 33.278126 339.7 33.465626Q339.96564 33.559376 341.2469 33.903126Q343.1219 34.403126 343.85626 34.73125Q344.59064 35.04375 345.0125 35.653126Q345.4344 36.246876 345.4344 37.153126Q345.4344 38.028126 344.91876 38.809376Q344.40314 39.590626 343.4344 40.0125Q342.46564 40.434376 341.2469 40.434376Q339.23126 40.434376 338.16876 39.590626Q337.10626 38.746876 336.8094 37.10625ZM347.52814 27.903126L347.52814 25.8875L349.29376 25.8875L349.29376 27.903126L347.52814 27.903126ZM347.52814 40.2L347.52814 29.825L349.29376 29.825L349.29376 40.2L347.52814 40.2ZM350.8094 37.10625L352.5594 36.825Q352.7 37.871876 353.3719 38.434376Q354.04376 38.98125 355.2469 38.98125Q356.45 38.98125 357.02814 38.496876Q357.6219 37.996876 357.6219 37.340626Q357.6219 36.746876 357.10626 36.403126Q356.7469 36.16875 355.3094 35.809376Q353.3719 35.309376 352.6219 34.965626Q351.8875 34.60625 351.4969 33.98125Q351.10626 33.340626 351.10626 32.575Q351.10626 31.8875 351.41876 31.29375Q351.7469 30.7 352.29376 30.309376Q352.7 30.0125 353.40314 29.809376Q354.1219 29.590626 354.9344 29.590626Q356.15314 29.590626 357.075 29.95Q357.9969 30.29375 358.4344 30.903126Q358.8719 31.496876 359.04376 32.496876L357.325 32.73125Q357.2 31.934376 356.6375 31.496876Q356.075 31.04375 355.0594 31.04375Q353.84064 31.04375 353.325 31.45Q352.8094 31.840626 352.8094 32.371876Q352.8094 32.715626 353.02814 32.996876Q353.23126 33.278126 353.7 33.465626Q353.96564 33.559376 355.2469 33.903126Q357.1219 34.403126 357.85626 34.73125Q358.59064 35.04375 359.0125 35.653126Q359.4344 36.246876 359.4344 37.153126Q359.4344 38.028126 358.91876 38.809376Q358.40314 39.590626 357.4344 40.0125Q356.46564 40.434376 355.2469 40.434376Q353.23126 40.434376 352.16876 39.590626Q351.10626 38.746876 350.8094 37.10625Z" fill-rule="nonzero"/></svg>